<svg width="127" height="113" viewBox="0 0 127 113" fill="none" xmlns="http://www.w3.org/2000/svg">
<path d="M82.1358 96.5909H44.8242V101.802H82.1358V96.5909Z" fill="#EAAD7A"/>
<path d="M55.9039 79.5907L46.8235 74.4569C46.2199 74.1208 45.5074 74.0291 44.841 74.2164C44.1745 74.4037 43.609 74.8428 43.2689 75.4464L24.6747 108.344C24.2182 109.151 24.2239 110.14 24.6918 110.938C25.1598 111.74 26.0174 112.237 26.9438 112.237H38.9275C39.8673 112.237 40.7345 111.729 41.1966 110.907L56.8914 83.1429C57.2314 82.5393 57.3173 81.8288 57.1339 81.164C56.9488 80.4998 56.5056 79.9306 55.9039 79.5907Z" fill="#FFD2A6"/>
<path d="M102.266 108.314L83.6703 75.4155C83.3266 74.8158 82.7611 74.3725 82.0963 74.1892C81.4315 74.0019 80.7171 74.0899 80.1174 74.4261L71.0334 79.5601C70.4297 79.9039 69.9904 80.4694 69.8033 81.1341C69.62 81.7989 69.7077 82.5133 70.0478 83.1131L85.7409 110.881C86.2069 111.699 87.0704 112.207 88.01 112.207H99.9934C100.922 112.207 101.777 111.71 102.243 110.912C102.713 110.109 102.721 109.12 102.266 108.314Z" fill="#FFD2A6"/>
<path d="M68.6728 0.0968628H58.2382C56.7979 0.0968628 55.631 1.26577 55.631 2.70606V53.5724C55.631 55.0127 56.7979 56.1796 58.2382 56.1796H68.6728C70.1092 56.1796 71.2781 55.0127 71.2781 53.5724V2.70581C71.2781 1.26577 70.1092 0.0968628 68.6728 0.0968628Z" fill="#FFD2A6"/>
<path d="M120.824 7.92029H6.08234C4.64229 7.92029 3.47339 9.08919 3.47339 10.5295V83.5486C3.47339 84.9889 4.64229 86.1538 6.08234 86.1538H120.824C122.268 86.1538 123.437 84.9886 123.437 83.5486V10.5292C123.437 9.08919 122.269 7.92029 120.824 7.92029Z" fill="#48CFAD"/>
<path d="M123.438 86.1537H3.47345C2.03316 86.1537 0.866211 84.9884 0.866211 83.5484C0.866211 82.1084 2.03316 80.9431 3.47345 80.9431H123.438C124.874 80.9431 126.043 82.1084 126.043 83.5484C126.043 84.9884 124.874 86.1537 123.438 86.1537Z" fill="#434A54"/>
<path d="M110.396 80.943H99.9666C98.5226 80.943 97.3535 79.7741 97.3535 78.3299C97.3535 76.894 98.5224 75.7251 99.9666 75.7251H110.396C111.836 75.7251 113.001 76.894 113.001 78.3299C113.001 79.7741 111.836 80.943 110.396 80.943Z" fill="#F5F7FA"/>
<path d="M37.3745 70.5062H16.5122V80.9425H37.3745V70.5062Z" fill="#FFCE54"/>
<path d="M24.3367 75.7252C25.777 75.7252 26.944 74.5563 26.944 73.1199V70.5068H21.7297V73.1199C21.7297 74.5563 22.8964 75.7252 24.3367 75.7252Z" fill="#F6BB42"/>
<path d="M29.5532 75.7252C28.1129 75.7252 26.944 76.8941 26.944 78.33V80.9431H32.1604V78.33C32.1604 76.8941 30.9932 75.7252 29.5532 75.7252Z" fill="#F6BB42"/>
<path d="M47.8225 60.0778H37.3285C36.2303 60.0778 35.2484 59.3884 34.876 58.3529C34.5037 57.3175 34.8188 56.1623 35.6667 55.4611C38.1517 53.3981 45.2419 46.4781 45.1999 41.8866C45.1903 40.8609 44.8216 40.1561 44.0691 39.7341C43.1752 39.2316 41.8897 39.247 41.0149 39.7685C40.3176 40.1869 39.9873 40.8494 40.0045 41.7951C40.0311 43.2352 38.8852 44.4251 37.4449 44.45C36.0105 44.4767 34.8166 43.3308 34.79 41.8907C34.7384 39.0774 36.0315 36.6706 38.339 35.2914C40.8335 33.8015 44.0845 33.7614 46.623 35.1863C49.0088 36.5254 50.3894 38.951 50.4163 41.8408C50.4469 45.3495 48.4777 49.4254 44.5659 53.9543C44.2948 54.2656 44.0253 54.5695 43.7598 54.8616H47.8225C49.2628 54.8616 50.4295 56.0305 50.4295 57.4706C50.4297 58.9109 49.2628 60.0778 47.8225 60.0778Z" fill="#F5F7FA"/>
<path d="M89.5798 60.0779H79.0863C77.9861 60.0779 77.0042 59.3884 76.6338 58.353C76.2595 57.3178 76.5766 56.1624 77.4208 55.4612C79.9114 53.3982 86.9977 46.4781 86.9557 41.8866C86.9481 40.861 86.5774 40.1561 85.8249 39.7341C84.9311 39.2317 83.6475 39.2471 82.7727 39.7686C82.0737 40.1869 81.7451 40.8495 81.7603 41.7952C81.7869 43.2352 80.641 44.4251 79.2009 44.4501C77.7685 44.4767 76.5727 43.3308 76.546 41.8908C76.4964 39.0774 77.7876 36.6707 80.0948 35.2915C82.5893 33.8016 85.8403 33.7615 88.3769 35.1864C90.7643 36.5254 92.1472 38.951 92.1738 41.8409C92.2044 45.3496 90.2331 49.4255 86.3215 53.9544C86.054 54.2656 85.7829 54.5695 85.5154 54.8617H89.5798C91.0201 54.8617 92.189 56.0306 92.189 57.4706C92.189 58.9109 91.0201 60.0779 89.5798 60.0779Z" fill="#F5F7FA"/>
<path d="M59.5847 53.41C58.9162 53.41 58.2495 53.156 57.7395 52.646C56.7214 51.6279 56.7214 49.9757 57.7395 48.9576L65.116 41.5811C66.134 40.5631 67.7863 40.5631 68.8024 41.5811C69.8224 42.6011 69.8224 44.2512 68.8024 45.2692L61.4276 52.646C60.9198 53.154 60.2511 53.41 59.5847 53.41Z" fill="#F5F7FA"/>
<path d="M66.9592 53.41C66.2925 53.41 65.626 53.156 65.116 52.646L57.7395 45.2692C56.7214 44.2512 56.7214 42.6011 57.7395 41.5811C58.7575 40.5631 60.4098 40.5631 61.4276 41.5811L68.8024 48.9576C69.8224 49.9757 69.8224 51.6279 68.8024 52.646C68.2944 53.154 67.6257 53.41 66.9592 53.41Z" fill="#F5F7FA"/>
</svg>
