<svg width="191" height="191" viewBox="0 0 191 191" fill="none" xmlns="http://www.w3.org/2000/svg">
<path d="M51.7449 117.148C51.7449 117.148 55.559 129.541 49.914 160.575C48.9034 166.144 47.4147 171.832 46.6595 176.494C37.1136 176.494 36.6028 187.371 38.6294 187.371H50.0063C57.2704 187.371 66.1481 169.257 70.9455 144.118C75.743 118.979 51.7449 117.148 51.7449 117.148ZM122.604 137.261C122.604 137.261 134.948 143.89 134.491 159.434C134.312 165.578 133.138 170.794 132.562 175.863C122.609 175.863 122.571 186.648 125.472 186.648H135.556C140.571 186.648 151.861 169.49 153.914 147.09C155.974 124.694 122.604 137.261 122.604 137.261Z" fill="#F18F26"/>
<path d="M190.409 41.1277C190.409 14.386 167.91 0.667358 141.511 0.667358C140.07 0.667358 138.688 1.23977 137.669 2.25868C136.65 3.27758 136.078 4.65952 136.078 6.10046C136.078 7.54141 136.65 8.92335 137.669 9.94225C138.688 10.9612 140.07 11.5336 141.511 11.5336C151.312 11.5336 178.005 16.6081 178.005 41.1277C178.005 56.7805 169.491 70.8033 157.522 73.6285C156.631 73.2319 155.648 73.0635 154.757 72.5854C115.426 51.3039 81.6433 77.486 72.0321 71.0098C62.5133 64.5879 69.1036 53.325 56.689 42.524C54.8961 32.5217 50.8593 18.2 46.942 18.2C43.9592 18.2 40.0691 28.1154 37.4884 38.0634C34.2774 30.5603 30.0831 23.0898 27.3828 23.0898C23.9056 23.0898 20.4393 35.4392 18.7224 46.099C9.59483 52.3308 2.93384 61.3606 2.93384 71.9877C2.93384 86.6571 24.9379 90.2267 32.2726 90.5201C39.6073 90.8135 48.6969 109.873 51.7503 118.077C58.4982 141.803 62.8936 165.339 66.4088 178.835C57.4496 178.835 56.6075 190.305 59.085 190.305C62.9588 190.305 69.6959 190.288 71.1737 190.305C78.6768 190.381 82.1811 164.736 82.1811 142.227C82.1811 141.075 82.1214 138.82 82.1214 138.82C82.1214 138.82 92.6073 141.564 114.926 137.69C128.205 135.387 142.255 142.303 146.145 154.875C149.008 164.133 153.746 172.832 156.294 179.237C147.661 179.237 147.9 190.305 150.405 190.305C154.681 190.305 160.19 190.381 162.265 190.305C170.241 190.006 165.759 149.154 167.861 135.446C169.964 121.739 174.745 105.141 166.617 87.6514C184.199 78.0131 190.409 57.7421 190.409 41.1277Z" fill="#FFCC4E"/>
<path d="M27.3828 64.0609C30.0834 64.0609 32.2726 61.8717 32.2726 59.1711C32.2726 56.4705 30.0834 54.2813 27.3828 54.2813C24.6823 54.2813 22.493 56.4705 22.493 59.1711C22.493 61.8717 24.6823 64.0609 27.3828 64.0609Z" fill="#292F33"/>
<path d="M11.0292 65.1041C7.35099 67.4023 7.35099 74.7587 5.5146 74.7587C3.67821 74.7587 1.42297e-06 70.4339 1.42297e-06 65.1041C-0.00543168 59.7742 15.5496 62.2788 11.0292 65.1041Z" fill="#E75A70"/>
<path d="M30.5557 73.1614C30.333 73.3026 30.0668 73.357 29.7842 73.3026C29.6864 73.2809 21.3738 71.9933 15.957 74.0959C15.2561 74.3675 14.1043 73.9709 13.7131 73.0582C13.3219 72.1454 13.8381 71.0751 14.5389 70.8034C22.3626 67.712 30.0613 69.5321 30.4797 69.619C31.2349 69.7766 31.5391 70.6513 31.5011 71.6401C31.4794 72.2595 30.9361 72.9169 30.5557 73.1614ZM27.9913 85.8694C27.8588 85.8938 27.7228 85.8915 27.5913 85.8626C27.4597 85.8336 27.3353 85.7787 27.2252 85.701C27.1437 85.6467 19.9938 81.1915 14.1749 81.0666C13.4252 81.0503 12.5178 80.2298 12.5178 79.2139C12.5178 78.2033 13.4143 77.3938 14.1695 77.4046C22.6017 77.535 28.9693 82.2455 29.3224 82.4955C29.9581 82.941 29.8875 83.8809 29.4691 84.7991C29.2029 85.3804 28.4423 85.7879 27.9913 85.8694Z" fill="#FEE7B8"/>
<path d="M37.4884 38.0525C37.4884 38.0525 39.5095 37.8406 42.1555 38.2318C43.3344 35.7326 45.3338 33.4126 45.3338 33.4126C45.3338 33.4126 46.8605 37.042 47.431 39.8183C47.5668 40.4703 48.6154 40.454 49.1805 40.8451C49.1805 40.8451 49.3869 22.0303 44.4917 20.0037C44.4971 19.9929 40.3897 26.1105 37.4884 38.0525ZM18.717 46.0881C18.717 46.0881 20.8034 44.6374 23.5145 42.9695C24.6935 39.5792 26.6005 35.7271 26.6005 35.7271C26.6005 35.7271 28.2684 38.9979 28.4749 40.128C29.6159 39.5086 29.6159 39.5521 30.6644 39.0957C30.6644 39.0957 30.0451 26.6756 24.6935 25.3662C24.6935 25.3662 20.7164 32.8204 18.717 46.0881Z" fill="#F18F26"/>
<path d="M95.0577 123.695C80.6654 126.791 82.1269 138.809 82.1269 138.809C82.1269 138.809 92.6128 141.553 114.932 137.679C120.639 136.726 126.499 137.437 131.813 139.728C123.082 123.173 108.369 120.826 95.0577 123.695Z" fill="#FFDD99"/>
<path d="M74.6075 71.89C77.1937 75.5627 87.6307 84.7555 89.5214 83.62C91.3578 82.5171 92.727 72.455 91.3795 68.918C84.1589 70.8685 78.4216 72.493 74.6075 71.89ZM112.77 86.4996C116.155 87.2493 120.957 70.3144 120.43 64.0989C112.558 64.1912 105.326 65.4898 98.8881 67.0165C100.708 72.8842 109.499 85.7715 112.77 86.4996ZM127.042 64.3216C127.271 68.2498 132.378 78.464 134.024 79.192C135.692 79.9364 143.179 72.0258 144.162 67.9944C138.637 66.0408 132.883 64.8064 127.042 64.3216Z" fill="#F18F26"/>
</svg>
