<svg width="195" height="179" viewBox="0 0 195 179" fill="none" xmlns="http://www.w3.org/2000/svg">
<path d="M167.395 62.7859C186.455 59.2544 186.884 28.5737 167.118 28.8073C151.65 28.992 153.21 43.9928 151.118 41.0426C147.054 35.3107 145.744 20.5653 161.234 14.453C174.605 9.17748 192.996 19.8644 194.175 39.3964C194.93 51.9034 187.128 75.005 159.115 71.1584C119.877 65.7742 148.342 66.312 167.395 62.7859Z" fill="#D99E82"/>
<path d="M54.8596 103.866C54.8596 103.866 60.3796 116.644 58.5323 148.645C58.2009 154.388 57.3968 160.25 57.2175 165.064C47.3727 165.064 48.242 176.278 50.3284 176.278H66.0952C69.806 176.278 76.3801 157.599 78.1133 131.678C79.8464 105.751 54.8596 103.866 54.8596 103.866ZM119.459 102.067C119.459 102.067 122.583 121.235 139.295 136.91C140.692 143.228 143.474 159.903 144.451 165.135C134.188 165.135 137.486 176.256 140.48 176.256H154.856C160.023 176.256 160.789 157.556 155.975 134.454C151.167 111.358 119.459 102.067 119.459 102.067Z" fill="#C1694F"/>
<path d="M173.741 69.7402C166.934 49.3552 134.547 50.0289 97.694 54.7177C81.0959 56.8312 77.9175 30.5241 77.9175 25.9983C77.9175 6.29784 60.2925 -3.63931 42.6241 3.02168C38.3917 4.61358 35.0069 10.2477 33.0944 13.1924C22.3532 29.6928 7.78701 13.2739 6.37983 28.5247C4.67927 46.9701 15.7302 53.1584 33.8225 54.7177C44.1019 55.6033 52.6156 60.6669 54.854 82.1223C55.6907 90.1198 53.2512 112.787 67.8283 120.567C72.0661 136.643 77.8035 156.507 80.0528 166.613C67.8174 169.199 72.767 178.451 72.767 178.451C72.767 178.451 89.8867 178.218 93.6083 178.218C98.0309 178.218 94.6461 145.749 88.5284 125.044C114.412 125.277 131.059 117.78 136.334 115.471C141.92 131.553 158.893 135.209 162.69 142.049C165.043 146.287 172.894 160.43 173.562 166.477C164.858 169.302 167.634 175.887 168.623 178.006C174.507 177.772 186.118 177.772 187.628 177.772C193.659 177.772 181.451 140.262 176.311 130.433C170.432 119.181 180.554 90.1252 173.741 69.7402Z" fill="#D99E82"/>
<path d="M87.1592 117.606C87.3983 119.622 87.9253 122.447 88.5338 125.044C114.417 125.277 131.064 117.78 136.34 115.471C135.172 111.233 135.09 108.571 135.411 107.115C116.971 110.141 110.701 119.095 87.1592 117.606ZM33.8224 54.7177C44.1018 55.6033 46.9977 60.5257 49.2415 81.981C50.0782 89.9786 53.2566 112.787 67.8282 120.567C63.9164 105.419 57.1847 53.2616 33.8224 54.7177Z" fill="#F4C7B5"/>
<path d="M15.9151 20.902C0.740438 20.902 5.5433 23.7599 5.03802 30.0949C4.53274 36.4299 4.63597 46.2638 9.25411 51.4415C15.3772 58.2981 30.215 58.3198 37.5878 52.9465C44.9605 47.5732 35.2841 20.902 15.9151 20.902Z" fill="#F4C7B5"/>
<path d="M12.3836 29.9264C11.7914 34.0665 9.69967 36.4027 7.60793 36.0822C3.47877 35.4465 0.0450439 30.1764 0.0450439 25.9983C0.0450439 21.8203 3.4353 20.7662 7.60793 20.9564C13.2747 21.2172 13.0519 25.2377 12.3836 29.9264Z" fill="#272B2B"/>
<path d="M81.1883 33.7296C83.079 47.3939 74.9022 49.4747 68.2412 49.4747C61.5802 49.4747 51.6485 42.6834 53.311 28.9919C54.0391 22.9775 56.3264 17.0771 57.7064 11.7418C59.5319 4.66248 64.2207 2.33167 67.9967 4.31476C77.0428 9.06329 79.9659 24.9443 81.1883 33.7296Z" fill="#662113"/>
<path d="M42.6242 25.9984C45.4088 25.9984 47.6661 23.7411 47.6661 20.9565C47.6661 18.1719 45.4088 15.9146 42.6242 15.9146C39.8396 15.9146 37.5823 18.1719 37.5823 20.9565C37.5823 23.7411 39.8396 25.9984 42.6242 25.9984Z" fill="#292F33"/>
<path d="M102.204 54.1744C102.6 62.4979 107.126 71.4408 117.052 74.0758C127.381 76.8196 139.437 74.7659 142.425 60.6289C142.919 58.2927 143.131 53.9788 142.822 52.4032C131.135 51.4307 117.123 52.4032 102.204 54.1744Z" fill="#C1694F"/>
<path d="M15.3717 44.4057C16.836 44.4057 18.023 43.2186 18.023 41.7543C18.023 40.29 16.836 39.103 15.3717 39.103C13.9074 39.103 12.7203 40.29 12.7203 41.7543C12.7203 43.2186 13.9074 44.4057 15.3717 44.4057Z" fill="#D99E82"/>
<path d="M18.8598 39.4183C19.667 39.4183 20.3213 38.7639 20.3213 37.9567C20.3213 37.1496 19.667 36.4952 18.8598 36.4952C18.0527 36.4952 17.3983 37.1496 17.3983 37.9567C17.3983 38.7639 18.0527 39.4183 18.8598 39.4183Z" fill="#D99E82"/>
<path d="M21.0601 43.2159C21.8673 43.2159 22.5216 42.5616 22.5216 41.7544C22.5216 40.9472 21.8673 40.2929 21.0601 40.2929C20.253 40.2929 19.5986 40.9472 19.5986 41.7544C19.5986 42.5616 20.253 43.2159 21.0601 43.2159Z" fill="#D99E82"/>
</svg>
