<svg width="184" height="160" viewBox="0 0 184 160" fill="none" xmlns="http://www.w3.org/2000/svg">
<path d="M177.12 117.236C181.399 95.5378 169.785 71.7 169.785 71.3944L173.147 69.5607C173.758 70.4776 185.372 94.9265 180.787 117.847L177.12 117.236Z" fill="#6B7B7F"/>
<path d="M180.482 105.623C176.815 110.513 174.37 115.403 173.453 119.376C173.453 123.043 174.675 127.627 176.815 131.906C180.482 127.016 182.927 122.126 183.844 118.153C183.844 114.486 182.621 109.902 180.482 105.623Z" fill="#6B7B7F"/>
<path d="M67.4054 83.3132H103.773V159.411H67.4054V83.3132Z" fill="#6B7B7F"/>
<path d="M72.2951 152.076C75.0456 152.076 77.1849 155.438 77.1849 159.411H67.4053C67.4053 155.438 69.8502 152.076 72.2951 152.076Z" fill="#808F96"/>
<path d="M82.3803 152.076C85.1308 152.076 87.2701 155.438 87.2701 159.411H77.4905C77.4905 155.438 79.6298 152.076 82.3803 152.076Z" fill="#808F96"/>
<path d="M92.1599 152.076C94.9104 152.076 97.0497 155.438 97.0497 159.411H87.2701C87.2701 155.438 89.4094 152.076 92.1599 152.076Z" fill="#808F96"/>
<path d="M72.9064 83.0077H109.274V159.411H72.9064V83.0077Z" fill="#9CAAAF"/>
<path d="M77.7962 152.076C80.5467 152.076 82.686 155.438 82.686 159.411H72.9064C72.9064 155.438 75.0457 152.076 77.7962 152.076Z" fill="#FFC5D3"/>
<path d="M87.8812 152.076C90.6317 152.076 92.771 155.438 92.771 159.411H82.9914C82.6857 155.438 85.1306 152.076 87.8812 152.076Z" fill="#FFC5D3"/>
<path d="M97.6608 152.076C100.411 152.076 102.551 155.438 102.551 159.411H92.771C92.771 155.438 94.9103 152.076 97.6608 152.076Z" fill="#FFC5D3"/>
<path d="M121.193 83.3132H157.561V159.411H121.193V83.3132Z" fill="#6B7B7F"/>
<path d="M126.389 152.076C129.139 152.076 131.278 155.438 131.278 159.411H121.499C121.193 155.438 123.638 152.076 126.389 152.076Z" fill="#808F96"/>
<path d="M136.168 152.076C138.919 152.076 141.058 155.438 141.058 159.411H131.278C131.278 155.438 133.418 152.076 136.168 152.076Z" fill="#808F96"/>
<path d="M145.948 152.076C148.698 152.076 150.837 155.438 150.837 159.411H141.058C141.058 155.438 143.197 152.076 145.948 152.076Z" fill="#808F96"/>
<path d="M135.863 83.0077H172.23V159.411H135.863V83.0077Z" fill="#9CAAAF"/>
<path d="M140.752 152.076C143.503 152.076 145.642 155.438 145.642 159.411H135.863C135.863 155.438 138.002 152.076 140.752 152.076Z" fill="#FFC5D3"/>
<path d="M150.532 152.076C153.283 152.076 155.422 155.438 155.422 159.411H145.642C145.642 155.438 147.781 152.076 150.532 152.076Z" fill="#FFC5D3"/>
<path d="M160.617 152.076C163.368 152.076 165.507 155.438 165.507 159.411H155.727C155.727 155.438 157.867 152.076 160.617 152.076Z" fill="#FFC5D3"/>
<path d="M176.509 79.9516C176.509 107.457 160.311 130.989 140.447 129.461C127.305 128.544 100.717 123.043 87.5757 122.432V30.1368H140.447C160.311 30.1368 176.509 52.4465 176.509 79.9516Z" fill="#9CAAAF"/>
<path d="M73.8232 82.3964C50.2911 95.2321 38.6778 77.8122 36.8441 78.7291C33.4824 80.2571 30.7319 76.5898 32.8712 74.1449C42.3451 63.7541 8.11658 61.3092 8.11658 61.3092C13.312 49.6959 28.8982 9.35507 47.8462 4.15966C66.7941 -1.03575 74.1288 -1.34136 84.214 5.38211C97.3553 14.5505 95.5217 70.7831 73.8232 82.3964Z" fill="#9CAAAF"/>
<path d="M22.7859 129.155C35.9272 135.879 55.4864 133.434 63.4323 119.375C66.4885 113.874 60.0706 115.708 55.1808 112.652C50.291 109.596 48.4573 103.484 45.4012 108.679C43.2619 112.346 37.7609 111.124 34.3992 109.29C30.1206 106.845 26.7589 102.261 25.842 96.7602C24.314 89.4255 26.4533 80.8683 31.6487 71.3943C34.7048 65.8933 33.1767 59.4755 28.2869 56.4193C23.3971 53.3632 12.7007 53.0576 9.64458 58.5586C-11.4427 95.5377 8.72774 122.126 22.7859 129.155Z" fill="#9CAAAF"/>
<path d="M141.669 51.8352C141.669 84.8414 121.499 97.6771 96.4385 97.6771C71.3783 97.6771 68.3221 76.8955 68.3221 51.5296C68.3221 26.1638 71.3783 5.99341 96.4385 5.99341C121.499 5.99341 141.669 18.8291 141.669 51.8352Z" fill="#808F96"/>
<path d="M138.919 48.7791C138.919 80.8684 119.054 93.3985 94.6048 93.3985C70.1559 93.3985 65.5717 73.2281 65.5717 48.7791C65.5717 36.5546 61.5987 18.8291 65.5717 10.5776C65.5717 10.5776 82.3803 3.85413 94.6048 3.85413C119.054 4.15974 138.919 16.6898 138.919 48.7791Z" fill="#9CAAAF"/>
<path d="M129.139 50.6128C129.139 75.0618 115.081 84.5357 97.9666 84.5357C71.3783 84.5357 86.3533 68.6439 86.3533 49.6959C86.3533 30.748 82.9916 16.6898 97.9666 16.6898C115.386 16.6898 129.139 26.1638 129.139 50.6128Z" fill="#FFC5D3"/>
<path d="M44.1789 38.6939C50.2911 37.1659 56.4033 40.8332 57.9314 46.6398C59.7651 52.4465 56.0977 58.5587 50.2911 60.0868C44.1789 61.6148 38.0666 57.9475 36.5386 52.1409C34.7049 46.3342 38.0666 40.222 44.1789 38.6939Z" fill="#42ADE2"/>
<path d="M45.0956 42.6668C49.0686 41.75 53.0415 43.8893 53.9584 47.8623C55.1808 51.5296 52.7359 55.5026 49.0686 56.4194C45.0956 57.3362 41.1226 55.197 40.2058 51.224C38.9834 47.251 41.4283 43.5837 45.0956 42.6668Z" fill="#3E4347"/>
<path d="M39.9002 73.8393C36.5385 67.1158 41.7339 57.6419 51.2079 53.0577C60.6819 48.4735 71.0727 50.3072 74.4344 57.0306C77.7962 63.7541 72.6007 73.2281 63.1268 77.8123C53.3472 82.7021 42.9563 80.8684 39.9002 73.8393Z" fill="#9CAAAF"/>
</svg>
