<svg width="92" height="187" viewBox="0 0 92 187" fill="none" xmlns="http://www.w3.org/2000/svg">
<path d="M90.3002 12.8618V173.919C90.3002 180.032 85.2576 185.074 79.1453 185.074H12.8275C6.71521 185.074 1.67261 180.032 1.67261 173.919V12.8618C1.67261 6.74957 6.71521 1.70697 12.8275 1.70697H79.1453C85.2576 1.70697 90.3002 6.74957 90.3002 12.8618Z" fill="#B1B9DE"/>
<path d="M78.5341 161.389H13.4387C6.86802 161.389 1.67261 156.041 1.67261 149.623V161.389C1.67261 167.96 7.02082 173.155 13.4387 173.155H78.3813C84.9519 173.155 90.1474 167.807 90.1474 161.389V149.623C90.3002 156.194 84.9519 161.389 78.5341 161.389Z" fill="white"/>
<path d="M78.5341 1.70697H72.5747C79.1453 1.70697 84.3407 7.05518 84.3407 13.473V173.155C84.3407 179.726 78.9925 184.922 72.5747 184.922H78.5341C85.1048 184.922 90.3002 179.573 90.3002 173.155V13.473C90.3002 7.05518 84.952 1.70697 78.5341 1.70697Z" fill="#0D1014"/>
<path d="M7.63205 173.308V13.473C7.63205 6.90238 12.9803 1.70697 19.3981 1.70697H13.4387C7.02082 1.70697 1.67261 7.05518 1.67261 13.473V173.155C1.67261 179.726 7.02082 184.922 13.4387 184.922H19.3981C12.8275 185.074 7.63205 179.726 7.63205 173.308Z" fill="white"/>
<path d="M1.67261 13.473V81.6246H90.3002V13.473C90.3002 7.05518 84.952 1.70697 78.5341 1.70697H13.4387C7.02082 1.70697 1.67261 7.05518 1.67261 13.473Z" fill="#EC7BB0"/>
<path d="M90.3002 83.3054H1.67259C0.755756 83.3054 0.144531 82.6942 0.144531 81.7774V13.473C0.144531 6.13833 6.10397 0.178894 13.4387 0.178894H78.3813C85.716 0.178894 91.6754 6.13833 91.6754 13.473V81.6246C91.8282 82.5414 91.0642 83.3054 90.3002 83.3054ZM3.20065 80.2493H88.7721V13.473C88.7721 7.8192 84.1879 3.23502 78.5341 3.23502H13.4387C7.78484 3.23502 3.20065 7.8192 3.20065 13.473V80.2493Z" fill="#6A576D"/>
<path d="M79.1453 186.602H12.8274C5.79836 186.602 0.144531 180.949 0.144531 173.919V12.8618C0.144531 5.83272 5.79836 0.178894 12.8274 0.178894H79.1453C86.1744 0.178894 91.8282 5.83272 91.8282 12.8618V173.919C91.8282 180.949 86.1744 186.602 79.1453 186.602ZM12.8274 3.23502C7.47922 3.23502 3.20065 7.51359 3.20065 12.8618V173.919C3.20065 179.268 7.47922 183.546 12.8274 183.546H79.1453C84.4935 183.546 88.7721 179.268 88.7721 173.919V12.8618C88.7721 7.51359 84.4935 3.23502 79.1453 3.23502H12.8274Z" fill="#6A576D"/>
<path d="M78.5341 186.602H13.4387C6.10397 186.602 0.144531 180.643 0.144531 173.308V137.857H3.20065C3.20065 143.511 7.78484 148.095 13.4387 148.095H78.3813C84.0351 148.095 88.6193 143.511 88.6193 137.857H91.6754V173.308C91.8282 180.643 85.8688 186.602 78.5341 186.602ZM3.20065 146.262V173.156C3.20065 178.809 7.78484 183.394 13.4387 183.394H78.3813C84.0351 183.394 88.6193 178.809 88.6193 173.156V146.262C86.1744 149.165 82.507 151.151 78.3813 151.151H13.4387C9.3129 151.151 5.64555 149.318 3.20065 146.262Z" fill="#6A576D"/>
<path d="M78.5341 174.836H13.4387C6.10397 174.836 0.144531 168.877 0.144531 161.542V149.776C0.144531 148.859 0.755756 148.248 1.67259 148.248C2.58943 148.248 3.20065 148.859 3.20065 149.776C3.20065 155.43 7.78484 160.014 13.4387 160.014H78.3813C84.0351 160.014 88.6193 155.43 88.6193 149.776C88.6193 148.859 89.2305 148.248 90.1473 148.248C91.0642 148.248 91.6754 148.859 91.6754 149.776V161.542C91.8282 168.877 85.8688 174.836 78.5341 174.836ZM3.20065 158.18V161.542C3.20065 167.196 7.78484 171.78 13.4387 171.78H78.3813C84.0351 171.78 88.6193 167.196 88.6193 161.542V158.18C86.1744 161.084 82.507 163.07 78.3813 163.07H13.4387C9.3129 162.917 5.64555 161.084 3.20065 158.18Z" fill="#6A576D"/>
</svg>
