<svg width="169" height="277" viewBox="0 0 169 277" fill="none" xmlns="http://www.w3.org/2000/svg">
<g clip-path="url(#clip0_195_1412)">
<path d="M26.8152 8.70251L33.7625 7.73761L41.7023 1.13031C28.2586 3.94206 16.461 11.9304 8.85874 23.3691L26.0984 23.2037L26.8152 8.70251Z" fill="white"/>
<path d="M98.6776 51.7465L98.8797 47.3079L102.151 44.6153L93.2925 42.7774L82.991 44.8175L76.062 41.9228L83.3494 43.191L93.6417 40.2135L102.546 41.5001L103.566 40.2962C103.401 39.5887 103.217 38.8902 103.024 38.1918L99.2473 35.7566L102.638 36.9788C102.298 35.8669 101.903 34.7733 101.49 33.6798L100.332 33.7992L101.453 33.5787C97.0779 22.2588 88.9157 12.8046 78.3553 6.8249C67.7949 0.845193 55.4887 -1.29055 43.531 0.781114L37.6772 7.06678L66.8357 3.1704L30.7023 10.8529L33.0273 27.4952L5.11859 29.9396C1.17637 38.1942 -0.538606 47.3362 0.143868 56.4584C0.826341 65.5805 3.88254 74.3656 9.00913 81.9417C14.1357 89.5178 21.1545 95.6215 29.3687 99.647C37.583 103.673 46.7072 105.48 55.8358 104.89L49.1642 101.912L47.5376 99.1003L41.6104 95.7369L47.2528 96.9132L45.7181 92.3919L40.4341 87.3928L46.9495 91.9876L50.7815 100.442L61.5701 102.372L51.2594 87.5582L50.9562 81.0428L54.632 89.5431L58.8132 93.8806L63.8491 90.2967L60.8625 96.0034L65.1632 100.46L70.5851 98.4295L68.5174 88.7161L75.1431 86.3819L71.2467 78.8465L79.2416 76.7972L74.6469 80.9049L79.7838 89.2491L73.5165 90.5632L76.4939 99.2473C85.2736 94.7868 92.604 87.9217 97.63 79.453C103.666 69.2799 106.101 57.3704 104.541 45.6446L100.754 47.4825L98.6776 51.7465ZM60.5776 66.3395L63.068 62.2777L59.7965 60.3203C58.4824 61.5411 56.8804 62.409 55.14 62.8429C53.3996 63.2768 51.5776 63.2625 49.8442 62.8015L47.8868 66.073L52.0773 68.5634L31.2445 88.2198L38.5962 60.596L42.7866 63.0864L44.7532 59.8149C43.5301 58.4984 42.6609 56.8932 42.227 55.1495C41.793 53.4057 41.8085 51.5804 42.272 49.8442L38.9821 47.8776L36.4918 52.0681L16.7342 31.2445L44.4775 38.5962L41.9963 42.7866L45.2678 44.744C46.5814 43.5256 48.1823 42.6598 49.921 42.2275C51.6598 41.7953 53.4797 41.8106 55.2109 42.272L57.1775 39.0005L52.987 36.5102L73.8014 16.725L66.3395 44.4775L62.2869 41.9871L60.3203 45.2586C61.542 46.5723 62.4111 48.1739 62.8465 49.9142C63.282 51.6545 63.2697 53.4767 62.8107 55.2109L66.0822 57.1775L68.5634 52.987L88.2198 73.8014L60.5776 66.3395Z" fill="white"/>
<path d="M56.0012 46.5727C55.2286 46.1048 54.371 45.7944 53.4778 45.6594C52.5847 45.5243 51.6737 45.5674 50.7972 45.7861C49.9208 46.0048 49.0963 46.3947 48.3713 46.9335C47.6462 47.4723 47.035 48.1492 46.5727 48.9252C45.6356 50.5094 45.3662 52.401 45.8238 54.1838C46.2813 55.9667 47.4284 57.4947 49.0126 58.4318C50.5968 59.369 52.4883 59.6384 54.2712 59.1808C56.054 58.7233 57.5821 57.5762 58.5192 55.992C58.9738 55.2086 59.2694 54.3431 59.3889 53.4452C59.5084 52.5474 59.4495 51.6347 59.2156 50.7597C58.9816 49.8846 58.5773 49.0643 58.0257 48.3458C57.4741 47.6273 56.7862 47.0248 56.0012 46.5727Z" fill="white"/>
</g>
<g clip-path="url(#clip1_195_1412)">
<path d="M135.492 68.7297L138.47 68.3161L141.872 65.4844C136.111 66.6895 131.055 70.113 127.797 75.0153L135.185 74.9444L135.492 68.7297Z" fill="white"/>
<path d="M166.29 87.177L166.377 85.2748L167.779 84.1209L163.982 83.3332L159.568 84.2075L156.598 82.9669L159.721 83.5104L164.132 82.2344L167.948 82.7857L168.386 82.2698C168.315 81.9666 168.236 81.6672 168.153 81.3679L166.535 80.3243L167.988 80.8481C167.842 80.3715 167.673 79.9028 167.496 79.4342L166.999 79.4854L167.48 79.3909C165.605 74.5395 162.107 70.4877 157.581 67.925C153.055 65.3622 147.781 64.4469 142.656 65.3348L140.147 68.0286L152.644 66.3587L137.158 69.6512L138.155 76.7836L126.194 77.8313C124.504 81.3689 123.769 85.2869 124.062 89.1964C124.354 93.1059 125.664 96.871 127.861 100.118C130.058 103.365 133.066 105.981 136.587 107.706C140.107 109.431 144.017 110.206 147.93 109.953L145.07 108.677L144.373 107.472L141.833 106.03L144.251 106.534L143.593 104.597L141.329 102.454L144.121 104.423L145.763 108.047L150.387 108.874L145.968 102.525L145.838 99.7326L147.414 103.376L149.206 105.235L151.364 103.699L150.084 106.144L151.927 108.054L154.251 107.184L153.365 103.021L156.204 102.021L154.534 98.7913L157.961 97.9131L155.991 99.6735L158.193 103.25L155.507 103.813L156.783 107.535C160.546 105.623 163.687 102.681 165.841 99.0513C168.428 94.6914 169.472 89.5873 168.803 84.562L167.18 85.3496L166.29 87.177ZM149.962 93.4312L151.029 91.6904L149.627 90.8516C149.064 91.3748 148.377 91.7467 147.631 91.9327C146.886 92.1186 146.105 92.1125 145.362 91.9149L144.523 93.317L146.319 94.3843L137.39 102.808L140.541 90.9697L142.337 92.037L143.18 90.6349C142.656 90.0708 142.283 89.3828 142.097 88.6355C141.911 87.8882 141.918 87.1059 142.117 86.3618L140.707 85.519L139.639 87.3149L131.172 78.3905L143.062 81.5412L141.998 83.3371L143.4 84.176C143.963 83.6538 144.65 83.2828 145.395 83.0975C146.14 82.9122 146.92 82.9188 147.662 83.1166L148.505 81.7145L146.709 80.6472L155.629 72.1679L152.431 84.0618L150.694 82.9945L149.852 84.3965C150.375 84.9595 150.748 85.646 150.934 86.3918C151.121 87.1376 151.116 87.9186 150.919 88.6618L152.321 89.5046L153.384 87.7087L161.808 96.6292L149.962 93.4312Z" fill="white"/>
<path d="M148.001 84.9597C147.669 84.7592 147.302 84.6262 146.919 84.5683C146.536 84.5104 146.146 84.5289 145.77 84.6226C145.395 84.7163 145.041 84.8835 144.731 85.1144C144.42 85.3453 144.158 85.6354 143.96 85.968C143.558 86.6469 143.443 87.4576 143.639 88.2216C143.835 88.9857 144.326 89.6406 145.005 90.0422C145.684 90.4438 146.495 90.5593 147.259 90.3632C148.023 90.1671 148.678 89.6755 149.08 88.9966C149.274 88.6608 149.401 88.2899 149.452 87.9051C149.504 87.5203 149.478 87.1292 149.378 86.7541C149.278 86.3791 149.105 86.0276 148.868 85.7196C148.632 85.4117 148.337 85.1535 148.001 84.9597Z" fill="white"/>
</g>
<g clip-path="url(#clip2_195_1412)">
<g opacity="0.25">
<path d="M84.4085 277C111.622 277 133.683 275.803 133.683 274.327C133.683 272.851 111.622 271.654 84.4085 271.654C57.195 271.654 35.1342 272.851 35.1342 274.327C35.1342 275.803 57.195 277 84.4085 277Z" fill="#121216"/>
</g>
<path d="M97.6418 259.382C97.6418 259.382 96.2531 263.346 89.9312 263.5C83.6094 263.654 81.409 259.111 81.409 259.111L97.6418 259.382Z" fill="#777880"/>
<path d="M93.1411 265.015V266.683C93.1411 266.683 101.957 268.069 106.789 269.455C111.62 270.841 112.238 272.07 112.238 273.151H67.3117C67.3117 273.151 68.4056 270.45 72.9663 269.083C77.5271 267.717 85.7138 266.838 85.7138 266.838V265.127L93.1411 265.015Z" fill="#777880"/>
<g opacity="0.25">
<path d="M69.9339 273.151C69.9339 273.151 72.9237 271.504 75.5148 271.046C78.106 270.588 94.8634 270.636 96.3025 268.528C96.3025 268.528 107.221 270.992 108.495 271.403C109.77 271.813 110.386 273.146 110.386 273.146L69.9339 273.151Z" fill="#121216"/>
</g>
<g opacity="0.25">
<path d="M83.1042 259.029C83.1042 259.029 86.0222 262.115 89.7741 262.322C93.5261 262.529 96.2531 259.421 96.2531 259.421L83.1042 259.029Z" fill="#121216"/>
</g>
<path d="M87.0152 264.681V263.504L87.7318 263.208C88.3993 263.482 89.1182 263.608 89.8391 263.578C90.4774 263.561 91.1124 263.481 91.735 263.34L91.8126 263.693V264.681L91.252 264.951H87.3313L87.0152 264.681Z" fill="#777880"/>
<path d="M89.6122 264.198C83.1759 264.198 80.8844 259.612 80.7874 259.414C80.7353 259.307 80.7115 259.188 80.7185 259.069C80.7255 258.951 80.7629 258.836 80.8272 258.736C80.8925 258.638 80.9812 258.557 81.0852 258.501C81.1893 258.445 81.3055 258.416 81.4236 258.416L97.6563 258.686C97.766 258.688 97.8736 258.716 97.9704 258.768C98.0671 258.819 98.1503 258.893 98.213 258.983C98.2757 259.073 98.3163 259.176 98.3313 259.285C98.3463 259.393 98.3353 259.504 98.2993 259.607C98.2362 259.788 96.6759 264.026 89.9506 264.19C89.8352 264.196 89.7227 264.198 89.6122 264.198ZM82.7269 259.826C83.7355 261.044 85.9339 262.908 89.9157 262.808C93.8209 262.711 95.6664 261.109 96.4616 260.056L82.7269 259.826Z" fill="#121216"/>
<path d="M112.238 273.844H67.3117C67.1981 273.844 67.0863 273.816 66.9861 273.762C66.8858 273.709 66.8002 273.632 66.7368 273.538C66.6733 273.444 66.6339 273.336 66.6221 273.223C66.6102 273.11 66.6262 272.996 66.6687 272.891C66.7182 272.768 67.943 269.866 72.7666 268.419C76.6572 267.257 83.0101 266.452 85.0204 266.218V265.126C85.0201 264.945 85.0911 264.771 85.218 264.641C85.345 264.512 85.5178 264.437 85.6992 264.434L93.1276 264.323C93.312 264.32 93.4901 264.39 93.6241 264.516C93.6898 264.581 93.742 264.657 93.7776 264.742C93.8132 264.827 93.8316 264.918 93.8316 265.01V266.088C95.8952 266.424 102.823 267.593 106.977 268.784C111.203 269.996 112.927 271.26 112.927 273.142C112.928 273.233 112.911 273.324 112.877 273.409C112.843 273.494 112.793 273.571 112.729 273.636C112.664 273.701 112.588 273.753 112.504 273.789C112.42 273.825 112.329 273.843 112.238 273.844ZM68.5985 272.458H111.355C110.984 271.877 109.879 271.062 106.597 270.12C101.862 268.765 93.1179 267.381 93.0335 267.367C92.8709 267.341 92.723 267.257 92.6164 267.132C92.5097 267.006 92.4513 266.847 92.4516 266.683V265.714L86.411 265.804V266.833C86.4113 267.004 86.3481 267.169 86.2337 267.296C86.1193 267.423 85.9617 267.504 85.7914 267.522C85.7109 267.531 77.6153 268.409 73.169 269.743C70.6622 270.497 69.2939 271.645 68.5976 272.458H68.5985Z" fill="#121216"/>
<path d="M88.6948 273.704C88.5477 273.704 88.4066 273.646 88.3026 273.542C88.1985 273.438 88.1401 273.297 88.1401 273.151V270.158C88.1461 270.015 88.2072 269.88 88.3107 269.781C88.4141 269.682 88.5519 269.626 88.6953 269.626C88.8386 269.626 88.9765 269.682 89.0799 269.781C89.1834 269.88 89.2445 270.015 89.2505 270.158V273.151C89.2502 273.298 89.1916 273.438 89.0874 273.542C88.9832 273.646 88.842 273.704 88.6948 273.704Z" fill="#121216"/>
<path d="M85.7138 267.546C85.5667 267.548 85.425 267.491 85.3198 267.388C85.2147 267.285 85.1548 267.145 85.1533 266.998C85.1517 266.851 85.2087 266.71 85.3116 266.605C85.4145 266.5 85.555 266.44 85.7021 266.438L93.1295 266.285H93.1421C93.2855 266.289 93.4216 266.349 93.522 266.451C93.6223 266.553 93.6791 266.691 93.6805 266.834C93.6819 266.977 93.6277 267.115 93.5294 267.22C93.431 267.324 93.2961 267.386 93.1528 267.393L85.7254 267.547L85.7138 267.546Z" fill="#121216"/>
<path d="M91.8126 265.589C91.6654 265.589 91.5243 265.53 91.4203 265.426C91.3163 265.322 91.2579 265.181 91.2579 265.034V263.327C91.2579 263.18 91.3163 263.039 91.4203 262.935C91.5244 262.831 91.6655 262.773 91.8126 262.773C91.9597 262.773 92.1008 262.831 92.2048 262.935C92.3088 263.039 92.3673 263.18 92.3673 263.327V265.034C92.3673 265.181 92.3089 265.322 92.2049 265.426C92.1009 265.53 91.9598 265.589 91.8126 265.589Z" fill="#121216"/>
<path d="M87.0152 265.661C86.8681 265.661 86.727 265.603 86.6229 265.499C86.5189 265.395 86.4605 265.254 86.4605 265.107V263.208C86.4665 263.065 86.5276 262.93 86.631 262.831C86.7345 262.731 86.8723 262.676 87.0157 262.676C87.159 262.676 87.2968 262.731 87.4003 262.831C87.5037 262.93 87.5649 263.065 87.5708 263.208V265.107C87.5706 265.254 87.5119 265.395 87.4078 265.499C87.3036 265.603 87.1624 265.661 87.0152 265.661Z" fill="#121216"/>
<path d="M127.072 246.921C127.072 246.921 132.455 186.217 130.81 184.128C129.166 182.039 94.2612 181.765 89.1651 182.587C84.0691 183.408 84.2863 241.259 84.2863 241.259C84.2863 241.259 56.6356 243.009 53.9329 245.141C51.2302 247.274 49.9472 254.481 56.3806 256.15C63.4511 257.99 81.539 259.294 81.539 259.294C81.539 259.294 116.083 259.513 118.786 259.377C121.49 259.24 121.702 251.967 121.702 251.967C121.702 251.967 127.102 252.259 127.072 246.921Z" fill="#5E7DBE"/>
<g opacity="0.25">
<path d="M53.3074 254.481C53.3074 254.481 52.68 249.385 54.9415 248.089C57.2029 246.793 84.7547 250.772 84.7547 250.772C84.7547 250.772 82.9752 251.241 80.9862 252.611C78.9972 253.982 78.3388 257.537 78.3388 257.537L78.4658 258.375C78.4658 258.375 78.9071 258.86 79.3657 259.017C79.6601 259.111 79.9638 259.174 80.2715 259.204C80.2715 259.204 80.7486 254.535 83.334 253.606C85.9194 252.677 121.542 253.871 121.542 253.871C121.542 253.871 121.663 257.793 119.416 259.204C119.416 259.204 119.361 259.407 116.859 259.418C114.357 259.428 80.9125 259.301 80.9125 259.301L76.3207 258.914L60.6204 257.013C60.6204 257.013 54.9977 256.566 53.3074 254.481Z" fill="#121216"/>
</g>
<g opacity="0.25">
<path d="M121.702 251.967C121.702 251.967 124.366 232.211 125.156 216.91C125.945 201.609 126.222 192.259 127.386 189.679C128.55 187.099 130.813 186.902 130.813 186.902C130.813 186.902 130.557 203.699 129.434 218.003C128.311 232.308 127.278 247.697 126.622 249.296C125.965 250.894 124.376 252.083 121.702 251.967Z" fill="#121216"/>
</g>
<g opacity="0.25">
<path d="M86.8319 241.606L86.6205 235.292C86.6205 235.292 91.6079 237.841 102.574 236.426C113.54 235.012 123.715 194.771 123.715 194.771L121.096 236.426C121.096 236.426 120.109 247.105 119.773 248.403C119.436 249.7 118.997 250.421 118.997 250.421C118.997 250.421 106.726 244.432 86.8319 241.606Z" fill="#121216"/>
</g>
<path d="M112.298 260.253C101.81 260.253 82.5999 260.132 81.5332 260.125H81.4789C80.737 260.071 63.2339 258.789 56.1682 256.957C53.3908 256.236 51.5677 254.439 51.0353 251.911C50.4738 249.243 51.5202 245.984 53.4122 244.49C56.0499 242.411 77.4088 240.877 83.4494 240.482C83.4494 237.272 83.4795 224.704 83.9799 212.204C84.3193 203.724 84.8051 196.928 85.4238 192.003C86.5119 183.348 87.7997 181.971 89.0294 181.773C91.5915 181.36 101.581 181.211 111.299 181.441C130.097 181.887 131.089 183.146 131.462 183.621C131.891 184.166 132.69 185.18 130.385 216.375C129.285 231.269 127.977 246.106 127.901 246.963C127.901 248.746 127.359 250.169 126.283 251.193C125.061 252.355 123.458 252.686 122.494 252.776C122.346 254.987 121.696 260.068 118.825 260.214C118.17 260.241 115.689 260.253 112.298 260.253ZM81.5719 258.463C82.724 258.47 116.127 258.68 118.744 258.547C120.004 258.483 120.789 254.673 120.87 251.942C120.874 251.831 120.899 251.722 120.945 251.621C120.991 251.52 121.057 251.43 121.139 251.355C121.221 251.279 121.317 251.221 121.421 251.184C121.526 251.147 121.637 251.13 121.748 251.137C121.765 251.137 123.844 251.221 125.142 249.974C125.875 249.271 126.244 248.246 126.236 246.924C126.235 246.898 126.235 246.872 126.236 246.847C128.233 224.326 131.026 187.842 130.125 184.645C129.274 184.188 124.371 183.386 110.786 183.085C101.346 182.873 91.703 183.017 89.2912 183.406C89.1826 183.457 88.0305 184.201 86.9977 192.807C86.4072 197.736 85.9436 204.458 85.6187 212.786C85.065 226.989 85.1116 241.114 85.1116 241.258C85.1125 241.469 85.0329 241.673 84.8887 241.828C84.7446 241.982 84.5469 242.076 84.3358 242.091C73.745 242.761 56.2652 244.36 54.443 245.796C53.2085 246.764 52.1777 249.253 52.6645 251.569C52.9447 252.902 53.8524 254.638 56.5871 255.346C63.3783 257.108 80.7729 258.404 81.5719 258.463Z" fill="#121216"/>
<path d="M78.3659 259.941C78.1628 259.941 77.9668 259.867 77.8148 259.732C77.6628 259.598 77.5653 259.413 77.5407 259.211C77.2817 257.057 78.0052 252.519 82.5999 250.765C85.3918 249.699 108.916 250.583 118.268 250.982C105.77 244.71 84.424 242.112 84.1883 242.085C83.9815 242.046 83.7973 241.93 83.6728 241.76C83.5482 241.591 83.4927 241.38 83.5173 241.171C83.5419 240.963 83.6448 240.771 83.8053 240.635C83.9658 240.499 84.172 240.429 84.3823 240.439C85.4287 240.563 110.141 243.573 122.15 251.272C122.304 251.371 122.421 251.518 122.482 251.689C122.544 251.861 122.548 252.048 122.493 252.222C122.438 252.396 122.327 252.547 122.177 252.652C122.028 252.757 121.848 252.81 121.666 252.802C107.434 252.138 85.4451 251.463 83.1963 252.318C78.6811 254.043 79.1728 258.814 79.196 259.016C79.2106 259.132 79.1999 259.251 79.1648 259.363C79.1297 259.475 79.071 259.579 78.9926 259.667C78.9141 259.754 78.8178 259.824 78.7101 259.872C78.6023 259.92 78.4857 259.944 78.3679 259.942L78.3659 259.941Z" fill="#121216"/>
<path d="M119.501 251.017C119.454 251.017 119.406 251.013 119.359 251.005C119.142 250.967 118.949 250.845 118.821 250.665C118.694 250.485 118.643 250.262 118.681 250.045C118.694 249.969 120.002 242.243 120.872 228.173C121.377 220.02 122.052 208.685 122.546 200.409C122.934 193.921 123.213 189.236 123.27 188.411C123.441 185.92 127.795 183.336 130.801 183.296H130.811C131.027 183.302 131.233 183.392 131.384 183.546C131.535 183.7 131.62 183.907 131.622 184.123C131.623 184.338 131.54 184.546 131.391 184.702C131.242 184.858 131.038 184.951 130.822 184.959C128.328 184.991 125.022 187.198 124.931 188.525C124.874 189.341 124.581 194.269 124.208 200.508C123.715 208.785 123.039 220.12 122.534 228.274C121.662 242.447 120.335 250.25 120.321 250.326C120.288 250.519 120.188 250.695 120.038 250.821C119.888 250.948 119.697 251.017 119.501 251.017Z" fill="#121216"/>
<path d="M121.702 186.909C121.702 186.909 138.212 196.277 139.583 204.354C140.953 212.43 135.211 221.463 121.702 215.715C121.702 215.715 122.038 229.129 117.103 239.396C112.168 249.662 96.7137 252.159 75.7418 249.901C54.7698 247.643 37.6022 232.343 51.4804 211.194C51.4804 211.194 47.2775 204.46 49.4817 197.099C49.4817 197.099 63.004 199.466 85.5644 196.964C108.125 194.461 119.236 188.328 121.702 186.909Z" fill="#3F414A"/>
<g opacity="0.4">
<path d="M52.2514 210.219C52.2514 210.219 49.5613 203.221 50.7608 197.472L49.4323 197.27C49.4323 197.27 48.3394 199.787 49.0531 204.242C49.7668 208.697 51.0896 210.579 51.0896 210.579L51.6559 210.699L52.2514 210.219Z" fill="white"/>
</g>
<g opacity="0.4">
<path d="M139.412 207.225C139.412 207.225 138.28 202.537 134.511 199.047C130.742 195.556 123.922 190.32 119.913 187.822L121.702 186.906C121.702 186.906 131.94 193.27 136.642 198.733C140.919 203.701 139.412 207.225 139.412 207.225Z" fill="white"/>
</g>
<path d="M120.101 230.523C120.101 230.523 74.3773 233.033 47.9709 218.007C47.9709 218.007 46.6656 221.661 46.5676 223.923C46.5676 223.923 79.0748 240.665 118.444 236.196C118.444 236.201 119.653 232.67 120.101 230.523Z" fill="#EE343B"/>
<path d="M73.3048 209.318C73.3048 209.318 78.3543 204.01 80.4315 202.211C82.5087 200.413 86.3674 197.466 86.3674 197.466V196.872C86.3674 196.872 79.8642 197.804 73.3048 197.954C66.7453 198.104 64.4344 198.105 64.4344 198.105L63.4996 198.417C63.4996 198.417 66.2876 202.783 68.1146 204.977C69.9417 207.172 72.2439 209.728 72.2439 209.728L72.9644 209.694L73.3048 209.318Z" fill="#EDBC9A"/>
<g opacity="0.25">
<path d="M47.9049 233.107C47.9049 233.107 57.4366 242.814 74.933 244.32C92.4293 245.826 100.31 236.843 100.31 236.843C100.31 236.843 90.6023 236.869 75.7195 233.716C60.8366 230.563 47.9049 224.571 47.9049 224.571C47.9049 224.571 48.6293 219.807 49.3867 218.786L51.8518 220.028C51.8518 220.028 56.0606 226.285 75.7195 230.802C95.3784 235.319 109.054 230.652 109.054 230.652L117.889 230.607C117.889 230.607 115.242 248.85 94.7723 250.452C74.3026 252.054 55.021 247.725 47.9049 233.107Z" fill="#121216"/>
</g>
<g opacity="0.25">
<path d="M55.4263 208.117C55.4263 208.117 59.4644 222.413 82.9015 226.893C82.9015 226.893 74.6702 220.965 71.5951 217.506C71.5951 217.506 80.0135 223.054 83.9711 225.156C87.9287 227.258 95.3725 228.791 95.3725 228.791L91.6516 226.274C91.6516 226.274 101.208 226.661 109.021 223.374C116.834 220.087 112.31 208.454 113.544 208.112C114.777 207.77 126.965 214.52 133.009 212.766C139.052 211.012 139.366 203.421 139.366 203.421C139.366 203.421 141.479 212.02 136.079 215.332C130.679 218.644 126.529 217.502 124.118 216.603C122.753 216.102 121.414 215.532 120.106 214.897C120.106 214.897 119.362 225.755 117.893 230.6C117.893 230.6 98.3196 231.097 80.4364 228.261C62.5531 225.424 53.3685 220.721 53.3685 220.721L49.3925 218.784C49.3925 218.784 52.8836 210.669 53.6449 209.728C54.1632 209.113 54.7625 208.571 55.4263 208.117Z" fill="#121216"/>
</g>
<g opacity="0.25">
<path d="M52.2514 210.219C52.2514 210.219 54.2733 204.788 56.2438 203.667C56.2438 203.667 55.8492 205.468 55.5534 206.548C55.2576 207.628 55.31 208.194 55.31 208.194L52.2514 210.219Z" fill="#121216"/>
</g>
<path d="M88.8044 251.492C84.7961 251.492 80.4121 251.236 75.6525 250.724C62.4231 249.3 51.6394 242.996 47.5112 234.275C44.2305 227.348 45.2681 219.367 50.5048 211.169C49.5758 209.474 46.7092 203.459 48.6846 196.861C48.7429 196.666 48.8708 196.499 49.0442 196.392C49.2177 196.285 49.4244 196.245 49.6253 196.28C49.7601 196.304 63.3134 198.595 85.4723 196.137C106.191 193.839 117.421 188.413 121.286 186.186C121.412 186.114 121.555 186.077 121.7 186.077C121.845 186.077 121.988 186.114 122.114 186.186C122.802 186.574 138.987 195.846 140.404 204.214C141.215 208.992 139.69 213.557 136.428 216.126C134.016 218.026 129.682 219.64 122.54 216.942C122.497 220.547 121.995 231.14 117.856 239.751C115.379 244.906 110.254 248.405 102.625 250.151C98.7201 251.046 94.0983 251.492 88.8044 251.492ZM50.0927 198.032C48.4683 204.683 52.1505 210.693 52.1883 210.755C52.2723 210.889 52.3161 211.045 52.3144 211.204C52.3126 211.363 52.2655 211.518 52.1786 211.651C47.0389 219.489 45.9412 227.067 49.0182 233.565C52.8972 241.766 63.1766 247.704 75.8329 249.071C98.3536 251.492 111.987 248.119 116.355 239.032C121.143 229.072 120.875 215.864 120.872 215.732C120.868 215.593 120.9 215.454 120.964 215.33C121.028 215.205 121.122 215.099 121.238 215.02C121.354 214.942 121.488 214.894 121.628 214.882C121.767 214.869 121.908 214.891 122.036 214.947C129.122 217.963 133.215 216.543 135.401 214.821C138.187 212.626 139.474 208.667 138.769 204.489C137.596 197.577 124.223 189.356 121.701 187.865C117.388 190.273 105.991 195.534 85.6614 197.79C66.1906 199.948 53.2531 198.474 50.0927 198.032Z" fill="#121216"/>
<path d="M121.327 216.454C120.34 215.99 119.381 215.47 118.455 214.896C117.508 214.259 116.488 213.863 115.836 212.831C115.829 212.819 115.825 212.806 115.825 212.792C115.824 212.778 115.827 212.764 115.834 212.752C115.84 212.739 115.849 212.729 115.861 212.721C115.872 212.713 115.886 212.708 115.899 212.707C116.538 212.648 117.076 212.792 117.587 212.989C118.611 213.376 119.623 213.776 120.616 214.237C121.112 214.464 121.601 214.704 122.071 214.97C122.258 215.075 122.398 215.248 122.46 215.453C122.523 215.658 122.504 215.88 122.407 216.071C122.31 216.263 122.143 216.409 121.941 216.481C121.738 216.552 121.516 216.542 121.32 216.454H121.327Z" fill="#121216"/>
<path d="M104.975 237.776C89.9923 237.776 76.7823 235.111 67.5192 232.536C54.539 228.929 46.268 224.705 46.1846 224.662C46.0434 224.589 45.926 224.478 45.8463 224.34C45.7665 224.203 45.7278 224.046 45.7346 223.887C45.8364 221.527 47.1311 217.883 47.1892 217.727C47.2301 217.613 47.2955 217.509 47.381 217.423C47.4664 217.336 47.5697 217.27 47.6837 217.228C47.7977 217.185 47.9195 217.169 48.0407 217.178C48.1618 217.188 48.2794 217.225 48.385 217.285C74.2716 232.014 119.602 229.716 120.058 229.692C120.185 229.685 120.312 229.708 120.43 229.758C120.547 229.808 120.651 229.884 120.734 229.981C120.817 230.077 120.877 230.192 120.909 230.315C120.941 230.439 120.944 230.568 120.918 230.692C120.465 232.866 119.284 236.319 119.233 236.465C119.183 236.614 119.09 236.745 118.968 236.844C118.845 236.943 118.697 237.004 118.54 237.022C114.036 237.529 109.507 237.781 104.975 237.776ZM47.4414 223.428C49.3877 224.372 56.9663 227.883 68.0099 230.947C79.7304 234.201 97.8474 237.601 117.823 235.429C118.099 234.598 118.655 232.875 119.038 231.4C115.807 231.518 105.876 231.747 93.8685 230.728C80.6313 229.604 62.1371 226.693 48.4441 219.223C48.1076 220.282 47.5994 222.041 47.4414 223.428Z" fill="#121216"/>
<path d="M97.5574 230.868C97.4322 230.868 97.3091 230.835 97.2015 230.771C96.9649 230.63 73.3688 216.4 62.7082 198.45C62.6217 198.292 62.5999 198.107 62.6474 197.934C62.695 197.76 62.8081 197.612 62.963 197.521C63.1179 197.429 63.3024 197.401 63.4776 197.442C63.6528 197.484 63.805 197.592 63.902 197.743C74.3812 215.388 97.6806 229.442 97.9143 229.583C98.0447 229.66 98.146 229.779 98.2026 229.92C98.2591 230.06 98.2677 230.216 98.2272 230.362C98.1867 230.508 98.0992 230.637 97.9782 230.729C97.8571 230.821 97.7093 230.87 97.5574 230.87V230.868Z" fill="#121216"/>
<path d="M86.8309 229.861C86.719 229.861 86.6087 229.834 86.5099 229.781C66.6619 219.419 57.8139 198.432 57.7266 198.221C57.6633 198.052 57.6681 197.866 57.74 197.701C57.8119 197.536 57.9452 197.405 58.1118 197.336C58.2785 197.268 58.4653 197.266 58.6328 197.333C58.8003 197.399 58.9354 197.528 59.0096 197.692C59.0949 197.898 67.7626 218.433 87.1529 228.553C87.2903 228.625 87.3996 228.741 87.4633 228.882C87.5271 229.024 87.5416 229.182 87.5045 229.333C87.4674 229.483 87.381 229.617 87.2589 229.713C87.1368 229.808 86.9861 229.86 86.8309 229.861Z" fill="#121216"/>
<path d="M76.7532 214.933H76.7426C76.5594 214.929 76.3853 214.853 76.2582 214.722C76.131 214.59 76.0611 214.413 76.0637 214.23C76.0841 212.927 81.5496 207.525 82.6445 206.456C85.3598 203.806 90.8254 198.744 96.9571 194.601C97.0325 194.548 97.1177 194.511 97.2077 194.491C97.2977 194.471 97.3907 194.47 97.4813 194.487C97.5719 194.503 97.6582 194.538 97.7353 194.588C97.8124 194.639 97.8786 194.704 97.9301 194.78C97.9817 194.856 98.0175 194.942 98.0355 195.032C98.0535 195.122 98.0533 195.215 98.0349 195.305C98.0166 195.396 97.9804 195.481 97.9286 195.557C97.8767 195.633 97.8102 195.698 97.7329 195.748C87.5815 202.604 77.9771 212.959 77.4398 214.333C77.4173 214.499 77.3354 214.651 77.2092 214.762C77.083 214.872 76.921 214.933 76.7532 214.933Z" fill="#121216"/>
<path d="M72.5998 210.8C72.4668 210.8 72.3367 210.762 72.2248 210.691C72.1129 210.619 72.024 210.517 71.9688 210.396C71.9135 210.275 71.8941 210.141 71.913 210.01C71.9318 209.878 71.9881 209.755 72.0751 209.655C72.3874 209.295 79.7934 200.799 87.0918 196.156C87.247 196.057 87.4351 196.024 87.6147 196.064C87.7943 196.104 87.9507 196.214 88.0494 196.369C88.1482 196.524 88.1812 196.711 88.1413 196.891C88.1014 197.07 87.9918 197.226 87.8366 197.325C80.7118 201.857 73.1991 210.475 73.1244 210.562C73.0592 210.637 72.9785 210.697 72.888 210.738C72.7975 210.779 72.6992 210.8 72.5998 210.8Z" fill="#121216"/>
<path d="M50.915 210.584C52.1893 209.387 53.4946 208.334 55.053 207.485L54.6913 208.086C54.7349 207.657 54.7882 207.256 54.8571 206.844C55.0986 205.625 55.2731 204.216 56.3224 203.387C56.3345 203.379 56.3489 203.374 56.3638 203.374C56.3786 203.373 56.3932 203.377 56.4057 203.385C56.4182 203.393 56.428 203.405 56.4339 203.418C56.4398 203.432 56.4415 203.447 56.4388 203.462C56.3292 204.656 56.2274 205.786 56.1692 206.98C56.1614 207.367 56.1449 207.769 56.1507 208.142C56.1523 208.249 56.1274 208.355 56.0784 208.45C56.0293 208.545 55.9576 208.627 55.8695 208.688C55.1871 209.161 54.53 209.668 53.9009 210.21C53.8941 210.21 52.0429 211.808 52.037 211.81C51.2127 212.488 50.1664 211.342 50.915 210.582V210.584Z" fill="#121216"/>
<path d="M46.4018 254.047C46.4018 254.047 40.302 259.317 40.5765 261.849C40.8509 264.382 41.9467 265.34 41.9467 265.34L70.4576 261.097C70.4576 261.097 70.7058 256.784 68.0797 252.884C54.9415 251.515 46.4018 254.047 46.4018 254.047Z" fill="#EDBC9A"/>
<path d="M81.8173 237.211C77.6338 234.473 67.237 232.908 67.237 232.908C67.237 232.908 53.6003 230.808 48.1154 236.685C41.9467 243.297 46.4018 254.042 46.4018 254.042C46.4018 254.042 54.9424 251.51 68.0797 252.88C68.0797 252.88 72.0858 250.484 77.7909 249.8L81.8173 237.211Z" fill="#3F414A"/>
<g opacity="0.4">
<path d="M53.7438 235.303C59.0775 233.327 67.8693 233.012 67.8693 233.012C67.8693 233.012 56.8325 231.161 50.4864 234.852C44.1403 238.542 45.08 248.94 45.08 248.94C45.1533 247.445 45.401 245.964 45.818 244.526C46.5455 241.953 47.9187 239.608 49.8076 237.712C50.8792 236.645 51.7413 236.215 53.7438 235.303Z" fill="white"/>
</g>
<g opacity="0.4">
<path d="M41.0817 262.026L48.5605 253.765H47.7895C47.7895 253.765 45.8878 254.483 45.785 254.51C45.6822 254.536 41.649 258.728 41.1409 259.95C40.6327 261.172 41.0817 262.026 41.0817 262.026Z" fill="white"/>
</g>
<g opacity="0.25">
<path d="M79.0932 235.825C78.9614 235.786 78.8275 235.749 78.6927 235.712C79.4019 235.973 80.096 236.273 80.7719 236.611C80.2637 236.252 79.6952 235.985 79.0932 235.825Z" fill="#121216"/>
</g>
<g opacity="0.25">
<path d="M52.007 252.991C55.4855 252.644 59.9503 252.522 61.5193 252.489C58.3406 252.43 55.1618 252.598 52.007 252.991Z" fill="#121216"/>
</g>
<g opacity="0.25">
<path d="M65.1452 252.638C65.345 253.631 66.3545 258.948 65.1123 259.352C63.741 259.796 57.8643 260.617 57.8643 260.617C56.6822 261.918 53.8369 261.029 53.8369 261.029C52.1573 262.638 49.9472 261.847 49.9472 261.847C48.7457 263.335 46.4018 262.026 46.4018 262.026C46.4018 262.026 45.5455 263.355 43.8319 263.321C42.1184 263.287 40.9876 262.705 40.9876 262.705C40.816 263.867 41.7586 265.58 41.7586 265.58L70.4576 261.097C70.4062 256.315 68.3503 253.585 68.3241 253.262C68.2979 252.94 68.8323 252.481 68.8352 252.478C68.3503 252.725 68.0788 252.884 68.0788 252.884C67.0731 252.779 66.0937 252.7 65.1452 252.638Z" fill="#121216"/>
</g>
<g opacity="0.25">
<path d="M80.7719 236.611C80.096 236.273 79.4019 235.973 78.6927 235.712C74.8719 234.646 70.4644 233.977 70.4644 233.977C70.4644 233.977 70.0464 238.391 65.986 242.596C61.9257 246.801 47.0283 247.832 47.0283 247.832C47.038 249.783 47.7895 253.581 47.7895 253.581L48.2957 253.594C49.1103 253.34 50.4612 253.141 52.007 252.987C55.1618 252.594 58.3406 252.426 61.5193 252.485L62.0963 252.474H65.1123L65.1452 252.634C66.0966 252.696 67.0731 252.775 68.0797 252.88C68.0797 252.88 68.3464 252.721 68.8361 252.474C72.0208 250.52 77.2934 249.68 77.2934 249.68C77.2934 249.68 77.6105 249.486 77.9625 249.262L81.6767 237.641C81.4585 237.233 81.1489 236.88 80.7719 236.611Z" fill="#121216"/>
</g>
<path d="M77.8772 250.516C74.6256 250.974 71.3565 251.977 68.488 253.564L68.7401 252.441C70.0318 254.353 70.8173 256.553 71.1412 258.822C71.2562 259.591 71.3052 260.369 71.2877 261.146C71.2812 261.338 71.2064 261.521 71.0769 261.663C70.9474 261.805 70.7715 261.897 70.5807 261.921L42.0699 266.195C41.9463 266.216 41.8197 266.208 41.6995 266.173C41.5793 266.138 41.4686 266.076 41.3755 265.992C40.3088 264.927 39.887 263.386 39.7105 261.944C39.5873 259.699 41.8953 257.376 43.2831 255.831C44.0986 254.979 44.9316 254.177 45.8238 253.388L45.5872 254.386C43.3752 248.48 42.9029 240.896 47.5713 236.007C52.4763 230.993 62.748 231.229 69.1969 232.424C71.4186 232.847 73.6335 233.319 75.8145 233.973C78.0023 234.657 80.2017 235.441 82.0471 236.87C82.1256 236.933 82.178 237.023 82.1943 237.123C82.2106 237.222 82.1897 237.324 82.1355 237.41C82.0814 237.495 81.9977 237.557 81.9006 237.584C81.8035 237.612 81.6996 237.603 81.6088 237.559C79.6489 236.608 77.5077 236.021 75.3956 235.454C69.0728 233.757 62.3397 232.652 55.8356 233.899C51.4222 234.71 47.8972 236.793 46.4474 241.172C45.113 245.192 45.7685 249.783 47.2174 253.713C47.2859 253.883 47.3 254.071 47.2576 254.249C47.2153 254.428 47.1185 254.589 46.9807 254.711C46.1526 255.438 45.3273 256.229 44.5563 257.035C43.4499 258.219 42.3172 259.456 41.6471 260.891C41.5133 261.217 41.4124 261.496 41.4531 261.808C41.5763 262.813 41.8323 263.835 42.4646 264.628L42.5092 264.678C42.5179 264.69 42.547 264.716 42.5237 264.695L41.8284 264.492L70.3441 260.279L69.6372 261.054C69.6827 258.353 68.9118 255.564 67.4154 253.307C67.3565 253.218 67.3166 253.118 67.298 253.013C67.2795 252.909 67.2828 252.801 67.3078 252.698C67.3327 252.594 67.3787 252.497 67.443 252.412C67.5072 252.327 67.5883 252.256 67.6812 252.204C68.46 251.77 69.2648 251.385 70.091 251.049C72.5275 250.043 75.0938 249.384 77.7143 249.092C78.6433 248.995 78.8401 250.378 77.8859 250.517L77.8772 250.516Z" fill="#121216"/>
<path d="M46.4018 254.74C46.2357 254.739 46.0755 254.678 45.9504 254.569C45.8253 254.46 45.7436 254.31 45.7201 254.146C45.6966 253.981 45.7329 253.814 45.8225 253.674C45.912 253.535 46.0487 253.432 46.2078 253.384C46.5628 253.279 55.0326 250.829 68.1563 252.196C68.3393 252.215 68.5072 252.306 68.6231 252.449C68.7389 252.592 68.7932 252.774 68.7741 252.957C68.7549 253.14 68.6638 253.308 68.5209 253.423C68.3779 253.539 68.1948 253.593 68.0118 253.574C55.1849 252.238 46.6869 254.688 46.6025 254.712C46.5374 254.731 46.4697 254.741 46.4018 254.74Z" fill="#121216"/>
<path d="M46.4406 264.951C45.631 263.601 45.3472 262 45.6434 260.455C45.717 259.936 45.965 259.458 46.3465 259.099C46.3552 259.091 46.3659 259.085 46.3775 259.083C46.389 259.08 46.401 259.081 46.4122 259.085C46.4234 259.088 46.4335 259.095 46.4414 259.104C46.4493 259.112 46.4547 259.123 46.4571 259.135C46.5987 259.669 46.587 260.103 46.6045 260.545C46.6344 261.412 46.8068 262.268 47.1146 263.08C47.2673 263.487 47.4434 263.884 47.6421 264.27C48.0232 265.056 46.9235 265.679 46.4406 264.956V264.951Z" fill="#121216"/>
<path d="M49.5913 264.272C49.2878 263.199 49.0211 260.514 50.2129 259.923C50.2224 259.919 50.2327 259.917 50.2429 259.918C50.2532 259.918 50.2633 259.921 50.2725 259.925C50.2817 259.93 50.2898 259.936 50.2962 259.944C50.3027 259.952 50.3074 259.961 50.3099 259.971C50.4014 260.313 50.4518 260.665 50.4602 261.018C50.5087 261.994 50.7725 262.997 50.9373 263.956C51.0721 264.814 49.8454 265.096 49.5884 264.272H49.5913Z" fill="#121216"/>
<path d="M53.3385 263.644C53.1552 262.594 52.9506 259.503 54.1705 259.075C54.1815 259.072 54.193 259.072 54.204 259.074C54.215 259.077 54.2253 259.082 54.234 259.089C54.2426 259.096 54.2494 259.106 54.2537 259.116C54.258 259.127 54.2597 259.138 54.2588 259.149C54.2801 259.369 54.2976 259.514 54.3286 259.715C54.3751 260.929 54.5933 262.248 54.7165 263.458C54.7708 264.329 53.5217 264.492 53.3423 263.644H53.3385Z" fill="#121216"/>
<path d="M57.3562 263.114C57.0507 262.023 57.1118 259.65 58.2745 259.087C58.2845 259.082 58.2955 259.08 58.3066 259.08C58.3177 259.08 58.3286 259.082 58.3387 259.087C58.3487 259.092 58.3575 259.099 58.3646 259.107C58.3716 259.116 58.3766 259.126 58.3793 259.137C58.6033 259.868 58.4132 260.353 58.4888 261.038C58.5199 261.572 58.6285 262.297 58.7099 262.828C58.8195 263.682 57.5986 263.935 57.3523 263.119L57.3562 263.114Z" fill="#121216"/>
<path d="M42.0437 269.811L70.2898 265.825C70.5576 265.787 70.8153 265.697 71.0482 265.559C71.2811 265.422 71.4846 265.24 71.6472 265.025C71.8097 264.809 71.9281 264.563 71.9955 264.302C72.063 264.04 72.0782 263.768 72.0402 263.5L71.9267 262.699C71.8889 262.431 71.7987 262.174 71.6612 261.941C71.5238 261.709 71.3418 261.505 71.1257 261.343C70.9095 261.181 70.6635 261.062 70.4016 260.995C70.1397 260.928 69.8671 260.913 69.5993 260.951L41.3532 264.937C41.0855 264.975 40.8278 265.065 40.5949 265.203C40.362 265.34 40.1584 265.522 39.9959 265.737C39.8333 265.953 39.7149 266.199 39.6475 266.461C39.5801 266.722 39.5649 266.994 39.6028 267.262L39.7163 268.063C39.754 268.33 39.8441 268.587 39.9816 268.82C40.119 269.053 40.301 269.256 40.5171 269.418C40.7333 269.581 40.9794 269.699 41.2413 269.766C41.5033 269.833 41.7759 269.849 42.0437 269.811Z" fill="#4376BB"/>
<g opacity="0.3">
<path d="M65.5933 261.625C65.5933 261.625 65.6068 263.921 65.4488 264.023C65.2907 264.126 41.17 267.8 41.17 267.8L41.4667 269.896L70.7737 265.76L70.0842 260.888L65.5933 261.625Z" fill="#121216"/>
</g>
<path d="M41.6927 270.676C41.0146 270.674 40.36 270.428 39.8485 269.984C39.3371 269.539 39.003 268.926 38.9075 268.255L38.7737 267.312C38.6688 266.572 38.8623 265.821 39.3118 265.223C39.7613 264.625 40.43 264.231 41.1709 264.125L69.5586 260.121C70.2989 260.017 71.05 260.211 71.6473 260.66C72.2447 261.109 72.6395 261.776 72.7452 262.514L72.8781 263.458C72.93 263.824 72.9092 264.197 72.8168 264.555C72.7244 264.913 72.5622 265.249 72.3396 265.545C72.117 265.84 71.8383 266.089 71.5193 266.277C71.2004 266.465 70.8475 266.588 70.4808 266.64L42.0941 270.645C41.9612 270.665 41.8271 270.676 41.6927 270.676ZM69.9543 261.757C69.8997 261.757 69.8453 261.761 69.7913 261.769L41.4037 265.771C41.1008 265.814 40.8274 265.976 40.6434 266.22C40.4595 266.464 40.3799 266.771 40.4223 267.074L40.5561 268.017C40.5989 268.32 40.7603 268.593 41.0049 268.777C41.2495 268.961 41.5572 269.041 41.8604 268.998L70.2481 264.992C70.3986 264.971 70.5436 264.921 70.6747 264.844C70.8057 264.767 70.9203 264.665 71.0119 264.544C71.1034 264.423 71.1701 264.285 71.2081 264.138C71.2461 263.991 71.2547 263.838 71.2334 263.688L71.1005 262.745C71.061 262.47 70.9234 262.218 70.7128 262.035C70.5022 261.853 70.2329 261.753 69.9543 261.753V261.757Z" fill="#121216"/>
<path d="M66.8132 261.424C66.8132 261.424 63.1078 257.127 58.0961 256.271C53.0844 255.415 47.9592 259.214 47.0283 259.111C46.0973 259.009 45.8539 259.214 45.6822 258.633C45.5106 258.052 45.0306 255.108 45.0306 255.108C45.0306 255.108 45.6124 254.307 46.0973 254.4C46.5822 254.493 47.0321 256.853 47.0321 256.853C47.0321 256.853 51.9226 254.115 57.8682 254.218C63.8138 254.321 68.1757 259.662 69.0621 261.029L66.8132 261.424Z" fill="#EE343B"/>
<path d="M66.8132 261.978C66.7334 261.978 66.6545 261.96 66.5821 261.927C66.5096 261.894 66.4452 261.845 66.3933 261.784C66.3574 261.743 62.7509 257.627 58.002 256.817C54.6263 256.236 51.1323 257.916 49.0454 258.918C47.903 259.466 47.3803 259.706 46.9681 259.662C46.7393 259.636 46.5579 259.632 46.3989 259.628C45.9256 259.615 45.3894 259.601 45.1498 258.788C44.9743 258.191 44.5321 255.501 44.4826 255.196C44.4705 255.124 44.4728 255.05 44.4894 254.979C44.506 254.907 44.5367 254.84 44.5796 254.781C44.7658 254.526 45.432 253.707 46.1962 253.854C46.426 253.899 46.9342 253.996 47.4181 256.03C48.9697 255.283 53.0611 253.592 57.8721 253.663C63.741 253.765 68.2717 258.796 69.5218 260.727C69.5715 260.804 69.6014 260.891 69.6089 260.983C69.6163 261.074 69.6011 261.165 69.5645 261.249C69.5279 261.333 69.4711 261.406 69.3992 261.463C69.3273 261.519 69.2424 261.557 69.1523 261.573L66.9073 261.968C66.8763 261.974 66.8448 261.978 66.8132 261.978ZM56.5658 255.586C57.1097 255.585 57.6528 255.63 58.1892 255.72C62.7073 256.495 66.1412 259.878 67.0188 260.82L68.0758 260.634C66.7502 258.966 62.9672 254.855 57.8546 254.767C52.1292 254.664 47.3473 257.312 47.2998 257.336C47.2231 257.379 47.1373 257.404 47.0495 257.407C46.9616 257.41 46.8742 257.393 46.7944 257.356C46.7147 257.319 46.6449 257.264 46.5908 257.194C46.5366 257.125 46.4998 257.044 46.4833 256.958C46.33 256.163 46.0866 255.339 45.915 255.001C45.8071 255.078 45.7079 255.167 45.6192 255.266C45.8132 256.437 46.1041 258.101 46.2146 258.476C46.2146 258.49 46.2224 258.502 46.2263 258.513C46.2835 258.513 46.3611 258.519 46.4289 258.521C46.6006 258.521 46.8169 258.53 47.0894 258.561C47.2581 258.547 47.9524 258.214 48.5653 257.92C50.4496 257.016 53.418 255.591 56.5658 255.591V255.586Z" fill="#121216"/>
<path d="M65.153 254.31C65.153 254.31 59.0532 259.58 59.3277 262.113C59.6021 264.645 60.6979 265.599 60.6979 265.599L89.2088 261.356C89.2088 261.356 89.457 257.044 86.8309 253.143C73.6936 251.78 65.153 254.31 65.153 254.31Z" fill="#EDBC9A"/>
<path d="M100.569 237.476C96.3889 234.738 85.9882 233.174 85.9882 233.174C85.9882 233.174 72.3515 231.075 66.8666 236.951C60.6979 243.567 65.153 254.31 65.153 254.31C65.153 254.31 73.6936 251.778 86.8309 253.148C86.8309 253.148 90.837 250.752 96.5421 250.068L100.569 237.476Z" fill="#3F414A"/>
<g opacity="0.4">
<path d="M72.494 235.568C77.8277 233.593 86.6195 233.277 86.6195 233.277C86.6195 233.277 75.5827 231.427 69.2366 235.117C62.8906 238.808 63.8302 249.207 63.8302 249.207C63.8302 249.207 63.9059 245.203 65.9046 241.422C66.2828 240.717 66.7364 240.054 67.2574 239.445C69.3569 236.956 70.3606 236.53 72.494 235.568Z" fill="white"/>
</g>
<g opacity="0.4">
<path d="M59.8329 262.292L67.3117 254.03H66.5407C66.5407 254.03 64.639 254.749 64.5362 254.774C64.4334 254.799 60.4002 258.993 59.8921 260.215C59.3839 261.438 59.8329 262.292 59.8329 262.292Z" fill="white"/>
</g>
<g opacity="0.25">
<path d="M97.8445 236.09C97.7126 236.052 97.5787 236.014 97.4449 235.977C98.1539 236.239 98.848 236.539 99.5241 236.877C99.0156 236.517 98.4468 236.25 97.8445 236.09Z" fill="#121216"/>
</g>
<g opacity="0.25">
<path d="M70.7582 253.256C74.2367 252.91 78.7015 252.788 80.2715 252.754C77.0925 252.695 73.9133 252.863 70.7582 253.256Z" fill="#121216"/>
</g>
<g opacity="0.25">
<path d="M83.8964 252.902C84.0962 253.897 85.1057 259.213 83.8635 259.616C82.4922 260.061 76.6155 260.883 76.6155 260.883C75.4334 262.183 72.5881 261.294 72.5881 261.294C70.9085 262.904 68.6984 262.113 68.6984 262.113C67.4969 263.6 65.153 262.292 65.153 262.292C65.153 262.292 64.2967 263.62 62.5831 263.586C60.8696 263.553 59.7388 262.97 59.7388 262.97C59.5672 264.132 60.5098 265.845 60.5098 265.845L89.2088 261.362C89.1574 256.579 87.1015 253.85 87.0753 253.528C87.0491 253.205 87.5835 252.746 87.5864 252.743C87.1015 252.99 86.83 253.149 86.83 253.149C85.8243 253.044 84.8478 252.964 83.8964 252.902Z" fill="#121216"/>
</g>
<g opacity="0.25">
<path d="M99.5241 236.879C98.848 236.541 98.1539 236.241 97.4449 235.979C93.6231 234.914 89.2156 234.244 89.2156 234.244C89.2156 234.244 88.7976 238.659 84.7372 242.862C80.6769 247.066 65.7795 248.099 65.7795 248.099C65.7892 250.049 66.5407 253.847 66.5407 253.847L67.0469 253.861C67.8615 253.606 69.2124 253.408 70.7582 253.254C73.9133 252.861 77.0925 252.693 80.2715 252.751L80.8475 252.74H83.8635L83.8965 252.899C84.8478 252.961 85.8243 253.041 86.8309 253.146C86.8309 253.146 87.0976 252.987 87.5873 252.74C90.772 250.786 96.0446 249.946 96.0446 249.946C96.0446 249.946 96.3617 249.753 96.7137 249.528L100.428 237.907C100.21 237.499 99.9006 237.147 99.5241 236.879Z" fill="#121216"/>
</g>
<path d="M96.6284 250.781C93.3768 251.239 90.1077 252.243 87.2392 253.83L87.4913 252.706C88.7831 254.617 89.5695 256.818 89.8925 259.086C90.0074 259.855 90.0564 260.633 90.0389 261.411C90.0324 261.602 89.9577 261.786 89.8281 261.928C89.6986 262.07 89.5227 262.161 89.3319 262.185L60.826 266.46C60.7022 266.48 60.5754 266.472 60.4551 266.437C60.3347 266.402 60.2238 266.34 60.1306 266.256C59.0639 265.191 58.6421 263.65 58.4656 262.208C58.3424 259.964 60.6504 257.64 62.0381 256.095C62.8537 255.243 63.6867 254.442 64.5789 253.653L64.3423 254.65C62.1264 248.749 61.6541 241.164 66.3206 236.275C71.2246 231.261 81.4973 231.496 87.9462 232.692C90.1679 233.115 92.3828 233.587 94.5638 234.242C96.7515 234.925 98.9509 235.709 100.796 237.138C100.875 237.202 100.927 237.292 100.944 237.391C100.96 237.491 100.939 237.593 100.885 237.678C100.831 237.763 100.747 237.825 100.65 237.853C100.553 237.88 100.449 237.871 100.358 237.827C98.3982 236.876 96.257 236.289 94.1448 235.722C87.822 234.025 81.089 232.92 74.5849 234.167C70.1715 234.979 66.6464 237.062 65.1966 241.439C63.8623 245.46 64.5178 250.051 65.9666 253.981C66.0354 254.151 66.0496 254.339 66.0072 254.517C65.9648 254.696 65.868 254.857 65.73 254.978C64.9018 255.706 64.0766 256.497 63.3056 257.303C62.1991 258.486 61.0665 259.718 60.3964 261.158C60.2625 261.484 60.1617 261.763 60.2024 262.075C60.3256 263.08 60.5816 264.102 61.2139 264.895L61.2585 264.945C61.2672 264.957 61.2963 264.983 61.273 264.963L60.5777 264.759L89.0934 260.547L88.3864 261.321C88.432 258.629 87.6659 255.848 86.1793 253.598C86.1189 253.514 86.0763 253.418 86.0539 253.316C86.0315 253.215 86.0298 253.11 86.0489 253.007C86.068 252.905 86.1075 252.808 86.165 252.721C86.2226 252.635 86.297 252.56 86.3839 252.503C89.5084 250.774 92.9346 249.777 96.4635 249.363C97.3926 249.267 97.5894 250.65 96.6352 250.788L96.6284 250.781Z" fill="#121216"/>
<path d="M65.153 255.005C64.9869 255.004 64.8267 254.944 64.7016 254.835C64.5765 254.725 64.4948 254.575 64.4713 254.411C64.4478 254.247 64.4842 254.08 64.5737 253.94C64.6632 253.8 64.7999 253.697 64.959 253.65C65.314 253.544 73.7838 251.094 86.9075 252.46C87.0882 252.483 87.2529 252.575 87.3663 252.717C87.4796 252.859 87.5325 253.04 87.5136 253.221C87.4947 253.402 87.4054 253.568 87.265 253.683C87.1246 253.799 86.9444 253.855 86.763 253.839C73.9351 252.503 65.4381 254.953 65.3537 254.977C65.2886 254.996 65.2209 255.006 65.153 255.005Z" fill="#121216"/>
<path d="M65.1918 265.216C64.3824 263.866 64.0986 262.266 64.3946 260.72C64.4682 260.201 64.7165 259.723 65.0987 259.364C65.1073 259.356 65.1179 259.351 65.1294 259.348C65.1409 259.346 65.1529 259.346 65.164 259.35C65.1752 259.354 65.1852 259.36 65.193 259.369C65.2008 259.378 65.206 259.389 65.2083 259.4C65.3499 259.935 65.3382 260.368 65.3557 260.81C65.3861 261.677 65.5584 262.534 65.8658 263.345C66.0185 263.752 66.1946 264.149 66.3933 264.536C66.7744 265.321 65.6747 265.945 65.1918 265.221V265.216Z" fill="#121216"/>
<path d="M68.3425 264.537C68.039 263.465 67.7723 260.779 68.9641 260.188C68.9736 260.185 68.9837 260.183 68.9939 260.183C69.0041 260.184 69.0141 260.186 69.0232 260.191C69.0323 260.195 69.0404 260.201 69.047 260.209C69.0535 260.217 69.0583 260.226 69.0611 260.236C69.1522 260.578 69.2024 260.929 69.2105 261.283C69.2589 262.26 69.5227 263.262 69.6876 264.222C69.8224 265.079 68.5956 265.362 68.3386 264.537H68.3425Z" fill="#121216"/>
<path d="M72.0897 263.909C71.9064 262.859 71.7018 259.768 72.9217 259.34C72.9326 259.337 72.9441 259.337 72.9551 259.339C72.9662 259.341 72.9765 259.346 72.9852 259.354C72.9939 259.361 73.0007 259.37 73.005 259.381C73.0093 259.391 73.011 259.402 73.01 259.414C73.0313 259.634 73.0488 259.78 73.0798 259.98C73.1263 261.195 73.3445 262.513 73.4677 263.722C73.522 264.594 72.273 264.757 72.0935 263.909H72.0897Z" fill="#121216"/>
<path d="M76.1074 263.378C75.8019 262.287 75.863 259.915 77.0257 259.353C77.0357 259.348 77.0467 259.345 77.0578 259.345C77.0689 259.345 77.0798 259.348 77.0898 259.352C77.0999 259.357 77.1087 259.364 77.1157 259.373C77.1228 259.381 77.1278 259.391 77.1304 259.402C77.3545 260.133 77.1644 260.617 77.24 261.303C77.2711 261.838 77.3797 262.562 77.4611 263.094C77.5707 263.947 76.3498 264.2 76.1035 263.378H76.1074Z" fill="#121216"/>
<path d="M60.7988 270.076L89.0449 266.09C89.3127 266.052 89.5704 265.962 89.8033 265.825C90.0362 265.687 90.2397 265.506 90.4023 265.29C90.5648 265.074 90.6832 264.828 90.7506 264.567C90.8181 264.305 90.8332 264.033 90.7953 263.766L90.6818 262.964C90.6043 262.425 90.3156 261.938 89.8792 261.611C89.4429 261.285 88.8945 261.144 88.3544 261.221L60.1083 265.208C59.8406 265.245 59.5829 265.336 59.35 265.473C59.117 265.61 58.9135 265.792 58.751 266.008C58.5884 266.223 58.47 266.469 58.4026 266.731C58.3352 266.992 58.32 267.264 58.3579 267.532L58.4714 268.333C58.5489 268.872 58.8376 269.358 59.274 269.685C59.7103 270.012 60.2588 270.152 60.7988 270.076Z" fill="#4376BB"/>
<g opacity="0.3">
<path d="M84.3445 261.89C84.3445 261.89 84.3581 264.186 84.2 264.289C84.0419 264.391 59.9212 268.065 59.9212 268.065L60.2179 270.161L89.5249 266.025L88.8354 261.152L84.3445 261.89Z" fill="#121216"/>
</g>
<path d="M60.4439 270.938C59.7658 270.936 59.1112 270.69 58.5997 270.245C58.0883 269.801 57.7543 269.187 57.6587 268.517L57.5249 267.574C57.4211 266.835 57.6152 266.085 58.0646 265.488C58.514 264.892 59.1821 264.498 59.9221 264.392L88.3098 260.386C88.6767 260.334 89.0502 260.354 89.4092 260.446C89.7681 260.538 90.1054 260.7 90.4018 260.922C90.6982 261.144 90.9478 261.422 91.1365 261.741C91.3251 262.059 91.4491 262.412 91.5013 262.778L91.6351 263.721C91.7385 264.461 91.5434 265.211 91.0927 265.807C90.6421 266.403 89.9728 266.796 89.2321 266.899L60.8454 270.909C60.7124 270.928 60.5782 270.938 60.4439 270.938ZM88.7064 262.019C88.6516 262.019 88.5968 262.023 88.5426 262.03L60.1549 266.037C59.8519 266.08 59.5783 266.241 59.3943 266.485C59.2103 266.729 59.1309 267.036 59.1735 267.339L59.3073 268.282C59.3501 268.585 59.5115 268.859 59.7561 269.043C60.0007 269.226 60.3084 269.306 60.6116 269.263L88.9993 265.253C89.1495 265.232 89.2941 265.182 89.4248 265.105C89.5555 265.028 89.6697 264.926 89.7609 264.805C89.8521 264.684 89.9186 264.546 89.9565 264.399C89.9943 264.252 90.0029 264.1 89.9817 263.95L89.8479 263.006C89.8091 262.732 89.6723 262.48 89.4626 262.298C89.2529 262.116 88.9844 262.015 88.7064 262.015V262.019Z" fill="#121216"/>
<path d="M85.5644 261.688C85.5644 261.688 81.859 257.393 76.8473 256.536C71.8356 255.68 66.7143 259.479 65.7795 259.377C64.8446 259.274 64.6051 259.479 64.4334 258.893C64.2618 258.306 63.7818 255.369 63.7818 255.369C63.7818 255.369 64.3636 254.568 64.8485 254.66C65.3334 254.752 65.7833 257.114 65.7833 257.114C65.7833 257.114 70.6738 254.376 76.6194 254.479C82.565 254.581 86.9269 259.921 87.8133 261.289L85.5644 261.688Z" fill="#EE343B"/>
<path d="M85.5644 262.243C85.4846 262.243 85.4059 262.225 85.3334 262.192C85.261 262.159 85.1966 262.11 85.1445 262.05C85.1086 262.008 81.5021 257.892 76.7532 257.082C73.3775 256.501 69.8835 258.182 67.7966 259.183C66.6542 259.731 66.1315 259.971 65.7193 259.927C65.4905 259.902 65.3091 259.897 65.1501 259.893C64.6768 259.88 64.1406 259.866 63.901 259.053C63.7255 258.456 63.2833 255.767 63.2339 255.462C63.2219 255.389 63.2243 255.315 63.2409 255.244C63.2576 255.173 63.2881 255.106 63.3308 255.046C63.517 254.791 64.1832 253.972 64.9474 254.119C65.1772 254.164 65.6854 254.262 66.1693 256.295C67.7209 255.549 71.8104 253.853 76.6233 253.929C82.4922 254.025 87.0229 259.061 88.273 260.992C88.3227 261.069 88.3526 261.157 88.3601 261.248C88.3675 261.339 88.3523 261.431 88.3157 261.514C88.2791 261.598 88.2223 261.672 88.1504 261.728C88.0785 261.785 87.9936 261.823 87.9035 261.839L85.6595 262.234C85.6281 262.24 85.5963 262.243 85.5644 262.243ZM75.317 255.852C75.861 255.85 76.404 255.895 76.9404 255.985C81.4585 256.76 84.8924 260.144 85.7652 261.085L86.8222 260.899C85.4975 259.233 81.7135 255.121 76.601 255.033C70.8707 254.918 66.0937 257.57 66.0461 257.597C65.9695 257.64 65.8837 257.664 65.7958 257.667C65.7079 257.671 65.6205 257.653 65.5408 257.616C65.461 257.579 65.3912 257.524 65.3371 257.455C65.283 257.386 65.2462 257.304 65.2296 257.218C65.0764 256.423 64.833 255.599 64.6613 255.261C64.5551 255.339 64.4576 255.428 64.3704 255.526C64.5644 256.697 64.8553 258.362 64.9658 258.737C64.9658 258.75 64.9736 258.763 64.9775 258.773C65.0347 258.773 65.1123 258.779 65.1802 258.781C65.3518 258.781 65.5681 258.791 65.8406 258.822C66.0093 258.807 66.7036 258.474 67.3165 258.18C69.1969 257.281 72.1692 255.86 75.317 255.86V255.852Z" fill="#121216"/>
<path d="M52.1088 217.71C52.1088 217.71 62.8964 219.703 86.988 219C111.08 218.297 125.316 217.097 125.316 217.097C125.316 217.097 132.668 217.212 130.164 222.611C130.164 222.611 101.665 226.789 79.2242 227.344C56.783 227.899 45.8587 222.531 45.8587 222.531C45.8587 222.531 45.6308 220.739 46.6801 220.057C47.7294 219.376 52.1088 217.71 52.1088 217.71Z" fill="#DDA379"/>
<g opacity="0.25">
<path d="M52.5171 224.349C52.5171 224.349 74.7245 225.557 90.3376 224.543C105.951 223.529 111.769 222.148 113.903 221.616C116.036 221.085 116.112 218.151 116.112 218.151C116.112 218.151 122.582 218.117 122.9 217.887C123.218 217.658 124.759 217.306 127.038 219.044C129.317 220.783 128.348 222.869 128.348 222.869C128.348 222.869 99.2205 226.761 79.9398 227.323C60.6591 227.886 52.5171 224.349 52.5171 224.349Z" fill="#121216"/>
</g>
<path d="M75.9571 228.215C55.7861 228.215 45.9227 223.488 45.4922 223.276C45.3685 223.216 45.2618 223.126 45.1818 223.014C45.1017 222.902 45.0507 222.772 45.0335 222.635C45.0034 222.399 44.7804 220.299 46.2263 219.36C47.3192 218.65 51.3563 217.107 51.813 216.932C51.9555 216.878 52.1103 216.864 52.2601 216.893C52.3677 216.912 63.2697 218.86 86.9638 218.169C110.752 217.476 125.103 216.281 125.246 216.269C125.273 216.267 125.301 216.267 125.328 216.269C125.499 216.269 129.522 216.361 130.99 218.697C131.719 219.859 131.696 221.291 130.92 222.964C130.862 223.089 130.773 223.197 130.663 223.28C130.552 223.362 130.422 223.416 130.286 223.436C129.995 223.478 101.479 227.627 79.2445 228.181C78.1196 228.205 77.0238 228.217 75.9571 228.215ZM46.6704 221.983C48.929 222.934 59.7398 226.993 79.2038 226.517C99.7849 226.007 125.807 222.396 129.582 221.859C129.94 220.919 129.94 220.155 129.582 219.583C128.776 218.297 126.284 217.958 125.342 217.937C124.435 218.011 110.188 219.163 87.0132 219.838C65.024 220.481 53.9164 218.855 52.199 218.58C50.8685 219.091 47.8952 220.275 47.1388 220.766C46.7955 220.977 46.6918 221.556 46.6743 221.983H46.6704Z" fill="#121216"/>
<path d="M55.9355 224.973C56.6347 223.289 57.9429 222.017 59.1357 220.683C59.1629 220.652 59.1991 220.631 59.2393 220.622C59.2795 220.613 59.3214 220.617 59.3591 220.634C59.3968 220.65 59.4282 220.678 59.4489 220.714C59.4696 220.749 59.4784 220.79 59.4741 220.831C59.3131 221.787 58.7953 222.594 58.2483 223.349C57.6839 224.093 57.0488 224.758 56.2119 225.215C56.1764 225.236 56.1353 225.245 56.0943 225.241C56.0534 225.237 56.0149 225.22 55.9842 225.193C55.9536 225.165 55.9324 225.129 55.9238 225.089C55.9152 225.048 55.9197 225.007 55.9364 224.969L55.9355 224.973Z" fill="#121216"/>
<path d="M49.667 223.923C49.633 222.904 50.1208 222.008 50.7453 221.243C50.9015 221.058 51.7772 220.117 51.8121 220.796C51.5974 221.714 51.2157 222.584 50.6862 223.364C50.5339 223.548 49.8396 224.526 49.6679 223.923H49.667Z" fill="#121216"/>
<path d="M65.1103 226.117C65.6049 224.702 66.4951 223.518 67.3408 222.309C67.6249 221.908 67.9032 221.516 68.1515 221.104C68.1746 221.072 68.2071 221.048 68.2445 221.034C68.282 221.021 68.3226 221.02 68.3609 221.03C68.3992 221.041 68.4333 221.063 68.4586 221.093C68.484 221.124 68.4993 221.162 68.5025 221.201C68.4783 222.281 67.9653 223.211 67.4358 224.1C66.8898 224.963 66.2585 225.753 65.3993 226.342C65.3654 226.365 65.3253 226.377 65.2845 226.375C65.2437 226.374 65.2044 226.36 65.1722 226.335C65.1399 226.31 65.1164 226.275 65.105 226.236C65.0935 226.197 65.0947 226.155 65.1084 226.117H65.1103Z" fill="#121216"/>
<path d="M78.2311 220.564C78.3523 221.391 78.0314 222.15 77.6784 222.863C77.5746 223.123 76.1394 225.478 75.9939 224.535C76.1743 223.409 76.632 222.368 77.2119 221.402C77.4181 221.075 77.6517 220.766 77.9101 220.479C77.9334 220.454 77.963 220.435 77.9957 220.426C78.0285 220.417 78.0633 220.416 78.0963 220.425C78.1292 220.434 78.1592 220.451 78.183 220.476C78.2067 220.5 78.2234 220.531 78.2311 220.564Z" fill="#121216"/>
<path d="M84.713 226.655C85.1591 225.024 86.0706 223.608 87.0598 222.26C87.3931 221.808 87.7584 221.381 88.1527 220.981C88.1838 220.954 88.223 220.937 88.2643 220.933C88.3057 220.93 88.3471 220.94 88.3825 220.961C88.4179 220.983 88.4454 221.015 88.4609 221.054C88.4765 221.092 88.4792 221.135 88.4688 221.175C88.2978 221.709 88.0881 222.23 87.8414 222.734C87.3698 223.737 86.8045 224.693 86.1531 225.59C85.8211 226.046 85.4446 226.467 85.0291 226.849C84.998 226.876 84.9589 226.893 84.9175 226.897C84.8761 226.9 84.8347 226.89 84.7993 226.869C84.7639 226.847 84.7364 226.815 84.7209 226.776C84.7054 226.738 84.7026 226.695 84.713 226.655Z" fill="#121216"/>
<path d="M97.2228 225.734C97.5943 224.008 98.5718 222.581 99.3893 221.043C99.4084 221.006 99.4387 220.977 99.4759 220.959C99.5131 220.94 99.5551 220.935 99.5959 220.942C99.6367 220.949 99.674 220.969 99.7024 221C99.7308 221.03 99.7489 221.068 99.7539 221.109C99.8363 222.495 99.237 223.821 98.4767 224.938C98.3293 225.132 97.2917 226.509 97.2228 225.734Z" fill="#121216"/>
<path d="M110.752 218.218C110.767 218.234 110.812 218.212 110.804 218.224C110.799 218.256 110.79 218.286 110.777 218.315C110.102 220.19 109.19 221.972 108.062 223.615C108.036 223.648 108.001 223.671 107.962 223.682C107.922 223.693 107.88 223.691 107.841 223.677C107.803 223.663 107.77 223.636 107.747 223.602C107.724 223.567 107.713 223.527 107.716 223.486C107.938 221.733 109.073 218.864 110.597 217.881C110.641 217.862 110.689 217.851 110.737 217.849C110.785 217.849 110.831 217.867 110.865 217.9C110.9 217.933 110.92 217.977 110.923 218.025C110.925 218.072 110.909 218.119 110.879 218.155C110.848 218.191 110.804 218.213 110.757 218.218H110.752Z" fill="#121216"/>
<path d="M121.176 223.181C121.017 222.446 121.114 221.747 121.288 221.042C121.343 220.766 122.1 218.324 122.477 219.148C122.593 220.217 122.454 221.298 122.073 222.303C121.97 222.527 121.484 223.78 121.176 223.181Z" fill="#121216"/>
<path d="M88.8645 253.225C88.8645 253.225 65.4032 253.262 56.8684 253.643C48.3335 254.023 44.7115 254.902 44.7115 254.902C44.7115 254.902 43.0629 253.014 44.2538 251.047C45.4446 249.079 60.5942 247.674 73.2679 248.518C85.9417 249.362 89.1554 249.583 89.1554 249.583C89.1554 249.583 90.4724 251.635 88.8645 253.225Z" fill="#DDA379"/>
<g opacity="0.25">
<path d="M85.3171 249.326C85.3171 249.326 85.0689 251.121 84.2562 251.149C83.4436 251.177 74.0185 251.607 65.5099 251.611C57.0012 251.615 48.1852 252.278 47.646 252.13C47.1068 251.982 46.9303 249.84 46.9303 249.84C46.5122 249.804 46.0911 249.86 45.6972 250.005C45.3034 250.15 44.9463 250.379 44.6514 250.678C43.6487 251.696 43.8019 254.534 44.7115 254.904C44.7115 254.904 53.0795 253.514 67.7791 253.381C82.4787 253.249 88.6589 253.27 88.6589 253.27C88.6589 253.27 89.6374 252.16 89.6558 251.156C89.6743 250.152 89.1554 249.584 89.1554 249.584L85.3171 249.326Z" fill="#121216"/>
</g>
<path d="M44.7115 255.736C44.5927 255.735 44.4752 255.71 44.367 255.661C44.2588 255.612 44.1623 255.54 44.0841 255.451C44.0007 255.354 42.0524 253.076 43.541 250.618C44.2848 249.391 47.9321 248.476 54.3809 247.902C60.6811 247.363 67.0126 247.293 73.3232 247.691C85.9969 248.535 89.2117 248.756 89.2117 248.756C89.3415 248.765 89.4675 248.804 89.5795 248.87C89.6915 248.936 89.7864 249.027 89.8566 249.137C90.4384 250.041 91.1008 252.184 89.4502 253.816C89.2953 253.969 89.0864 254.056 88.8684 254.056C88.6337 254.056 65.3276 254.099 56.9091 254.475C48.5857 254.846 44.9462 255.705 44.9103 255.713C44.8452 255.729 44.7784 255.736 44.7115 255.736ZM65.3373 249.1C61.7395 249.1 58.099 249.247 54.7359 249.54C47.4792 250.17 45.2177 251.161 44.9588 251.489C44.3653 252.469 44.7648 253.454 45.0752 253.978C46.394 253.72 50.0859 253.114 56.8315 252.816C64.6943 252.464 85.4335 252.404 88.4873 252.397C89.0274 251.665 88.8247 250.847 88.6308 250.385C87.3643 250.299 83.2632 250.023 73.2117 249.353C70.7029 249.182 68.0332 249.1 65.3373 249.1Z" fill="#121216"/>
<path d="M86.8125 249.409C87.2654 249.956 87.2479 250.647 87.0472 251.281C86.9667 251.507 86.6506 252.249 86.3431 251.834C85.9998 251.059 85.9019 250.135 86.4401 249.419C86.462 249.391 86.4897 249.368 86.5213 249.352C86.5529 249.336 86.5877 249.328 86.6231 249.327C86.6584 249.326 86.6936 249.333 86.726 249.347C86.7584 249.361 86.7873 249.382 86.8106 249.409H86.8125Z" fill="#121216"/>
<path d="M82.0626 249.081C82.5475 249.759 82.4835 250.606 82.2265 251.352C82.1296 251.581 81.7659 252.469 81.4682 251.979C81.2112 251.017 81.1773 249.991 81.6941 249.107C81.712 249.075 81.7376 249.048 81.7685 249.028C81.7995 249.009 81.8348 248.997 81.8713 248.995C81.9079 248.992 81.9445 248.998 81.9779 249.013C82.0113 249.029 82.0404 249.052 82.0626 249.081Z" fill="#121216"/>
<path d="M74.6585 252.712C74.4539 251.864 74.6479 251.066 74.8525 250.251C74.9245 249.975 75.0149 249.704 75.1231 249.439C75.1379 249.404 75.1621 249.375 75.1929 249.353C75.2237 249.331 75.2598 249.318 75.2975 249.316C75.3351 249.313 75.3727 249.321 75.4061 249.339C75.4395 249.356 75.4674 249.382 75.4867 249.415C75.9221 250.232 75.8649 251.228 75.5323 252.063C75.4353 252.289 74.9146 253.276 74.6595 252.712H74.6585Z" fill="#121216"/>
<path d="M69.4325 248.556C69.7758 249.33 69.6342 250.15 69.3743 250.917C69.2774 251.141 68.9515 252.097 68.6267 251.601C68.3848 250.83 68.3933 250.002 68.6509 249.236C68.7421 249.01 69.0951 248.097 69.4325 248.558V248.556Z" fill="#121216"/>
<path d="M61.9761 253.474C61.5009 252.625 61.6376 251.634 61.9761 250.763C62.0556 250.587 62.2864 250.048 62.5259 250.4C62.8363 251.124 62.8644 251.974 62.6859 252.737C62.6113 252.968 62.3446 253.886 61.9712 253.47L61.9761 253.474Z" fill="#121216"/>
<path d="M56.2468 248.872C56.5377 249.744 56.3622 250.616 56.1401 251.467C56.0604 251.754 55.9579 252.035 55.8336 252.306C55.8167 252.341 55.7906 252.369 55.7582 252.389C55.7258 252.409 55.6885 252.42 55.6504 252.42C55.6123 252.42 55.5749 252.409 55.5425 252.389C55.5101 252.369 55.484 252.341 55.4671 252.306C55.0908 251.449 55.1432 250.481 55.4205 249.611C55.5088 249.384 55.9296 248.34 56.2468 248.87V248.872Z" fill="#121216"/>
<path d="M49.2383 249.371C49.5166 249.985 49.5419 250.604 49.4866 251.246C49.4817 251.523 49.1181 253.755 48.6342 253.064C48.3402 252.156 48.2947 251.186 48.5023 250.255C48.5711 250.019 48.8495 248.873 49.2383 249.37V249.371Z" fill="#121216"/>
<path d="M88.3719 253.137C88.3719 253.137 64.4577 250.523 55.7144 249.931C46.971 249.339 43.1715 249.807 43.1715 249.807C43.1715 249.807 41.7169 247.744 43.1715 245.924C44.6262 244.103 60.2392 244.422 73.0468 246.698C85.8544 248.975 89.1089 249.554 89.1089 249.554C89.1089 249.554 90.2047 251.74 88.3719 253.137Z" fill="#DDA379"/>
<g opacity="0.25">
<path d="M85.2328 248.861C85.2328 248.861 84.7605 250.618 83.9294 250.553C83.0983 250.488 73.4396 249.849 64.769 248.89C56.0984 247.931 47.0321 247.591 46.5007 247.383C45.9693 247.175 46.0507 245.026 46.0507 245.026C45.629 244.943 45.1944 244.951 44.7762 245.05C44.3579 245.149 43.9659 245.337 43.6264 245.6C42.4801 246.5 42.291 249.336 43.1715 249.807C43.1715 249.807 51.8693 249.374 66.8646 250.906C81.86 252.438 88.1566 253.16 88.1566 253.16C88.1566 253.16 89.2893 252.167 89.4299 251.171C89.5705 250.176 89.1128 249.552 89.1128 249.552L85.2328 248.861Z" fill="#121216"/>
</g>
<path d="M88.3719 253.968C88.3415 253.97 88.3111 253.97 88.2807 253.968C88.0422 253.942 64.2851 251.345 55.6591 250.765C47.1252 250.191 43.3102 250.632 43.2724 250.638C43.1229 250.655 42.9715 250.632 42.834 250.571C42.6965 250.51 42.578 250.413 42.4908 250.29C41.8653 249.4 41.0672 247.236 42.5247 245.41C43.4276 244.281 47.2465 243.789 53.8709 243.948C60.35 244.127 66.8077 244.774 73.1933 245.885C86.0057 248.161 89.2553 248.742 89.2553 248.742C89.3831 248.765 89.5037 248.817 89.6076 248.895C89.7114 248.972 89.7957 249.073 89.8537 249.189C90.3385 250.158 90.7546 252.37 88.8732 253.806C88.7282 253.913 88.5522 253.97 88.3719 253.968ZM47.6945 248.801C49.6815 248.801 52.3493 248.872 55.7706 249.101C63.8419 249.643 85.0572 251.94 88.0994 252.272C88.7481 251.605 88.6434 250.768 88.5028 250.288C87.2353 250.062 83.0945 249.32 72.9052 247.515C66.6671 246.431 60.3591 245.794 54.0299 245.611C46.5414 245.417 44.12 246.151 43.8193 246.45C43.0949 247.357 43.3839 248.381 43.6341 248.93C44.3217 248.875 45.6483 248.801 47.6945 248.801Z" fill="#121216"/>
<path d="M86.7407 249.115C87.1287 249.714 87.022 250.399 86.7407 251.005C86.6341 251.22 86.2268 251.92 85.9737 251.468C85.7303 250.651 85.7458 249.725 86.3693 249.079C86.3944 249.054 86.4246 249.035 86.4579 249.023C86.4913 249.011 86.5268 249.006 86.5621 249.01C86.5973 249.013 86.6314 249.024 86.6617 249.042C86.6921 249.061 86.7181 249.085 86.7378 249.115H86.7407Z" fill="#121216"/>
<path d="M81.9404 248.252C82.3419 248.991 82.1722 249.822 81.8221 250.532C81.7029 250.749 81.2248 251.586 80.9911 251.062C80.8582 250.072 80.9523 249.051 81.5729 248.233C81.5945 248.204 81.6232 248.18 81.6563 248.164C81.6894 248.148 81.726 248.141 81.7626 248.143C81.7993 248.145 81.8349 248.156 81.8663 248.175C81.8977 248.194 81.9238 248.22 81.9424 248.252H81.9404Z" fill="#121216"/>
<path d="M73.9623 251.017C73.8653 250.146 74.163 249.377 74.4714 248.596C74.5772 248.331 74.6996 248.072 74.8379 247.822C74.8568 247.789 74.8844 247.762 74.9176 247.744C74.9508 247.726 74.9884 247.717 75.0262 247.719C75.064 247.722 75.1005 247.734 75.1316 247.755C75.1627 247.777 75.1873 247.807 75.2026 247.841C75.5371 248.713 75.3539 249.695 74.9175 250.486C74.7933 250.697 74.1485 251.614 73.9623 251.02V251.017Z" fill="#121216"/>
<path d="M69.1339 246.299C69.3763 247.117 69.1339 247.911 68.7789 248.642C68.6519 248.853 68.2116 249.764 67.9508 249.231C67.8089 248.432 67.9215 247.61 68.2727 246.879C68.391 246.665 68.8546 245.801 69.1339 246.297V246.299Z" fill="#121216"/>
<path d="M60.9443 250.34C60.5777 249.436 60.8366 248.463 61.2846 247.647C61.3816 247.483 61.6813 246.97 61.8752 247.357C62.0934 248.115 62.0158 248.964 61.7443 249.702C61.6473 249.922 61.2652 250.802 60.9443 250.343V250.34Z" fill="#121216"/>
<path d="M55.6581 245.122C55.8307 246.025 55.5514 246.865 55.2256 247.689C55.1108 247.965 54.9746 248.231 54.8183 248.486C54.7978 248.518 54.7688 248.544 54.7344 248.56C54.7 248.577 54.6617 248.583 54.6238 248.579C54.5859 248.575 54.5499 248.56 54.52 248.536C54.4901 248.513 54.4675 248.481 54.4546 248.445C54.1851 247.545 54.3577 246.587 54.7456 245.756C54.861 245.541 55.4108 244.554 55.6591 245.122H55.6581Z" fill="#121216"/>
<path d="M48.4548 244.825C48.6545 245.47 48.6031 246.084 48.4693 246.721C48.4305 246.994 47.7905 249.17 47.3977 248.423C47.219 247.484 47.294 246.515 47.615 245.615C47.7119 245.388 48.1299 244.283 48.4548 244.825Z" fill="#121216"/>
<path d="M47.4743 213.205C47.4743 213.205 56.9324 220.771 85.7177 225.359C114.503 229.948 129.795 228.86 129.795 228.86C129.795 228.86 132.87 230.906 129.512 233.917C129.512 233.917 111.148 236.399 82.0908 230.64C53.034 224.881 45.6279 219.413 44.2577 218.007C42.8874 216.601 44.5534 213.453 47.4743 213.205Z" fill="#DDA379"/>
<g opacity="0.25">
<path d="M129.791 228.86C129.791 228.86 128.046 228.984 124.615 228.972C124.58 229.737 124.165 230.654 122.975 231.666C122.975 231.666 104.549 233.664 75.6506 227.144C58.5257 223.281 49.0017 219.719 43.8048 217.158C43.8674 217.478 44.0213 217.773 44.248 218.007C45.6182 219.413 53.0204 224.883 82.0811 230.64C111.142 236.397 129.502 233.917 129.502 233.917C132.866 230.905 129.791 228.86 129.791 228.86Z" fill="#121216"/>
</g>
<path d="M118.502 235.265C110.172 235.265 97.5438 234.552 81.9211 231.456C51.5784 225.443 44.7202 219.681 43.6535 218.587C42.9116 217.826 42.7293 216.674 43.1686 215.503C43.6991 214.08 45.2148 212.563 47.4026 212.377C47.6152 212.358 47.827 212.422 47.9932 212.556C48.1386 212.67 57.779 220.064 85.8466 224.538C114.182 229.055 129.583 228.041 129.734 228.03C129.918 228.017 130.101 228.066 130.255 228.168C130.317 228.209 131.781 229.202 131.903 230.907C131.992 232.141 131.374 233.362 130.066 234.536C129.941 234.647 129.786 234.719 129.62 234.741C129.535 234.748 125.562 235.265 118.502 235.265ZM47.2416 214.073C45.947 214.3 45.0393 215.246 44.727 216.083C44.63 216.348 44.4409 217.012 44.8463 217.427C45.4631 218.06 51.7529 223.783 82.2449 229.823C108.984 235.121 126.818 233.386 129.14 233.122C129.916 232.375 130.288 231.67 130.241 231.025C130.197 230.414 129.773 229.938 129.519 229.706C127.122 229.827 111.848 230.365 85.5828 226.179C59.2811 221.988 49.057 215.38 47.2416 214.073Z" fill="#121216"/>
<path d="M46.0566 217.969C45.8093 217.012 46.2718 216.059 46.9545 215.408C47.1369 215.223 48.0979 214.548 48.0319 215.185C47.8768 215.54 46.491 218.823 46.0566 217.969Z" fill="#121216"/>
<path d="M60.3236 224.148C59.9444 223.234 60.2693 222.226 60.8541 221.486C61.0092 221.278 61.8655 220.476 61.8898 221.116C61.786 221.488 60.8744 224.932 60.3236 224.148Z" fill="#121216"/>
<path d="M69.13 227.792C68.7508 226.879 69.0747 225.871 69.6604 225.131C69.8146 224.923 70.6719 224.12 70.6952 224.76C70.5924 225.133 69.6798 228.576 69.13 227.792Z" fill="#121216"/>
<path d="M80.3491 230.012C80.0029 228.736 80.4305 227.39 81.186 226.349C81.3479 226.136 82.1674 225.162 82.4059 225.527C82.4225 225.554 82.4323 225.584 82.4343 225.616C82.4363 225.648 82.4306 225.679 82.4176 225.708C81.9627 226.797 81.6049 227.839 81.2092 228.941C81.0693 229.322 80.9024 229.693 80.7098 230.05C80.692 230.085 80.664 230.114 80.6293 230.133C80.5947 230.152 80.5552 230.16 80.516 230.155C80.4769 230.151 80.4399 230.135 80.4101 230.11C80.3803 230.084 80.359 230.05 80.3491 230.012Z" fill="#121216"/>
<path d="M97.4779 227.684C98.0113 228.893 97.7911 230.288 97.1996 231.429C97.0716 231.666 96.4082 232.751 96.1173 232.425C96.097 232.401 96.0829 232.372 96.0761 232.342C96.0694 232.311 96.0702 232.279 96.0785 232.249C96.3646 231.104 96.5634 230.021 96.7874 228.871C96.8692 228.473 96.9787 228.082 97.1152 227.699C97.1293 227.663 97.1535 227.633 97.1848 227.61C97.2161 227.588 97.2532 227.576 97.2915 227.574C97.3299 227.572 97.3679 227.582 97.4009 227.601C97.434 227.621 97.4607 227.649 97.4779 227.684Z" fill="#121216"/>
<path d="M109.202 228.3C109.736 229.509 109.514 230.905 108.924 232.046C108.795 232.283 108.133 233.367 107.842 233.042C107.821 233.018 107.807 232.989 107.8 232.958C107.794 232.928 107.795 232.896 107.803 232.866C108.089 231.72 108.288 230.638 108.512 229.488C108.593 229.09 108.703 228.698 108.84 228.316C108.852 228.279 108.875 228.246 108.907 228.222C108.938 228.198 108.976 228.185 109.016 228.183C109.055 228.181 109.094 228.192 109.127 228.213C109.161 228.234 109.187 228.264 109.202 228.3Z" fill="#121216"/>
<path d="M122.466 229.339C123.253 230.404 123.346 231.809 123.022 233.053C122.949 233.312 122.537 234.517 122.187 234.263C122.162 234.244 122.142 234.219 122.129 234.191C122.115 234.162 122.109 234.131 122.11 234.099C122.136 232.92 122.088 231.82 122.054 230.649C122.046 230.243 122.067 229.837 122.116 229.434C122.119 229.394 122.134 229.357 122.16 229.327C122.185 229.296 122.219 229.274 122.257 229.264C122.295 229.253 122.335 229.255 122.373 229.268C122.41 229.281 122.442 229.305 122.466 229.337V229.339Z" fill="#121216"/>
<path d="M45.3409 228.637C45.6264 228.807 45.9579 228.882 46.2886 228.852C46.6192 228.823 46.9323 228.691 47.1834 228.474C51.7199 224.531 75.2181 204.823 100.564 196.775C128.792 187.811 134.026 189.683 134.026 189.683C134.026 189.683 138.618 185.361 133.066 181.441C133.066 181.441 110.047 181.71 78.6869 198.098C47.3269 214.485 44.9918 221.384 44.0443 223.308C42.5286 226.394 44.0909 227.9 45.3409 228.637Z" fill="#DDA379"/>
<g opacity="0.25">
<path d="M135.678 186.452C135.678 186.452 130.487 184.465 102.065 192.798C76.5476 200.28 52.615 219.46 47.9912 223.303C47.735 223.515 47.4185 223.641 47.0865 223.664C46.7545 223.686 46.424 223.603 46.1419 223.426C45.5995 223.106 45.1338 222.672 44.7775 222.153C44.4051 222.784 44.2043 223.252 44.0443 223.577C42.5237 226.661 44.0909 228.168 45.3428 228.903C45.6283 229.072 45.9599 229.147 46.2905 229.118C46.6212 229.088 46.9342 228.956 47.1854 228.739C51.7219 224.796 75.22 205.089 100.566 197.04C128.794 188.076 134.028 189.948 134.028 189.948C134.028 189.948 135.664 188.406 135.801 186.329C135.722 186.409 135.678 186.452 135.678 186.452Z" fill="#121216"/>
</g>
<path d="M46.1555 229.691C45.7208 229.691 45.2941 229.574 44.92 229.353C42.5305 227.945 41.9535 225.673 43.2976 222.941C43.3315 222.873 43.3674 222.796 43.4072 222.713C44.5156 220.373 47.8884 213.251 78.3077 197.358C109.482 181.069 132.83 180.614 133.062 180.614C133.238 180.611 133.41 180.664 133.553 180.767C135.475 182.123 136.513 183.699 136.636 185.449C136.83 188.161 134.696 190.206 134.599 190.291C134.487 190.397 134.348 190.469 134.198 190.5C134.048 190.531 133.891 190.52 133.747 190.468C133.546 190.41 127.968 188.948 100.818 197.571C75.6186 205.572 52.1757 225.242 47.7313 229.104C47.2941 229.483 46.7344 229.692 46.1555 229.691ZM132.813 182.281C130.145 182.383 108.076 183.681 79.0787 198.832C66.2779 205.52 56.8451 211.396 51.044 216.296C46.4512 220.175 45.4117 222.37 44.9122 223.424C44.8686 223.52 44.8288 223.6 44.791 223.676C43.5303 226.226 44.7454 227.32 45.7666 227.922C45.9016 228.002 46.0585 228.038 46.2152 228.025C46.3719 228.011 46.5203 227.949 46.6394 227.846C51.1264 223.947 74.803 204.084 100.313 195.985C124.014 188.459 131.739 188.529 133.727 188.785C134.191 188.237 135.077 186.989 134.972 185.554C134.888 184.391 134.162 183.29 132.813 182.281Z" fill="#121216"/>
<path d="M50.7036 217.492C51.4794 218.182 51.9052 219.076 52.3891 219.96C52.5442 220.25 52.6955 220.541 52.8497 220.86C52.8685 220.895 52.876 220.936 52.8711 220.975C52.8662 221.015 52.8492 221.052 52.8223 221.082C52.7955 221.111 52.7601 221.132 52.7211 221.14C52.6821 221.149 52.6413 221.146 52.6044 221.13C51.5735 220.71 50.8763 219.727 50.5145 218.709C50.435 218.476 50.0937 217.16 50.7036 217.488V217.492Z" fill="#121216"/>
<path d="M45.8995 223.046C46.5618 223.56 46.9196 224.25 47.2911 224.971C47.4166 225.224 47.522 225.486 47.6062 225.755C47.6314 226.373 46.7548 225.7 46.5676 225.535C45.9082 224.934 45.4039 224.093 45.5474 223.161C45.555 223.124 45.5722 223.09 45.5972 223.062C45.6222 223.034 45.6542 223.013 45.69 223.002C45.7257 222.99 45.7639 222.988 45.8007 222.996C45.8375 223.003 45.8716 223.021 45.8995 223.046Z" fill="#121216"/>
<path d="M58.2251 211.881C59.126 212.618 59.6845 213.602 60.2615 214.581C60.4497 214.903 60.633 215.227 60.8075 215.583C60.8258 215.619 60.8325 215.66 60.8267 215.699C60.8209 215.739 60.8028 215.776 60.775 215.805C60.7472 215.834 60.711 215.854 60.6715 215.862C60.632 215.869 60.591 215.864 60.5544 215.848C59.4596 215.317 58.6847 214.298 58.1921 213.218C58.0951 212.991 57.5598 211.585 58.2231 211.881H58.2251Z" fill="#121216"/>
<path d="M70.8261 203.602C71.8278 204.59 72.3408 205.885 72.7501 207.206C72.6977 208.141 71.118 206.117 71.0258 205.804C70.6767 205.162 70.4324 204.488 70.4799 203.733C70.4837 203.695 70.4981 203.658 70.5215 203.628C70.5449 203.597 70.5764 203.574 70.6124 203.56C70.6484 203.547 70.6874 203.543 70.7252 203.551C70.763 203.558 70.7979 203.576 70.8261 203.602Z" fill="#121216"/>
<path d="M82.3448 197.105C83.1449 198.192 83.5939 199.571 84.0904 200.805C84.2553 201.223 84.4153 201.637 84.616 202.041C84.6377 202.086 84.6409 202.139 84.6248 202.186C84.6086 202.234 84.5745 202.274 84.5297 202.297C84.5014 202.31 84.4702 202.317 84.4388 202.316C84.4074 202.315 84.3767 202.306 84.3493 202.291C83.8955 202.03 83.5735 201.637 83.2884 201.243C82.7428 200.455 82.3497 199.572 82.1296 198.64C82.0704 198.386 81.7164 196.606 82.3448 197.105Z" fill="#121216"/>
<path d="M97.0919 191.211C98.3187 192.69 98.9015 194.522 99.5357 196.302C99.5489 196.341 99.5494 196.383 99.537 196.422C99.5247 196.462 99.5002 196.496 99.467 196.52C99.4339 196.545 99.3938 196.558 99.3526 196.558C99.3114 196.558 99.2713 196.545 99.238 196.521C98.4622 195.872 97.9773 195.009 97.537 194.131C97.1181 193.249 96.7961 192.34 96.7477 191.346C96.745 191.305 96.7554 191.264 96.7775 191.229C96.7996 191.195 96.8321 191.168 96.8705 191.153C96.9088 191.138 96.951 191.135 96.9908 191.146C97.0306 191.156 97.066 191.179 97.0919 191.211Z" fill="#121216"/>
<path d="M115.756 185.165C116.871 186.792 117.342 188.685 117.889 190.554C117.896 190.578 117.899 190.604 117.896 190.629C117.893 190.654 117.885 190.679 117.873 190.701C117.86 190.724 117.844 190.743 117.824 190.759C117.804 190.775 117.781 190.787 117.756 190.794C117.725 190.802 117.692 190.803 117.66 190.795C117.628 190.787 117.599 190.771 117.575 190.749C116.838 190.033 116.38 189.115 116 188.186C115.62 187.257 115.372 186.294 115.396 185.271C115.397 185.23 115.41 185.19 115.435 185.157C115.46 185.124 115.495 185.1 115.535 185.088C115.574 185.076 115.617 185.077 115.656 185.091C115.695 185.105 115.728 185.131 115.751 185.165H115.756Z" fill="#121216"/>
<path d="M58.3686 197.271C58.3686 197.271 64.3403 213.982 85.5644 229.168C106.789 244.355 127.76 245.998 127.76 245.998C127.76 245.998 130.536 250.233 125.602 252.479C125.602 252.479 100.664 250.628 78.6927 232.811C56.7219 214.994 51.4804 197.424 51.4804 197.424C51.4804 197.424 56.3117 196.075 58.3686 197.271Z" fill="#DDA379"/>
<g opacity="0.25">
<path d="M125.602 249.251C125.602 249.251 100.664 247.4 78.6927 229.584C62.1545 216.17 55.0957 202.899 52.6141 197.156C51.9294 197.297 51.4785 197.423 51.4785 197.423C51.4785 197.423 56.7229 214.993 78.6927 232.811C100.663 250.63 125.602 252.479 125.602 252.479C129.093 250.89 128.724 248.307 128.21 246.931C127.823 247.769 127.043 248.596 125.602 249.251Z" fill="#121216"/>
</g>
<path d="M125.602 253.309C125.581 253.309 125.56 253.309 125.54 253.309C125.288 253.29 100.087 251.233 78.1681 233.456C56.2487 215.679 50.8995 198.387 50.6823 197.658C50.651 197.552 50.641 197.441 50.653 197.332C50.6649 197.222 50.6986 197.116 50.7521 197.02C50.8055 196.923 50.8776 196.839 50.9642 196.77C51.0508 196.702 51.1501 196.651 51.2564 196.622C51.7859 196.475 56.4931 195.218 58.7865 196.551C58.9564 196.65 59.0859 196.805 59.1521 196.99C59.2113 197.154 65.3111 213.652 86.0493 228.491C106.822 243.355 127.618 245.148 127.826 245.168C127.953 245.178 128.076 245.217 128.185 245.282C128.294 245.347 128.387 245.436 128.457 245.542C128.514 245.628 129.838 247.684 129.195 249.9C128.784 251.319 127.691 252.441 125.947 253.234C125.839 253.283 125.721 253.309 125.602 253.309ZM52.5646 198.012C53.9222 201.674 60.3983 216.903 79.2183 232.166C99.653 248.738 122.98 251.392 125.451 251.631C126.614 251.063 127.334 250.33 127.593 249.45C127.905 248.384 127.496 247.308 127.242 246.782C124.041 246.429 104.533 243.765 85.0796 229.845C65.2422 215.65 58.6673 200.339 57.7053 197.872C56.5222 197.395 54.2355 197.648 52.5646 198.011V198.012Z" fill="#121216"/>
<path d="M118.422 250.63C119.384 248.913 120.014 247.108 120.214 245.15C120.225 245.112 120.247 245.078 120.277 245.053C120.308 245.028 120.345 245.012 120.385 245.009C120.425 245.006 120.464 245.015 120.498 245.035C120.533 245.055 120.56 245.085 120.576 245.121C120.774 245.629 120.878 246.169 120.885 246.714C120.901 247.267 120.824 247.82 120.659 248.349C120.502 248.882 120.252 249.384 119.919 249.83C119.76 250.073 118.658 251.258 118.408 250.822C118.394 250.791 118.388 250.757 118.39 250.723C118.392 250.689 118.403 250.657 118.422 250.628V250.63Z" fill="#121216"/>
<path d="M105.861 246.182C106.368 244.871 107.142 243.747 107.755 242.502C107.949 242.095 108.131 241.682 108.315 241.238C108.332 241.201 108.36 241.171 108.395 241.151C108.431 241.131 108.471 241.123 108.511 241.127C108.552 241.132 108.589 241.149 108.619 241.175C108.65 241.202 108.671 241.238 108.68 241.277C108.909 242.787 108.213 244.307 107.273 245.451C107.12 245.645 105.798 247.018 105.861 246.185V246.182Z" fill="#121216"/>
<path d="M93.4136 240.05C94.1817 238.668 95.1311 237.426 95.7149 235.946C96.2511 235.381 96.1668 237.058 96.0708 237.332C95.9827 237.774 95.8236 238.199 95.5995 238.591C95.3841 238.982 95.1086 239.337 94.7829 239.643C94.589 239.821 93.563 240.652 93.3933 240.217C93.3847 240.189 93.382 240.16 93.3855 240.131C93.3891 240.103 93.3986 240.075 93.4136 240.05Z" fill="#121216"/>
<path d="M79.6188 231.633C80.2909 230.5 81.28 229.493 82.1005 228.474L82.9306 227.416C82.9559 227.384 82.9909 227.36 83.0307 227.348C83.0705 227.337 83.1128 227.339 83.1516 227.353C83.1904 227.368 83.2235 227.394 83.2462 227.428C83.2689 227.463 83.28 227.504 83.2777 227.545C83.1187 228.998 82.2042 230.286 81.1035 231.2C80.9174 231.364 79.4123 232.426 79.6188 231.633Z" fill="#121216"/>
<path d="M68.7459 222.702C69.2415 220.819 70.9017 219.072 72.8373 218.684C72.8774 218.68 72.9179 218.688 72.953 218.708C72.9882 218.728 73.0163 218.758 73.0335 218.794C73.0507 218.831 73.056 218.872 73.0489 218.911C73.0417 218.951 73.0223 218.987 72.9935 219.015C71.9267 219.916 71.0598 220.92 70.1065 221.926C69.7782 222.272 69.4277 222.595 69.0572 222.895C69.0259 222.92 68.9874 222.935 68.9471 222.938C68.9068 222.94 68.8667 222.93 68.8324 222.909C68.7981 222.888 68.7714 222.856 68.7559 222.819C68.7404 222.782 68.7369 222.74 68.7459 222.701V222.702Z" fill="#121216"/>
<path d="M59.8756 213.079C60.5292 211.582 62.1128 210.277 63.7478 210.048C63.7889 210.045 63.83 210.055 63.865 210.077C63.9 210.098 63.9271 210.131 63.9425 210.169C63.9578 210.207 63.9606 210.249 63.9503 210.289C63.9401 210.329 63.9174 210.365 63.8855 210.391L63.0127 211.186C62.7761 211.416 59.765 214.17 59.8785 213.079H59.8756Z" fill="#121216"/>
<path d="M54.6399 204.082C55.1073 202.989 56.0858 202.257 57.1457 201.79C57.3746 201.686 58.8069 201.22 58.4413 201.865C58.1737 202.148 54.5206 205.246 54.6399 204.082Z" fill="#121216"/>
<g opacity="0.25">
<path d="M49.4817 195.86C49.4817 195.86 56.464 201.229 72.911 200.921C89.3581 200.613 107.039 195.258 113.595 189.414C113.595 189.414 96.9881 195.347 76.7532 196.44C56.5183 197.532 49.4817 195.86 49.4817 195.86Z" fill="#121216"/>
</g>
<path d="M124.408 128.303C124.408 128.303 128.569 132.382 140.506 133.823C152.443 135.264 157.93 129.825 158.821 128.252C159.712 126.679 158.813 120.989 157.016 120.453C155.219 119.918 149.583 124.089 144.297 124.617C139.011 125.146 126.711 118.992 126.711 118.992" fill="#2B3582"/>
<g opacity="0.25">
<path d="M140.301 129.722C152.237 131.163 157.721 125.723 158.617 124.151C158.719 123.96 158.792 123.756 158.835 123.544C159.263 125.34 159.307 127.401 158.821 128.252C157.926 129.825 152.442 135.264 140.505 133.823C128.568 132.382 124.407 128.303 124.407 128.303L126.975 127.64C127.615 127.252 127.858 126.46 127.858 126.46C130.396 127.651 134.397 129.009 140.301 129.722Z" fill="#121216"/>
</g>
<path d="M144.328 134.892C143.017 134.889 141.707 134.808 140.405 134.649C128.327 133.191 124.004 129.07 123.822 128.896C123.664 128.742 123.574 128.531 123.572 128.311C123.57 128.091 123.655 127.878 123.809 127.721C123.964 127.563 124.174 127.473 124.395 127.471C124.616 127.468 124.828 127.553 124.986 127.708C125.056 127.773 129.207 131.623 140.599 132.998C151.905 134.363 157.273 129.277 158.092 127.841C158.525 127.08 158.382 124.355 157.636 122.497C157.278 121.609 156.925 121.295 156.773 121.25C156.247 121.094 154.371 121.95 152.863 122.638C150.416 123.755 147.372 125.144 144.373 125.446C144.125 125.471 143.875 125.482 143.626 125.481C137.884 125.481 126.821 119.982 126.332 119.737C126.135 119.638 125.985 119.465 125.915 119.256C125.845 119.046 125.862 118.818 125.961 118.621C126.059 118.424 126.233 118.274 126.442 118.204C126.652 118.135 126.88 118.151 127.078 118.25C127.199 118.31 139.224 124.294 144.208 123.792C146.931 123.52 149.833 122.194 152.17 121.129C154.466 120.082 156.124 119.324 157.248 119.659C158.03 119.892 158.681 120.639 159.18 121.88C160.006 123.931 160.335 127.269 159.538 128.666C158.53 130.444 153.733 134.892 144.328 134.892Z" fill="#121216"/>
<path d="M128.707 122.509C128.707 122.509 130.97 115.666 138.487 111.353C146.004 107.04 148.441 93.5342 147.595 91.6604C146.749 89.7865 140.928 85.8499 136.514 87.0652C136.514 87.0652 137.266 99.1617 131.444 103.382C125.621 107.602 120.55 110.322 119.613 118.011C119.612 118.011 121.37 122.887 128.707 122.509Z" fill="#2B3582"/>
<g opacity="0.25">
<path d="M126.036 121.029C126.036 121.029 126.686 116.346 130.658 112.514C134.63 108.682 138.738 108.749 141.498 104.244C144.258 99.7389 145.268 90.3956 145.268 90.3956C145.268 90.3956 147.342 90.6494 147.685 91.9683C148.028 93.2873 147.046 99.4784 144.406 104.686C141.767 109.893 136.894 112.357 136.894 112.357C136.894 112.357 133.494 114.609 131.318 117.78C129.143 120.952 128.707 122.509 128.707 122.509C128.707 122.509 126.059 122.151 126.036 121.029Z" fill="#121216"/>
</g>
<path d="M127.901 123.364C120.74 123.364 118.906 118.507 118.828 118.292C118.784 118.17 118.77 118.039 118.785 117.91C119.666 110.696 124.03 107.614 129.082 104.043C129.694 103.612 130.32 103.172 130.955 102.709C136.336 98.8092 135.691 87.2328 135.683 87.1175C135.672 86.9274 135.726 86.7391 135.837 86.5841C135.948 86.429 136.109 86.3165 136.292 86.2653C141.226 84.9028 147.38 89.158 148.354 91.3204C149.365 93.5623 146.763 107.562 138.901 112.075C131.775 116.168 129.519 122.711 129.494 122.776C129.442 122.935 129.342 123.074 129.209 123.175C129.076 123.277 128.915 123.335 128.748 123.344C128.459 123.357 128.176 123.364 127.901 123.364ZM120.464 117.894C120.82 118.654 122.583 121.701 127.911 121.701H128.123C128.844 119.936 131.53 114.389 138.07 110.634C145.149 106.567 147.516 93.5352 146.835 92.0032C146.19 90.5728 141.307 87.1388 137.372 87.7334C137.438 90.4789 137.275 100.183 131.93 104.057C131.29 104.521 130.659 104.966 130.042 105.403C125.174 108.841 121.317 111.566 120.466 117.894H120.464Z" fill="#121216"/>
<path d="M50.3972 197.241C50.3972 197.241 81.9841 200.699 108.212 192.414C134.44 184.129 140.253 171.917 131.667 157.91C131.667 157.91 132.985 125.97 112.665 109.035C92.3459 92.0991 43.3946 92.3392 27.5943 126.904C21.1406 142.312 24.8945 167.831 24.8945 167.831C24.8945 167.831 13.2914 191.719 50.3972 197.241Z" fill="#3F414A"/>
<g opacity="0.4">
<path d="M133.897 162.287C133.826 162.168 133.756 162.048 133.683 161.929C133.683 161.929 133.683 161.875 133.683 161.78C133.76 161.95 133.829 162.117 133.897 162.287Z" fill="white"/>
</g>
<g opacity="0.4">
<path d="M26.0815 185.592C23.1723 181.355 22.9056 176.857 23.3507 173.447C22.9735 176.972 23.2974 181.505 26.0815 185.592Z" fill="white"/>
</g>
<g opacity="0.4">
<path d="M23.8123 150.124C23.7211 159.851 24.8945 167.831 24.8945 167.831C24.8945 167.831 23.7842 170.122 23.3507 173.448C23.7308 169.884 24.8286 167.347 24.8286 167.347C24.8286 167.347 23.4797 159.662 23.8123 150.124Z" fill="white"/>
</g>
<g opacity="0.4">
<path d="M112.665 109.035C118.474 113.877 122.512 119.944 125.321 126.141C122.684 121.378 119.226 116.844 114.681 113.053C103.58 103.799 83.9285 99.674 65.8056 103.474C65.8321 103.512 65.8545 103.553 65.8726 103.596C66.405 104.923 62.0255 107.924 56.0916 110.299C50.7832 112.424 46.0304 113.326 44.7057 112.543C38.1459 117.24 32.9395 123.579 29.6095 130.922C28.407 133.792 25.4735 136.648 24.8975 139.77C24.2487 143.283 23.9306 146.816 23.8123 150.124C23.886 142.455 24.7462 133.697 27.5943 126.904C43.3946 92.3392 92.3469 92.101 112.665 109.035Z" fill="white"/>
</g>
<g opacity="0.25">
<path d="M101.139 186.847C127.367 178.563 133.178 166.35 124.593 152.344C124.593 152.344 125.792 123.285 108.27 105.905C109.809 106.84 111.278 107.886 112.665 109.035C132.985 125.97 131.667 157.91 131.667 157.91C140.253 171.917 134.44 184.13 108.212 192.414C81.9841 200.698 50.3972 197.241 50.3972 197.241C37.6876 195.349 30.6976 191.302 26.9902 186.799C30.9419 188.897 36.2446 190.621 43.3238 191.674C43.3238 191.674 74.9107 195.131 101.139 186.847Z" fill="#121216"/>
</g>
<path d="M100.818 129.501C103.326 129.755 105.686 130.811 107.545 132.511C109.405 134.212 110.665 136.466 111.139 138.939C112.639 146.687 114.619 161.767 108.811 167.462C100.839 175.274 77.3603 173.556 60.7765 174.574C44.1927 175.592 33.0415 177.263 29.6231 165.01C26.2047 152.757 29.2837 137.95 30.7305 136.7C32.1774 135.45 49.9075 134.154 67.8334 132.566C79.7963 131.506 92.2771 128.656 100.818 129.501Z" fill="#EDBC9A"/>
<path d="M66.4302 198.769C56.9479 198.769 50.4496 198.083 50.307 198.068H50.275C36.8274 196.066 28.1044 191.448 24.3486 184.342C20.3726 176.82 23.3885 169.171 24.0363 167.709C23.6426 164.886 20.6208 141.393 26.8253 126.582C33.2752 112.473 45.9703 102.639 62.5841 98.8683C71.6348 96.8133 81.3004 96.6651 90.5325 98.4383C99.5144 100.164 107.564 103.7 113.199 108.396C123.877 117.295 128.555 130.302 130.599 139.646C132.615 148.858 132.544 156.225 132.506 157.691C136.224 163.849 137.133 169.573 135.212 174.708C132.383 182.27 123.381 188.494 108.463 193.204C94.1041 197.742 78.0333 198.769 66.4302 198.769ZM50.5029 196.416C51.3466 196.506 82.4311 199.686 107.961 191.622C122.368 187.07 131.012 181.184 133.653 174.126C135.408 169.436 134.5 164.126 130.957 158.34C130.871 158.2 130.829 158.036 130.836 157.872C130.836 157.793 131.133 149.843 128.963 139.956C126.972 130.88 122.436 118.264 112.132 109.671C100.835 100.255 80.6148 96.4792 62.9536 100.486C46.8556 104.14 34.5688 113.644 28.3508 127.247C22.0726 142.238 25.681 167.454 25.7179 167.707C25.7427 167.872 25.7167 168.041 25.6432 168.191C25.6063 168.27 21.8902 176.146 25.8304 183.578C29.3283 190.179 37.6294 194.498 50.5029 196.416Z" fill="#121216"/>
<path d="M46.9788 176.099C37.7991 176.099 31.3134 174.182 28.8172 165.233C25.3581 152.83 28.3071 137.692 30.1817 136.072C31.4617 134.966 39.4593 134.179 58.7827 132.518C61.7172 132.265 64.7331 132.005 67.7558 131.738C71.9617 131.365 76.247 130.77 80.3918 130.189C88.047 129.123 95.2775 128.116 100.899 128.672C106.363 129.213 110.909 133.37 111.954 138.779C113.58 147.18 115.408 162.155 109.388 168.054C102.988 174.328 87.6659 174.664 72.8519 174.99C68.585 175.087 64.5595 175.172 60.8269 175.402C59.669 175.472 58.5376 175.545 57.4328 175.62C53.6595 175.869 50.1577 176.099 46.9788 176.099ZM31.2687 137.333C30.1603 138.553 27.0619 152.746 30.4212 164.787C33.4187 175.537 42.931 174.909 57.3213 173.963C58.4274 173.891 59.5611 173.818 60.7222 173.744C64.4926 173.513 68.5355 173.424 72.817 173.329C86.6331 173.026 102.293 172.682 108.225 166.869C113.893 161.314 111.575 145.597 110.321 139.096C109.414 134.404 105.473 130.798 100.735 130.328C95.3114 129.793 88.176 130.785 80.6216 131.838C76.4575 132.419 72.1508 133.017 67.9032 133.394C64.8795 133.662 61.8616 133.922 58.9262 134.174C46.6229 135.232 32.6827 136.431 31.2687 137.333Z" fill="#121216"/>
<g opacity="0.25">
<path d="M22.2655 138.375C22.2655 138.375 81.0192 141.153 126.371 129.471C126.371 129.471 128.635 128.938 128.529 125.652C128.778 126.077 128.971 126.533 129.105 127.007C130.69 132.509 127.369 133.286 127.369 133.286C82.0171 144.967 23.2634 142.187 23.2634 142.187C22.5594 140.776 22.2607 139.469 22.2287 138.294C22.2413 138.322 22.252 138.348 22.2655 138.375Z" fill="#121216"/>
</g>
<path d="M22.8697 139.069C22.8697 139.069 81.6233 141.848 126.975 130.166C126.975 130.166 130.296 129.392 128.711 123.888C127.125 118.385 120.031 120.08 120.031 120.08C120.031 120.08 81.3537 126.994 67.2651 128.099C53.1765 129.204 27.4615 128.835 25.619 129.067C23.7764 129.3 20.007 133.332 22.8697 139.069Z" fill="#2B3582"/>
<g opacity="0.25">
<path d="M21.8728 135.255C21.8728 135.255 80.6264 138.035 125.978 126.353C125.978 126.353 128.242 125.819 128.137 122.532C128.385 122.958 128.578 123.414 128.712 123.888C130.297 129.39 126.976 130.166 126.976 130.166C81.6233 141.847 22.8697 139.069 22.8697 139.069C22.1637 137.658 21.8641 136.351 21.835 135.177C21.8485 135.203 21.8592 135.229 21.8728 135.255Z" fill="#121216"/>
</g>
<path d="M38.4081 140.173C28.9539 140.173 23.0161 139.908 22.8309 139.899C22.6829 139.892 22.5394 139.846 22.4153 139.765C22.2911 139.684 22.1909 139.571 22.1249 139.439C20.1999 135.583 21.1707 132.66 21.9203 131.262C22.8028 129.615 24.2477 128.4 25.5142 128.241C26.1203 128.165 28.5059 128.15 33.4119 128.129C42.4597 128.089 57.6005 128.022 67.2001 127.269C80.9474 126.191 118.726 119.467 119.858 119.265C122.588 118.622 128.084 118.716 129.508 123.657C130.187 126.004 130.119 127.891 129.314 129.265C128.509 130.639 127.3 130.943 127.164 130.975C96.3568 138.911 59.0251 140.173 38.4081 140.173ZM23.4079 138.258C29.2264 138.488 84.2601 140.31 126.767 129.361C126.8 129.352 127.46 129.167 127.9 128.387C128.437 127.434 128.442 125.958 127.911 124.117C126.561 119.432 120.482 120.824 120.224 120.888L120.178 120.898C119.79 120.966 81.2985 127.831 67.3262 128.927C57.6665 129.684 42.4859 129.751 33.4158 129.792C29.4136 129.809 26.2522 129.824 25.7188 129.888C25.1855 129.953 24.1226 130.663 23.3837 132.045C22.8173 133.11 22.0949 135.292 23.4079 138.258Z" fill="#121216"/>
<path d="M85.9475 168.896C88.2392 168.758 90.3822 167.717 91.9051 166.001C93.428 164.286 94.2061 162.036 94.0682 159.748L93.7443 154.37L89.7926 154.307C85.1244 154.232 80.5497 152.988 76.4875 150.69L76.4448 150.666L76.7862 160.78C76.8537 161.914 77.1443 163.023 77.6413 164.045C78.1383 165.066 78.832 165.98 79.6828 166.734C80.5336 167.487 81.5247 168.066 82.5997 168.437C83.6746 168.808 84.8122 168.964 85.9475 168.896Z" fill="#121216"/>
<path d="M82.0141 162.461C83.8089 162.461 85.2638 160.715 85.2638 158.561C85.2638 156.407 83.8089 154.661 82.0141 154.661C80.2194 154.661 78.7645 156.407 78.7645 158.561C78.7645 160.715 80.2194 162.461 82.0141 162.461Z" fill="white"/>
<g opacity="0.4">
<path d="M90.2621 163.879C90.6177 162.54 90.1262 161.249 89.1644 160.994C88.2026 160.739 87.1346 161.618 86.779 162.956C86.4234 164.294 86.9148 165.586 87.8766 165.841C88.8384 166.096 89.9064 165.217 90.2621 163.879Z" fill="white"/>
</g>
<path d="M46.0537 170.363C45.0873 170.436 44.1159 170.318 43.1951 170.016C42.2743 169.715 41.4221 169.234 40.6871 168.604C39.9521 167.973 39.3488 167.204 38.9115 166.34C38.4742 165.476 38.2115 164.535 38.1385 163.57C38.1385 163.57 38.0018 161.7 37.8476 159.566C37.835 159.399 39.4962 159.032 40.9683 158.238C42.4782 157.422 44.6077 156.526 46.4222 155.521C47.3483 155.009 47.9427 154.106 48.8465 153.922C50.9238 153.497 52.3377 155.612 52.4715 157.333L52.8594 162.458C52.9326 163.423 52.8146 164.394 52.5121 165.314C52.2096 166.233 51.7287 167.085 51.0966 167.819C50.4646 168.553 49.6939 169.155 48.8286 169.592C47.9634 170.029 47.0204 170.291 46.0537 170.363Z" fill="#121216"/>
<path d="M47.3997 163.55C48.8966 163.55 50.1101 162.117 50.1101 160.349C50.1101 158.581 48.8966 157.148 47.3997 157.148C45.9027 157.148 44.6892 158.581 44.6892 160.349C44.6892 162.117 45.9027 163.55 47.3997 163.55Z" fill="white"/>
<g opacity="0.4">
<path d="M43.9011 167.76C44.7112 167.421 44.9622 166.179 44.4616 164.985C43.961 163.791 42.8984 163.098 42.0882 163.437C41.278 163.775 41.0271 165.018 41.5277 166.212C42.0282 167.406 43.0909 168.099 43.9011 167.76Z" fill="white"/>
</g>
<path d="M53.514 151.368C49.5108 155.998 42.3181 160.233 36.1767 160.884C35.7752 160.92 35.6288 160.351 36.0079 160.196C37.5111 159.53 38.9657 158.854 40.3961 158.111C42.8816 156.818 46.3552 154.721 48.7864 153.253C50.1858 152.424 51.5929 151.587 53.0601 150.82C53.3966 150.626 53.7651 151.069 53.514 151.365V151.368Z" fill="#121216"/>
<path d="M76.1161 150.109C79.325 151.562 82.8026 152.409 86.2607 153.066C88.2167 153.404 90.2134 153.637 92.184 153.882C92.986 153.958 93.7909 154.036 94.6084 154.164C94.6958 154.172 94.7772 154.212 94.8376 154.276C94.898 154.34 94.9332 154.423 94.9369 154.511C94.9405 154.599 94.9124 154.685 94.8575 154.753C94.8027 154.822 94.7249 154.868 94.6384 154.884C93.0085 155.2 91.3529 155.365 89.6927 155.378C85.5285 155.36 81.1802 154.611 77.6241 152.321C76.9123 151.845 76.2383 151.344 75.6506 150.657C75.6196 150.621 75.596 150.579 75.5812 150.533C75.5665 150.488 75.5609 150.44 75.5646 150.392C75.5684 150.345 75.5815 150.298 75.6033 150.256C75.625 150.213 75.6549 150.176 75.6913 150.145C75.7504 150.095 75.8235 150.065 75.9004 150.059C75.9774 150.052 76.0544 150.07 76.1209 150.109H76.1161Z" fill="#121216"/>
<path d="M52.5171 233.369C52.5171 233.369 71.4671 230.884 82.0878 235.977C92.7086 241.07 91.6283 255.852 91.4237 257.906C91.2191 259.96 89.7751 260.885 89.7751 260.885C89.7751 260.885 90.5984 261.447 90.7526 262.063C90.9068 262.679 91.1124 263.504 91.1124 263.504C91.1124 263.504 97.7213 261.118 97.6427 250.767C97.5593 239.803 89.8954 231.673 78.9982 228.86C68.1011 226.047 58.9243 226.684 54.6399 228.316C50.3555 229.948 49.8318 234.776 49.8318 234.776C50.6899 234.24 51.5876 233.77 52.5171 233.369Z" fill="#DDA379"/>
<g opacity="0.25">
<path d="M96.6003 244.747C96.6003 244.747 95.4424 246.95 94.3136 246.762C93.1848 246.574 92.1423 239.744 82.8966 234.264C73.651 228.784 57.0662 231.159 54.7737 231.34C52.4812 231.521 50.5349 233.643 50.5349 233.643L51.2312 233.977C51.2312 233.977 52.1825 233.058 58.6353 232.871C65.088 232.684 75.0426 233.105 81.1685 235.565C87.2945 238.024 90.4142 244.297 90.9631 248.771C91.5119 253.245 92.0298 258.302 90.9068 259.593L89.7819 260.885C89.7819 260.885 90.8409 261.249 90.7594 262.063C90.7187 262.57 90.8451 263.076 91.1192 263.504C91.1192 263.504 100.444 259.222 96.6003 244.747Z" fill="#121216"/>
</g>
<path d="M91.1134 264.336C90.9274 264.336 90.7468 264.274 90.6004 264.159C90.454 264.045 90.3502 263.885 90.3056 263.705L89.9458 262.266C89.9021 262.091 89.5705 261.753 89.3038 261.568C89.1912 261.491 89.0995 261.386 89.037 261.265C88.9744 261.143 88.9428 261.008 88.945 260.871C88.9472 260.734 88.9831 260.6 89.0496 260.481C89.1161 260.361 89.211 260.26 89.3261 260.185C89.3639 260.159 90.4326 259.424 90.5916 257.823C90.7565 256.177 91.9018 241.605 81.7252 236.726C71.8589 231.996 54.2733 233.993 52.7294 234.181C51.8833 234.554 51.065 234.987 50.2808 235.477C50.1485 235.561 49.9952 235.606 49.8384 235.607C49.6817 235.608 49.5279 235.565 49.3947 235.482C49.2615 235.4 49.1543 235.281 49.0855 235.141C49.0167 235 48.989 234.843 49.0056 234.687C49.0289 234.47 49.632 229.332 54.3441 227.539C58.9446 225.788 68.4172 225.269 79.2077 228.055C91.0096 231.102 98.3924 239.802 98.4757 250.761C98.5582 261.575 91.6875 264.18 91.3965 264.287C91.3057 264.319 91.2099 264.336 91.1134 264.336ZM91.0077 260.877C91.2661 261.158 91.4554 261.495 91.5604 261.862L91.669 262.296C93.3341 261.288 96.8679 258.261 96.8087 250.772C96.7321 240.603 89.8265 232.513 78.7887 229.66C68.3532 226.966 59.2889 227.433 54.9327 229.088C52.7246 229.927 51.6414 231.723 51.1187 233.091C51.46 232.919 51.8266 232.747 52.1932 232.596C52.2599 232.569 52.33 232.55 52.4017 232.54C53.1852 232.443 71.7202 230.081 82.4418 235.223C93.6405 240.592 92.4206 256.219 92.2451 257.98C92.1482 259.052 91.7144 260.066 91.0057 260.877H91.0077Z" fill="#121216"/>
<path d="M56.2545 228.273C56.6007 229.463 56.2603 230.637 55.8346 231.76C55.8217 231.797 55.7983 231.829 55.7672 231.853C55.7362 231.877 55.6988 231.892 55.6597 231.895C55.6205 231.898 55.5813 231.89 55.5468 231.871C55.5122 231.852 55.4839 231.824 55.4651 231.79C55.0636 230.909 55.1432 229.919 55.4234 229.028C55.5136 228.8 55.9355 227.734 56.2545 228.269V228.273Z" fill="#121216"/>
<path d="M66.1761 227.103C65.8561 228.168 65.2907 229.211 64.9154 230.251C64.7738 230.603 64.6749 230.969 64.5188 231.355C64.5036 231.391 64.4775 231.422 64.4441 231.444C64.4107 231.465 64.3715 231.476 64.3319 231.474C64.2923 231.473 64.2541 231.459 64.2225 231.435C64.1909 231.411 64.1674 231.378 64.1551 231.34C63.6926 229.708 64.4053 227.718 65.9007 226.856C65.9364 226.838 65.9767 226.831 66.0163 226.836C66.0559 226.842 66.093 226.859 66.1227 226.885C66.1524 226.912 66.1734 226.947 66.183 226.986C66.1925 227.024 66.1901 227.065 66.1761 227.103Z" fill="#121216"/>
<path d="M78.6801 229.721C78.3601 230.786 77.7947 231.828 77.4194 232.869C77.2779 233.222 77.1789 233.588 77.0228 233.973C77.0076 234.01 76.9816 234.041 76.9481 234.062C76.9147 234.084 76.8755 234.094 76.8359 234.093C76.7963 234.091 76.7581 234.077 76.7265 234.054C76.6949 234.03 76.6714 233.997 76.6592 233.959C76.1966 232.326 76.9094 230.337 78.4047 229.474C78.4404 229.456 78.4807 229.45 78.5203 229.455C78.5599 229.46 78.597 229.477 78.6267 229.504C78.6565 229.531 78.6775 229.566 78.687 229.604C78.6965 229.643 78.6941 229.684 78.6801 229.721Z" fill="#121216"/>
<path d="M84.6752 237.524C85.3685 236.652 86.2782 235.893 87.0103 235.064C87.2731 234.789 87.501 234.483 87.7861 234.185C87.8138 234.156 87.8496 234.137 87.8886 234.129C87.9276 234.122 87.968 234.126 88.0043 234.143C88.0406 234.159 88.071 234.186 88.0915 234.22C88.112 234.254 88.1215 234.293 88.1188 234.333C87.9432 236.021 86.5439 237.605 84.8371 237.855C84.7974 237.858 84.7575 237.849 84.7227 237.83C84.688 237.81 84.6599 237.781 84.6423 237.745C84.6246 237.709 84.6181 237.669 84.6236 237.63C84.6291 237.59 84.6464 237.553 84.6732 237.524H84.6752Z" fill="#121216"/>
<path d="M92.0531 248.544C93.1198 248.217 94.299 248.109 95.3725 247.841C95.7449 247.764 96.1047 247.647 96.513 247.557C96.5631 247.547 96.6153 247.557 96.6582 247.585C96.7011 247.613 96.7311 247.656 96.7418 247.706C96.7478 247.735 96.7474 247.764 96.7407 247.792C96.734 247.82 96.7211 247.846 96.7031 247.868C96.4302 248.203 96.0941 248.482 95.7139 248.687C94.5929 249.299 93.1741 249.509 91.9997 248.91C91.9654 248.89 91.9378 248.86 91.9205 248.825C91.9032 248.789 91.8971 248.749 91.9028 248.709C91.9085 248.67 91.9259 248.633 91.9527 248.604C91.9794 248.574 92.0144 248.554 92.0531 248.544Z" fill="#121216"/>
<path d="M91.4828 257.541C92.5981 257.594 93.7443 257.892 94.845 258.003C95.2213 258.056 95.6014 258.065 96.0087 258.122C96.0594 258.129 96.1052 258.156 96.1361 258.197C96.167 258.238 96.1805 258.289 96.1736 258.34C96.1697 258.368 96.1595 258.396 96.1438 258.42C96.128 258.444 96.107 258.464 96.0824 258.479C95.7116 258.702 95.3008 258.85 94.8731 258.915C93.6124 259.109 92.2053 258.827 91.3034 257.866C91.2748 257.837 91.2562 257.799 91.2505 257.758C91.2448 257.717 91.2521 257.676 91.2716 257.64C91.291 257.603 91.3215 257.574 91.3586 257.557C91.3957 257.539 91.4375 257.533 91.478 257.541H91.4828Z" fill="#121216"/>
</g>
<defs>
<clipPath id="clip0_195_1412">
<rect width="105" height="105" fill="white"/>
</clipPath>
<clipPath id="clip1_195_1412">
<rect width="45" height="45" fill="white" transform="translate(124 65)"/>
</clipPath>
<clipPath id="clip2_195_1412">
<rect width="139" height="191" fill="white" transform="translate(21 86)"/>
</clipPath>
</defs>
</svg>
