<svg width="166" height="199" viewBox="0 0 166 199" fill="none" xmlns="http://www.w3.org/2000/svg">
<g clip-path="url(#clip0_195_1964)">
<g opacity="0.3">
<path d="M73.7845 199.001C109.525 199.001 138.498 197.14 138.498 194.846C138.498 192.551 109.525 190.691 73.7845 190.691C38.0443 190.691 9.07106 192.551 9.07106 194.846C9.07106 197.14 38.0443 199.001 73.7845 199.001Z" fill="#121216"/>
</g>
<path d="M9.4579 134.035L2.69218 135.259C2.69218 135.259 0.101941 141.645 1.17228 149.623C2.31384 158.128 6.51677 161.495 6.51677 161.495L12.2958 160.698" fill="#AAA8B5"/>
<path d="M134.243 111.467L15.9381 125.096C10.6805 125.702 7.53417 135.918 8.91097 147.914C10.2878 159.911 15.6656 169.145 20.9232 168.538L139.228 154.909" fill="#4376BB"/>
<path d="M128.473 112.012C128.473 112.012 118.268 135.174 132.015 155.505L123.378 156.724C123.378 156.724 110.175 142.036 119.859 113.228L128.473 112.012Z" fill="#616173"/>
<path d="M17.6109 124.749C17.6109 124.749 10.7635 147.721 22.068 168.812L28.0744 167.718C28.0744 167.718 18.6747 146.299 23.3043 124.244L17.6109 124.749Z" fill="#616173"/>
<path d="M140.818 154.725C145.199 154.22 147.635 144.085 146.258 132.089C144.881 120.092 140.213 110.776 135.832 111.281C131.45 111.786 129.014 121.92 130.391 133.917C131.768 145.914 136.436 155.229 140.818 154.725Z" fill="white"/>
<g opacity="0.3">
<path d="M0.849476 148.126C0.849476 148.126 2.53927 150.619 4.78449 151.424C7.02972 152.23 9.45725 151.528 9.45725 151.528C9.45725 151.528 10.1238 154.452 10.7151 156.569C11.3065 158.686 11.5489 158.944 11.5489 158.944L5.1942 160.072C5.1942 160.072 0.790666 154.4 0.849476 148.126Z" fill="#121216"/>
</g>
<g opacity="0.3">
<path d="M8.58882 142.236C8.58882 142.236 14.4044 150.986 27.9718 152.346C41.5392 153.706 127.084 142.671 127.084 142.671C127.084 142.671 125.21 120.721 132.283 114.191C132.283 114.191 128.737 122.016 130.496 134.793C132.255 147.569 137.015 152.856 137.015 152.856L16.368 166.708C16.368 166.708 14.0339 164.082 13.2831 162.64C12.5323 161.197 10.9451 158.091 9.7245 152.658C8.50388 147.225 8.58882 142.236 8.58882 142.236Z" fill="#121216"/>
</g>
<g opacity="0.4">
<path d="M2.07925 138.352L8.70056 137.155L8.93449 135.27L8.75218 134.385L2.99145 135.204C2.99145 135.204 1.86426 136.712 2.07925 138.352Z" fill="white"/>
</g>
<g opacity="0.4">
<path d="M9.156 138.509C9.156 138.509 13.2727 128.65 15.893 127.491C17.2835 127.144 132.283 114.193 132.283 114.193L133.661 112.452L133.47 111.45L17.3358 124.937C17.3358 124.937 14.1993 125.031 12.2991 127.067C10.3988 129.102 9.23115 135.103 9.23115 135.103C9.23115 135.103 8.53916 137.982 9.156 138.509Z" fill="white"/>
</g>
<path d="M140.471 155.66C135.591 155.66 130.921 146.541 129.484 134.024C128.806 128.118 129.012 122.456 130.064 118.079C131.188 113.404 133.201 110.669 135.725 110.378C140.762 109.789 145.679 119.086 147.161 131.988C148.642 144.89 145.958 155.053 140.92 155.634C140.771 155.652 140.621 155.66 140.471 155.66ZM131.294 133.816C132.701 146.082 137.392 154.205 140.711 153.821C144.029 153.438 146.758 144.463 145.35 132.196C143.942 119.929 139.252 111.805 135.933 112.191C134.246 112.387 132.752 114.687 131.835 118.506C130.832 122.68 130.639 128.118 131.293 133.816H131.294Z" fill="#121216"/>
<path d="M150.199 144.374C152.786 144.232 154.562 138.252 154.166 131.017C153.77 123.782 151.352 118.033 148.765 118.175C146.178 118.317 144.402 124.297 144.798 131.532C145.194 138.766 147.612 144.516 150.199 144.374Z" fill="#AAA8B5"/>
<path d="M148.764 118.176L139.59 118.937C139.59 118.937 131.4 129.335 141.196 144.915L150.199 144.376" fill="#AAA8B5"/>
<g opacity="0.3">
<path d="M130.435 122.428C130.435 122.428 132.998 136.146 138.496 139.763C138.496 139.763 136.862 134.57 136.797 134.212C136.732 133.854 136.548 132.615 136.548 132.615C136.548 132.615 141.331 134.891 145.515 135.127L144.92 133.152L144.753 130.462C144.753 130.462 147.459 138.176 150.036 139.069C152.614 139.961 154.139 135.318 154.139 135.318C154.139 135.318 153.378 140.813 152.257 142.81C151.136 144.808 147.965 144.509 147.465 144.538C146.965 144.567 146.224 144.892 146.224 144.892C146.224 144.892 144.71 152.001 142.922 153.62C141.133 155.239 137.334 154.712 134.75 149.293C132.166 143.875 128.693 131.708 130.435 122.428Z" fill="#121216"/>
</g>
<path d="M20.4357 169.48C14.8004 169.48 9.41281 160.279 8.00595 148.018C6.55009 135.33 9.98849 124.863 15.8342 124.187L134.139 110.558C134.379 110.53 134.62 110.599 134.809 110.749C134.998 110.9 135.12 111.12 135.148 111.36C135.175 111.601 135.106 111.842 134.956 112.032C134.806 112.221 134.587 112.343 134.347 112.371L16.042 126.002C11.3725 126.54 8.52087 136.528 9.81598 147.81C11.0739 158.774 15.8682 167.655 20.4226 167.655C20.5552 167.656 20.6876 167.648 20.8193 167.632L139.124 154.004C139.361 153.982 139.597 154.054 139.782 154.204C139.967 154.354 140.086 154.571 140.113 154.808C140.14 155.045 140.074 155.283 139.928 155.472C139.782 155.66 139.568 155.784 139.332 155.817L21.0277 169.446C20.8312 169.469 20.6335 169.48 20.4357 169.48Z" fill="#121216"/>
<path d="M6.51676 162.407C6.31011 162.407 6.1096 162.337 5.94826 162.208C5.76465 162.061 1.44606 158.512 0.269867 149.745C-0.820725 141.62 1.7388 135.185 1.84858 134.915C1.9063 134.772 1.99914 134.647 2.11843 134.55C2.23772 134.453 2.37958 134.388 2.53077 134.36L9.29584 133.137C9.53352 133.094 9.77869 133.147 9.97739 133.285C10.1761 133.422 10.3121 133.634 10.3554 133.872C10.3987 134.11 10.3459 134.355 10.2084 134.555C10.071 134.754 9.86024 134.89 9.62256 134.933L3.36848 136.063C2.82743 137.64 1.21213 143.069 2.07532 149.501C2.98099 156.252 5.90971 159.629 6.81799 160.532L12.1716 159.794C12.2917 159.774 12.4144 159.778 12.5327 159.807C12.651 159.835 12.7623 159.887 12.8602 159.96C12.9582 160.032 13.0406 160.123 13.1027 160.228C13.1649 160.333 13.2054 160.449 13.222 160.57C13.2386 160.69 13.2309 160.813 13.1993 160.931C13.1677 161.049 13.113 161.159 13.0382 161.255C12.9634 161.351 12.8702 161.431 12.764 161.491C12.6578 161.55 12.5408 161.588 12.4199 161.601L6.64091 162.399C6.59978 162.404 6.55829 162.407 6.51676 162.407Z" fill="#121216"/>
<g opacity="0.4">
<path d="M138.806 121.238L145.827 120.606C145.827 120.606 145.067 122.795 145.043 125.108C145.019 127.421 145.181 128.557 145.181 128.557C145.181 128.557 147.734 121.089 148.971 120.676C150.208 120.262 153.264 125.525 153.264 125.525C153.264 125.525 152.324 119.452 150.006 118.554C147.687 117.657 139.587 118.768 139.587 118.768C139.587 118.768 138.002 120.653 138.806 121.238Z" fill="white"/>
</g>
<path d="M150.101 145.29C148.93 145.29 147.291 144.525 145.837 141.075C144.777 138.555 144.085 135.182 143.888 131.581C143.516 124.789 145.081 117.463 148.715 117.263C149.891 117.187 151.613 117.877 153.126 121.474C154.186 123.994 154.878 127.367 155.075 130.968C155.447 137.76 153.881 145.086 150.248 145.286C150.2 145.289 150.151 145.29 150.101 145.29ZM145.707 131.482C145.892 134.88 146.535 138.034 147.515 140.365C148.496 142.697 149.527 143.494 150.149 143.464C151.725 143.377 153.67 138.619 153.256 131.068C153.07 127.671 152.427 124.516 151.447 122.185C150.467 119.853 149.437 119.06 148.814 119.087C147.238 119.174 145.294 123.931 145.707 131.482Z" fill="#121216"/>
<path d="M141.195 145.826C141.042 145.826 140.89 145.787 140.755 145.713C140.621 145.638 140.507 145.531 140.425 145.4C135.209 137.104 135.044 130.227 135.823 125.919C136.677 121.205 138.786 118.484 138.875 118.371C138.952 118.273 139.049 118.191 139.159 118.132C139.269 118.073 139.39 118.037 139.515 118.027L148.689 117.266C148.927 117.251 149.162 117.33 149.342 117.486C149.523 117.642 149.635 117.863 149.655 118.101C149.675 118.34 149.6 118.576 149.448 118.76C149.295 118.944 149.077 119.06 148.839 119.085L140.088 119.813C139.559 120.609 138.202 122.908 137.598 126.348C136.623 131.899 138.035 137.984 141.684 143.973L150.144 143.466C150.385 143.453 150.62 143.536 150.8 143.697C150.979 143.857 151.088 144.083 151.102 144.323C151.116 144.564 151.035 144.8 150.876 144.981C150.717 145.162 150.493 145.272 150.253 145.288L141.25 145.828L141.195 145.826Z" fill="#121216"/>
<path d="M30.2896 175.364C29.5205 167.86 31.0802 142.395 31.0802 142.395C31.0802 142.395 66.5954 153.787 64.0953 161.077C61.5953 168.368 56.3383 178.105 56.3383 178.105C56.3383 178.105 45.2442 177.045 30.2896 175.364Z" fill="#3F414A"/>
<path d="M21.8491 184.455C22.6829 180.775 30.2896 175.364 30.2896 175.364C45.2436 176.735 56.3383 178.105 56.3383 178.105C56.3383 178.105 55.232 179.693 55.2961 184.167C55.3601 188.64 54.8642 190.517 54.8642 190.517H23.7081C23.3879 190.516 21.0159 188.135 21.8491 184.455Z" fill="#EDBC9A"/>
<g opacity="0.4">
<path d="M22.0249 186.764C22.0739 186.8 25.247 182.327 28.196 179.765C31.1449 177.203 32.7968 175.255 32.7968 175.255C32.7968 175.255 32.2342 151.264 33.1961 142.822L31.0802 142.395C31.0802 142.395 29.8204 166.466 30.0766 174.138L30.2197 174.541L30.0766 175.519C30.0766 175.519 25.5783 178.446 23.4677 181.547C21.357 184.648 22.0249 186.764 22.0249 186.764Z" fill="white"/>
</g>
<g opacity="0.3">
<path d="M43.314 154.424C43.314 154.424 48.2611 159.057 49.7993 163.819C51.3375 168.581 48.4853 177.201 48.4853 177.201L50.6919 177.447C50.6919 177.447 51.5074 183.155 50.2894 185.608C49.0714 188.061 41.0308 190.3 38.4909 186.115L38.0609 186.104C38.0609 186.104 37.5539 187.869 35.7909 188.236C34.0279 188.604 32.7968 187.522 32.7968 187.522C32.7968 187.522 31.6265 188.352 30.4712 188.1C29.316 187.849 28.6553 186.587 28.6553 186.587C28.6553 186.587 27.3622 188.172 26.465 187.74C25.9432 187.492 25.4488 187.19 24.9902 186.838C24.9902 186.838 24.638 188.245 23.4219 187.74C22.2059 187.234 22.1078 187.054 22.0432 187.163C21.9785 187.271 22.0758 188.678 22.7169 189.543C23.3579 190.409 23.6781 190.806 23.6781 190.806C23.6781 190.806 55.4751 190.265 55.6032 190.301C55.7313 190.338 55.151 188.248 55.3111 185.074C55.4712 181.899 56.7186 179.104 56.7186 179.104L56.6422 177.533C56.6422 177.533 62.5885 165.479 63.0681 164.361C63.5477 163.243 63.7314 160.918 63.7314 160.918C63.7314 160.918 54.6381 159.166 50.375 157.434C46.112 155.702 43.314 154.424 43.314 154.424Z" fill="#121216"/>
</g>
<path d="M55.3902 191.429H23.7081C23.5304 191.429 23.0586 191.429 22.2706 190.442C21.7746 189.82 20.2155 187.537 20.9591 184.253C21.7596 180.742 27.5752 176.226 29.3356 174.929C28.6821 166.876 30.1086 143.358 30.1713 142.339C30.1797 142.2 30.2196 142.065 30.2881 141.944C30.3565 141.823 30.4515 141.72 30.566 141.641C30.6805 141.563 30.8114 141.512 30.9486 141.492C31.0859 141.472 31.2259 141.483 31.358 141.526C32.5649 141.913 60.951 151.092 64.6743 158.529C65.1696 159.519 65.2624 160.476 64.9566 161.374C62.4611 168.649 57.1924 178.442 57.1394 178.541C57.123 178.572 57.1049 178.601 57.0852 178.629C57.0852 178.629 56.1495 180.13 56.207 184.155C56.2723 188.627 56.3011 190.506 56.3011 190.506C56.3031 190.627 56.281 190.747 56.2361 190.86C56.1912 190.972 56.1244 191.074 56.0396 191.161C55.9548 191.247 55.8537 191.315 55.7422 191.362C55.6307 191.409 55.511 191.433 55.3902 191.433V191.429ZM23.9656 189.604H54.4656C54.4505 188.638 54.4244 186.883 54.3852 184.18C54.3231 179.842 55.3196 178.009 55.5549 177.639C55.8907 177.013 60.8588 167.704 63.2341 160.781C63.3785 160.359 63.3171 159.89 63.0459 159.348C60.3609 153.984 40.6446 146.515 31.9206 143.629C31.6272 148.72 30.5366 168.842 31.1959 175.27C31.2119 175.431 31.1853 175.593 31.1188 175.74C31.0522 175.887 30.9481 176.014 30.8169 176.108C28.7801 177.559 23.3572 181.921 22.7397 184.657C22.1314 187.332 23.5043 189.16 23.9656 189.606V189.604Z" fill="#121216"/>
<path d="M56.3396 179.018C56.3128 179.018 56.2854 179.018 56.258 179.015C56.1031 179.001 40.6264 177.623 30.1733 176.269C29.9348 176.237 29.7187 176.111 29.5723 175.92C29.4259 175.728 29.361 175.487 29.3918 175.248C29.4226 175.008 29.5467 174.791 29.7368 174.643C29.9269 174.496 30.1677 174.429 30.4065 174.459C40.823 175.809 56.2638 177.183 56.4187 177.197C56.6515 177.218 56.8671 177.329 57.0208 177.505C57.1746 177.682 57.2546 177.911 57.2445 178.145C57.2343 178.379 57.1347 178.6 56.9663 178.763C56.7978 178.925 56.5735 179.017 56.3396 179.018Z" fill="#121216"/>
<path d="M38.4086 191.033C37.1932 189.567 37.2128 187.479 37.5735 185.72C37.6989 185.142 37.9146 184.601 38.3269 184.152C38.3403 184.138 38.3586 184.13 38.3779 184.129C38.3971 184.128 38.4159 184.135 38.4301 184.148C38.7967 185.205 38.5164 186.323 38.7007 187.393C38.817 188.381 39.0679 189.319 39.6083 190.142C40.0657 190.917 39.0078 191.693 38.4086 191.032V191.033Z" fill="#121216"/>
<path d="M32.4368 190.516C32.1271 189.219 31.9944 187.832 32.3394 186.522C32.4577 186.059 32.6877 185.603 33.1373 185.3C33.1474 185.293 33.1589 185.289 33.171 185.288C33.1831 185.286 33.1953 185.288 33.2067 185.292C33.218 185.296 33.2282 185.303 33.2364 185.312C33.2445 185.321 33.2504 185.332 33.2536 185.344C33.3649 185.777 33.409 186.225 33.3843 186.671C33.3843 187.492 33.5293 188.284 33.7064 189.088C33.7973 189.532 33.9528 190.058 33.9554 190.519C33.9756 191.317 32.8589 191.545 32.5603 190.816L32.4374 190.519L32.4368 190.516Z" fill="#121216"/>
<path d="M28.3077 190.752C27.7849 189.217 27.5889 186.05 28.9696 184.939C28.9797 184.931 28.9915 184.926 29.004 184.924C29.0165 184.922 29.0292 184.924 29.0411 184.928C29.053 184.932 29.0635 184.94 29.0718 184.949C29.0801 184.959 29.0859 184.97 29.0886 184.982C29.3362 185.984 29.1297 186.764 29.2754 187.722C29.3791 188.584 29.538 189.439 29.7511 190.28C30.0125 191.233 28.6527 191.674 28.3077 190.752Z" fill="#121216"/>
<path d="M25.3247 190.769C24.8503 189.479 24.1414 186.428 25.1202 185.313C25.1283 185.304 25.1384 185.297 25.1497 185.293C25.161 185.288 25.1732 185.287 25.1853 185.288C25.1974 185.289 25.209 185.293 25.2191 185.3C25.2293 185.307 25.2377 185.316 25.2437 185.326C25.4668 185.722 25.6214 186.153 25.7011 186.6C25.9625 187.79 26.433 189.116 26.7617 190.283C27.0041 191.211 25.6913 191.65 25.3241 190.769H25.3247Z" fill="#121216"/>
<path d="M56.1011 190.516H22.6639C21.966 190.516 21.4002 191.083 21.4002 191.782V193.579C21.4002 194.278 21.966 194.845 22.6639 194.845H56.1011C56.7991 194.845 57.3649 194.278 57.3649 193.579V191.782C57.3649 191.083 56.7991 190.516 56.1011 190.516Z" fill="#4376BB"/>
<g opacity="0.3">
<path d="M22.7796 192.969H48.4853C49.2472 192.969 49.864 192.275 49.864 191.418V190.516H55.9868C56.7487 190.516 57.3662 191.211 57.3662 192.069V193.293C57.3662 194.151 56.7487 194.846 55.9868 194.846H22.7796C22.0177 194.846 21.4002 194.151 21.4002 193.293V192.069C21.4003 191.959 21.411 191.849 21.4322 191.741C21.5635 192.444 22.117 192.969 22.7796 192.969Z" fill="#121216"/>
</g>
<path d="M56.1011 195.76H22.6646C22.0879 195.76 21.5349 195.53 21.1272 195.121C20.7195 194.713 20.4903 194.159 20.4899 193.581V191.785C20.4904 191.207 20.7197 190.653 21.1274 190.245C21.5352 189.836 22.088 189.607 22.6646 189.606H56.1011C56.6778 189.607 57.2308 189.836 57.6385 190.245C58.0462 190.654 58.2754 191.208 58.2758 191.786V193.582C58.2753 194.159 58.046 194.713 57.6383 195.122C57.2305 195.53 56.6777 195.76 56.1011 195.76ZM22.6646 191.431C22.5708 191.431 22.4809 191.468 22.4146 191.535C22.3483 191.601 22.3111 191.691 22.3111 191.785V193.581C22.3111 193.675 22.3483 193.765 22.4146 193.831C22.4809 193.898 22.5708 193.935 22.6646 193.935H56.1011C56.1949 193.935 56.2848 193.898 56.3511 193.831C56.4174 193.765 56.4546 193.675 56.4546 193.581V191.785C56.4546 191.691 56.4174 191.601 56.3511 191.535C56.2848 191.468 56.1949 191.431 56.1011 191.431H22.6646Z" fill="#121216"/>
<path d="M51.4793 190.423C51.4793 190.423 49.7673 186.268 45.337 184.662C40.9067 183.055 39.0869 184.882 38.0185 184.945C36.9501 185.007 30.1328 179.94 23.1592 181.605C23.1592 181.605 23.795 179.661 25.4463 179.239C27.0975 178.816 33.1804 179.749 38.1753 182.582C38.1753 182.582 43.9713 180.709 48.401 183.416C52.8307 186.123 53.9611 190.421 53.9611 190.421L51.4793 190.423Z" fill="#EE343B"/>
<path d="M53.9611 191.032H51.478C51.3578 191.032 51.2403 190.996 51.1404 190.929C51.0405 190.862 50.9626 190.767 50.9167 190.656C50.888 190.59 49.225 186.719 45.1299 185.236C42.0097 184.105 40.3179 184.778 39.1979 185.221C38.7778 185.388 38.4138 185.532 38.0531 185.554C37.6375 185.575 37.1318 185.339 35.9209 184.745C33.2555 183.436 28.294 181.008 23.2997 182.202C23.1946 182.227 23.0847 182.224 22.9813 182.193C22.8778 182.161 22.7847 182.102 22.7114 182.023C22.6381 181.943 22.5874 181.845 22.5645 181.74C22.5415 181.634 22.5472 181.524 22.5809 181.421C22.611 181.328 23.3429 179.154 25.294 178.653C27.2341 178.158 33.3346 179.217 38.2465 181.93C39.4626 181.588 44.5895 180.38 48.7153 182.9C53.3005 185.703 54.4976 190.083 54.5459 190.269C54.5697 190.359 54.5724 190.453 54.554 190.544C54.5355 190.636 54.4964 190.722 54.4395 190.795C54.3827 190.869 54.3097 190.929 54.2262 190.97C54.1427 191.011 54.0509 191.032 53.9578 191.032H53.9611ZM51.8662 189.815H53.0999C52.5627 188.51 51.1467 185.81 48.0847 183.94C43.9413 181.407 38.4138 183.147 38.3622 183.165C38.2823 183.191 38.1978 183.2 38.1142 183.191C38.0306 183.183 37.9497 183.157 37.8767 183.115C33.1066 180.412 27.1328 179.44 25.5966 179.832C25.0235 179.979 24.5942 180.38 24.2897 180.782C29.2402 180.119 33.8704 182.387 36.4528 183.652C37.0893 183.964 37.8107 184.318 38.0087 184.339C38.1465 184.329 38.4256 184.218 38.749 184.09C39.9605 183.609 41.9888 182.804 45.5448 184.09C49.4262 185.498 51.314 188.71 51.8662 189.815Z" fill="#121216"/>
<path d="M114.214 175.364C114.983 167.86 113.424 142.395 113.424 142.395C113.424 142.395 77.9084 153.787 80.4085 161.077C82.9085 168.368 88.1655 178.105 88.1655 178.105C88.1655 178.105 99.2576 177.045 114.214 175.364Z" fill="#3F414A"/>
<path d="M122.655 184.455C121.821 180.775 114.214 175.364 114.214 175.364C99.2602 176.735 88.1655 178.105 88.1655 178.105C88.1655 178.105 89.2717 179.693 89.211 184.167C89.1502 188.64 89.6429 190.517 89.6429 190.517H120.799C121.116 190.516 123.488 188.135 122.655 184.455Z" fill="#EDBC9A"/>
<g opacity="0.4">
<path d="M122.479 186.764C122.43 186.8 119.257 182.327 116.308 179.765C113.359 177.203 111.706 175.255 111.706 175.255C111.706 175.255 112.27 151.264 111.308 142.822L113.424 142.395C113.424 142.395 114.683 166.466 114.427 174.138L114.284 174.541L114.427 175.519C114.427 175.519 118.926 178.446 121.036 181.547C123.147 184.648 122.479 186.764 122.479 186.764Z" fill="white"/>
</g>
<g opacity="0.3">
<path d="M101.19 154.424C101.19 154.424 96.2426 159.057 94.7044 163.819C93.1662 168.581 96.0172 177.201 96.0172 177.201L93.8105 177.447C93.8105 177.447 92.995 183.155 94.213 185.608C95.4311 188.061 103.472 190.3 106.012 186.115L106.442 186.104C106.442 186.104 106.949 187.869 108.712 188.236C110.475 188.604 111.706 187.522 111.706 187.522C111.706 187.522 112.882 188.352 114.033 188.099C115.183 187.846 115.848 186.585 115.848 186.585C115.848 186.585 117.142 188.171 118.039 187.738C118.561 187.49 119.055 187.188 119.514 186.837C119.514 186.837 119.866 188.244 121.083 187.738C122.299 187.233 122.397 187.053 122.461 187.161C122.525 187.27 122.429 188.676 121.788 189.542C121.147 190.407 120.826 190.805 120.826 190.805C120.826 190.805 89.0293 190.263 88.9012 190.3C88.7731 190.337 89.3534 188.247 89.1933 185.072C89.0332 181.897 87.7825 179.104 87.7825 179.104L87.859 177.533C87.859 177.533 81.9127 165.479 81.433 164.361C80.9534 163.243 80.7698 160.918 80.7698 160.918C80.7698 160.918 89.8631 159.166 94.1261 157.434C98.3892 155.702 101.19 154.424 101.19 154.424Z" fill="#121216"/>
</g>
<path d="M120.796 191.429H89.1136C88.9927 191.429 88.8731 191.405 88.7615 191.358C88.65 191.311 88.549 191.243 88.4642 191.157C88.3794 191.07 88.3126 190.968 88.2677 190.856C88.2228 190.743 88.2007 190.623 88.2027 190.502C88.2027 190.502 88.2328 188.625 88.2968 184.151C88.3543 180.126 87.4186 178.627 87.4094 178.612C87.3929 178.588 87.3779 178.563 87.3643 178.537C87.3114 178.439 82.0427 168.646 79.5472 161.371C79.2388 160.474 79.3342 159.517 79.8295 158.527C83.5541 151.09 111.939 141.91 113.146 141.523C113.278 141.481 113.418 141.469 113.555 141.489C113.692 141.509 113.823 141.56 113.938 141.639C114.052 141.717 114.147 141.821 114.216 141.942C114.284 142.063 114.324 142.197 114.332 142.336C114.398 143.356 115.822 166.875 115.168 174.927C116.927 176.223 122.748 180.739 123.543 184.251C124.286 187.534 122.727 189.816 122.231 190.44C121.445 191.429 120.973 191.429 120.796 191.429ZM90.0382 189.606H120.538C121 189.162 122.372 187.334 121.767 184.66C121.148 181.921 115.724 177.559 113.686 176.108C113.554 176.014 113.449 175.887 113.383 175.739C113.316 175.592 113.29 175.429 113.307 175.268C113.965 168.839 112.875 148.717 112.582 143.626C103.857 146.516 84.1416 153.982 81.4566 159.345C81.1854 159.887 81.124 160.356 81.2684 160.778C83.6436 167.701 88.6118 177.011 88.9476 177.637C89.1822 178.006 90.1794 179.84 90.1173 184.177C90.0794 186.883 90.0532 188.638 90.0382 189.606Z" fill="#121216"/>
<path d="M88.1641 179.018C87.9303 179.017 87.706 178.925 87.5375 178.763C87.3691 178.6 87.2695 178.379 87.2593 178.145C87.2491 177.911 87.3292 177.682 87.4829 177.505C87.6367 177.329 87.8523 177.218 88.0851 177.197C88.2399 177.183 103.681 175.809 114.097 174.459C114.336 174.429 114.577 174.496 114.767 174.643C114.957 174.791 115.081 175.008 115.112 175.248C115.143 175.487 115.078 175.728 114.931 175.92C114.785 176.111 114.569 176.237 114.331 176.269C103.875 177.623 88.4007 179.001 88.2458 179.015C88.2184 179.017 88.1909 179.018 88.1641 179.018Z" fill="#121216"/>
<path d="M104.981 189.999C105.74 188.769 105.878 187.279 105.883 185.843C105.865 185.28 105.876 184.747 106.055 184.178C106.059 184.166 106.066 184.155 106.075 184.147C106.085 184.139 106.096 184.133 106.108 184.13C106.121 184.127 106.133 184.128 106.145 184.131C106.157 184.135 106.168 184.142 106.177 184.151C106.589 184.6 106.805 185.141 106.93 185.719C107.169 186.871 107.252 188.07 106.966 189.243C106.796 189.892 106.555 190.514 106.095 191.032C105.376 191.748 104.361 190.787 104.981 189.999Z" fill="#121216"/>
<path d="M110.548 190.516C110.548 190.058 110.707 189.529 110.798 189.086C110.975 188.282 111.118 187.489 111.12 186.668C111.095 186.222 111.14 185.775 111.251 185.342C111.253 185.332 111.258 185.323 111.264 185.315C111.27 185.307 111.277 185.3 111.286 185.295C111.294 185.29 111.304 185.287 111.314 185.285C111.324 185.284 111.334 185.284 111.344 185.287C111.809 185.574 112.044 186.054 112.165 186.52C112.51 187.833 112.377 189.219 112.068 190.514L111.945 190.809C111.64 191.548 110.527 191.302 110.549 190.514L110.548 190.516Z" fill="#121216"/>
<path d="M114.753 190.28C114.966 189.439 115.125 188.584 115.228 187.722C115.374 186.762 115.167 185.981 115.417 184.979C115.419 184.969 115.423 184.96 115.429 184.952C115.435 184.945 115.442 184.938 115.451 184.933C115.459 184.928 115.469 184.925 115.478 184.924C115.488 184.922 115.498 184.923 115.507 184.926C116.401 185.592 116.466 186.742 116.568 187.747C116.621 188.78 116.531 189.75 116.196 190.752C116.13 190.939 115.994 191.094 115.816 191.182C115.638 191.27 115.433 191.284 115.245 191.223C115.056 191.161 114.899 191.028 114.807 190.852C114.715 190.676 114.696 190.471 114.753 190.28Z" fill="#121216"/>
<path d="M117.75 190.264C118.077 189.104 118.545 187.783 118.805 186.598C118.885 186.15 119.039 185.719 119.263 185.324C119.268 185.315 119.274 185.307 119.282 185.301C119.29 185.295 119.299 185.29 119.308 185.287C119.318 185.285 119.328 185.284 119.338 185.285C119.348 185.286 119.357 185.289 119.366 185.294C119.747 185.695 119.842 186.219 119.856 186.685C119.894 188.076 119.665 189.462 119.182 190.766C119.11 190.95 118.97 191.099 118.791 191.181C118.612 191.264 118.408 191.273 118.222 191.207C118.036 191.142 117.883 191.007 117.795 190.83C117.707 190.654 117.691 190.45 117.75 190.261V190.264Z" fill="#121216"/>
<path d="M121.839 190.516H88.402C87.704 190.516 87.1382 191.083 87.1382 191.782V193.579C87.1382 194.278 87.704 194.845 88.402 194.845H121.839C122.537 194.845 123.103 194.278 123.103 193.579V191.782C123.103 191.083 122.537 190.516 121.839 190.516Z" fill="#4376BB"/>
<g opacity="0.3">
<path d="M121.724 192.969H96.0191C95.2572 192.969 94.6404 192.275 94.6404 191.418V190.516H88.5176C87.7557 190.516 87.1382 191.211 87.1382 192.069V193.293C87.1382 194.151 87.7557 194.846 88.5176 194.846H121.724C122.486 194.846 123.104 194.151 123.104 193.293V192.069C123.103 191.959 123.093 191.849 123.072 191.741C122.939 192.444 122.389 192.969 121.724 192.969Z" fill="#121216"/>
</g>
<path d="M121.839 195.76H88.4026C87.8259 195.76 87.273 195.53 86.8653 195.121C86.4575 194.713 86.2283 194.159 86.228 193.581V191.785C86.2283 191.207 86.4575 190.653 86.8653 190.244C87.273 189.836 87.8259 189.606 88.4026 189.605H121.839C122.416 189.606 122.969 189.836 123.377 190.244C123.784 190.653 124.013 191.207 124.014 191.785V193.581C124.013 194.159 123.784 194.713 123.377 195.121C122.969 195.53 122.416 195.76 121.839 195.76ZM88.4026 191.431C88.3089 191.431 88.219 191.468 88.1527 191.535C88.0864 191.601 88.0491 191.691 88.0491 191.785V193.581C88.0491 193.675 88.0864 193.765 88.1527 193.831C88.219 193.898 88.3089 193.935 88.4026 193.935H121.839C121.886 193.935 121.932 193.926 121.974 193.908C122.017 193.89 122.056 193.864 122.089 193.831C122.122 193.798 122.148 193.759 122.166 193.716C122.184 193.673 122.193 193.627 122.193 193.581V191.785C122.193 191.739 122.184 191.692 122.166 191.649C122.148 191.607 122.122 191.567 122.089 191.535C122.056 191.502 122.017 191.476 121.974 191.458C121.932 191.44 121.886 191.431 121.839 191.431H88.4026Z" fill="#121216"/>
<path d="M132.965 36.361C132.965 36.361 134.86 30.9092 141.388 27.4169C147.915 23.9247 153.92 19.157 155.357 6.89613C155.209 3.92829 147.663 0.119149 145.568 1.06194C145.568 1.06194 144.702 11.7122 139.797 16.055C134.892 20.3977 122.369 26.8434 121.771 33.5916" fill="#2B3582"/>
<g opacity="0.25">
<path d="M129.921 34.1344C129.921 34.1344 131.816 28.6825 138.343 25.1903C144.87 21.698 150.875 16.9303 152.313 4.66945C152.278 3.95647 151.812 3.19503 151.102 2.4624C153.305 3.67036 155.284 5.3903 155.357 6.89615C153.92 19.157 147.918 23.9247 141.388 27.417C134.857 30.9092 132.965 36.361 132.965 36.361L121.771 33.5916C121.817 33.1154 121.916 32.6458 122.067 32.1918L129.921 34.1344Z" fill="#121216"/>
</g>
<path d="M132.965 37.2724C132.862 37.2725 132.761 37.255 132.664 37.2207C132.437 37.1411 132.25 36.9743 132.145 36.7569C132.04 36.5395 132.026 36.2893 132.105 36.0612C132.186 35.8248 134.191 30.2303 140.959 26.6116C146.709 23.5345 152.968 19.2199 154.443 6.87715C154.344 6.01292 153.136 4.75456 151.328 3.64677C149.246 2.36942 147.346 1.82601 146.406 1.82339C146.119 4.3172 144.838 12.8109 140.4 16.7372C139.027 17.953 137.076 19.3253 135.012 20.7788C129.694 24.5224 123.076 29.1821 122.678 33.6721C122.669 33.7923 122.636 33.9094 122.581 34.0167C122.526 34.124 122.45 34.2194 122.358 34.2972C122.266 34.375 122.16 34.4339 122.045 34.4703C121.93 34.5067 121.81 34.52 121.69 34.5093C121.57 34.4987 121.453 34.4643 121.347 34.4083C121.24 34.3522 121.146 34.2756 121.069 34.1828C120.992 34.0899 120.934 33.9828 120.899 33.8675C120.864 33.7522 120.852 33.6311 120.864 33.511C121.336 28.1758 128.338 23.2464 133.964 19.2853C135.986 17.862 137.896 16.5179 139.192 15.3688C143.766 11.3181 144.65 1.09076 144.659 0.987967C144.672 0.825065 144.729 0.668731 144.823 0.535344C144.917 0.401957 145.046 0.296426 145.194 0.229804C147.038 -0.601032 150.515 1.00826 152.278 2.08986C153.723 2.97634 156.163 4.7742 156.264 6.85096C156.266 6.90165 156.264 6.95246 156.259 7.00285C154.775 19.6559 148.439 24.6802 141.813 28.2222C135.707 31.4919 133.843 36.6118 133.825 36.6642C133.761 36.8419 133.645 36.9958 133.491 37.1046C133.337 37.2135 133.153 37.2721 132.965 37.2724Z" fill="#121216"/>
<path d="M128.539 44.3021C128.539 44.3021 132.926 48.582 145.483 50.0597C158.039 51.5374 163.793 45.7955 164.731 44.1384C165.669 42.4813 164.704 36.4939 162.813 35.9368C160.921 35.3796 155.005 39.7872 149.446 40.3594C143.888 40.9316 130.936 34.4957 130.936 34.4957C130.936 34.4957 129.795 33.498 126.867 33.4135C123.939 33.329 121.752 33.8063 121.752 33.8063L122.12 35.7705" fill="#2B3582"/>
<path d="M149.408 51.21C148.061 51.2078 146.715 51.1262 145.377 50.9658C132.658 49.4691 128.092 45.1388 127.904 44.9562C127.738 44.786 127.645 44.5577 127.644 44.3199C127.644 44.082 127.736 43.8534 127.902 43.6827C128.067 43.512 128.292 43.4127 128.53 43.406C128.767 43.3993 128.997 43.4857 129.172 43.6467C129.237 43.7122 133.608 47.7446 145.589 49.1549C157.464 50.5507 163.084 45.1991 163.939 43.6893C164.388 42.8964 164.229 40.0471 163.446 38.1078C163.072 37.1834 162.711 36.8593 162.556 36.8141C162.015 36.6543 160.05 37.5592 158.47 38.2859C155.898 39.4696 152.697 40.9434 149.539 41.2688C149.268 41.2956 148.995 41.3087 148.722 41.3081C142.744 41.3081 131.347 35.7181 130.556 35.3272C130.248 35.1996 126.107 33.5281 122.606 34.4905L122.515 35.5446C122.489 35.7821 122.372 36.0002 122.188 36.1521C122.004 36.3039 121.768 36.3774 121.53 36.3567C121.293 36.3361 121.073 36.2229 120.918 36.0416C120.762 35.8602 120.684 35.6252 120.7 35.3868L120.843 33.7271C120.859 33.5541 120.923 33.3891 121.029 33.2513C121.134 33.1134 121.277 33.0085 121.439 32.9486C125.845 31.34 131.076 33.5634 131.296 33.659L131.34 33.6793C131.467 33.7448 144.122 39.9934 149.352 39.4526C152.21 39.1586 155.259 37.7549 157.709 36.6275C160.127 35.5145 161.872 34.7105 163.067 35.0627C163.904 35.3089 164.599 36.1031 165.132 37.423C166.007 39.5836 166.359 43.1105 165.524 44.5895C164.455 46.4771 159.382 51.21 149.408 51.21Z" fill="#121216"/>
<g opacity="0.25">
<path d="M145.26 45.7444C157.817 47.2221 163.571 41.4803 164.508 39.8232C164.615 39.6225 164.692 39.4075 164.737 39.1848C165.191 41.0724 165.242 43.2401 164.734 44.1384C163.796 45.7955 158.042 51.5367 145.485 50.0597C132.928 48.5826 128.542 44.3021 128.542 44.3021L128.5 42.607C129.172 42.1952 128.845 40.798 128.845 40.798C131.513 42.0427 139.046 45.0138 145.26 45.7444Z" fill="#121216"/>
</g>
<path d="M104.673 109.515C104.673 109.515 71.936 116.218 43.6583 110.096C15.3807 103.974 8.09352 91.7449 15.7074 76.2327C15.7074 76.2327 11.1895 42.8951 30.8019 23.1691C50.4142 3.44315 101.7 -1.07898 121.641 33.5948C129.912 49.1116 128.488 76.2117 128.488 76.2117C128.488 76.2117 142.986 100.11 104.673 109.515Z" fill="#3F414A"/>
<g opacity="0.4">
<path d="M13.8026 81.035C13.868 80.9041 13.9261 80.7731 13.9915 80.6422C13.9915 80.6422 13.9836 80.5852 13.9719 80.4864C13.9124 80.6677 13.8569 80.8517 13.8026 81.035Z" fill="white"/>
</g>
<g opacity="0.4">
<path d="M128.989 94.9379C131.62 90.2148 131.457 85.476 130.655 81.9464C131.398 85.6036 131.504 90.3844 128.989 94.9379Z" fill="white"/>
</g>
<g opacity="0.4">
<path d="M127.878 57.5555C128.932 67.7384 128.487 76.2117 128.487 76.2117C128.487 76.2117 129.875 78.5032 130.656 81.9464C129.907 78.2492 128.509 75.701 128.509 75.701C128.509 75.701 129.168 67.5164 127.878 57.5555Z" fill="white"/>
</g>
<g opacity="0.4">
<path d="M30.8019 23.1692C25.1954 28.8076 21.5635 35.5597 19.2314 42.3262C21.5243 37.0793 24.7 31.9875 29.0859 27.5761C39.8024 16.7981 59.9741 10.56 79.3224 12.7736C79.2978 12.8159 79.2781 12.8609 79.2636 12.9078C78.8369 14.3481 83.7168 17.0678 90.1643 18.977C95.9322 20.6852 100.997 21.167 102.308 20.2177C109.3 24.3273 115.414 30.1589 119.925 38.0018C121.465 40.8917 124.818 43.5989 125.728 46.813C126.752 50.4296 127.433 54.0993 127.88 57.5556C127.049 49.5261 125.287 40.4347 121.641 33.5929C101.699 -1.07896 50.4149 3.44317 30.8019 23.1692Z" fill="white"/>
</g>
<g opacity="0.25">
<path d="M50.5181 103.576C22.2398 97.4547 14.954 85.2252 22.5679 69.713C22.5679 69.713 18.4577 39.3839 35.0976 19.4654C33.5777 20.5949 32.142 21.8338 30.8019 23.1724C11.1889 42.8984 15.7074 76.2359 15.7074 76.2359C8.09352 91.7481 15.3807 103.978 43.6583 110.099C71.936 116.221 104.673 109.518 104.673 109.518C117.796 106.297 124.722 101.374 128.158 96.2925C124.226 98.8754 118.843 101.198 111.533 102.992C111.533 102.992 78.7971 109.695 50.5181 103.576Z" fill="#121216"/>
</g>
<path d="M38.9895 41.2596C36.3812 41.7141 33.9891 43.0005 32.1694 44.9272C30.3497 46.8539 29.1997 49.318 28.8906 51.9525C27.9156 60.2019 27.0002 76.177 33.5359 81.7107C42.4998 89.3008 67.271 87.3255 84.7434 87.1291C102.216 86.9327 113.767 86.2125 116.407 73.0933C119.047 59.9741 114.679 44.6681 113.063 43.466C111.447 42.264 92.7506 42.2574 73.827 41.9602C61.1927 41.7592 47.8815 39.7204 38.9895 41.2596Z" fill="#EDBC9A"/>
<path d="M70.3259 113.567C61.6769 113.567 52.3354 112.908 43.4695 110.988C27.3556 107.499 17.3083 101.842 13.6072 94.1713C11.0948 88.9761 11.4881 82.8872 14.7678 76.0782C14.5815 74.518 13.7909 66.8159 14.9938 56.9886C16.2177 46.9923 19.8411 32.8996 30.1537 22.5269C35.5975 17.0515 43.6864 12.5568 52.93 9.87184C62.4317 7.11221 72.5731 6.32524 82.2577 7.59801C100.031 9.93273 114.297 19.0038 122.427 33.1405C130.388 48.072 129.544 72.9473 129.407 75.9891C130.243 77.4865 134.128 85.1938 130.718 93.4544C127.486 101.285 118.795 106.987 104.89 110.401L104.856 110.409C104.63 110.455 89.1175 113.567 70.3259 113.567ZM73.316 8.8459C57.0453 8.8459 40.6904 14.519 31.4494 23.8134C21.5106 33.8076 18.0029 47.467 16.8098 57.1614C15.5101 67.7292 16.5987 76.0271 16.6105 76.1102C16.6341 76.2895 16.6043 76.4717 16.5249 76.634C13.3955 83.0182 12.961 88.6487 15.2428 93.3764C18.6884 100.513 28.3116 105.84 43.8504 109.204C71.3603 115.162 103.585 108.803 104.474 108.623C117.764 105.358 126.026 100.026 129.03 92.7734C132.405 84.6281 127.757 76.763 127.709 76.6851C127.614 76.5276 127.568 76.3451 127.578 76.1613C127.592 75.8929 128.892 49.1306 120.837 34.0224C113.011 20.4148 99.221 11.6625 82.0225 9.40503C79.1355 9.0297 76.2272 8.84293 73.316 8.8459Z" fill="#121216"/>
<path d="M63.9189 88.4189C51.1017 88.4189 38.8921 87.4368 32.9458 82.4073C26.1631 76.6641 26.9257 60.7938 27.9836 51.8451C28.6664 46.0711 33.1275 41.3487 38.8307 40.3607C44.6888 39.3465 52.3523 39.8513 60.4661 40.3869C64.8572 40.6769 69.398 40.9761 73.8381 41.0462C77.0302 41.0966 80.2164 41.1385 83.313 41.1771C103.714 41.4462 112.165 41.6623 113.601 42.7314C115.697 44.2923 119.97 59.9767 117.295 73.2707C114.396 87.7079 100.659 87.863 84.7512 88.0411C82.1662 88.0706 79.4544 88.1374 76.5832 88.2087C72.4345 88.3122 68.1427 88.4189 63.9189 88.4189ZM47.0725 41.6014C44.1693 41.6014 41.4915 41.7526 39.1444 42.1592C34.2285 43.0103 30.385 47.0814 29.7969 52.0598C28.9794 58.971 27.7653 75.6297 34.1253 81.0141C41.4954 87.2542 60.9287 86.7716 76.5427 86.3827C79.4178 86.3107 82.1375 86.2433 84.7342 86.2138C102.199 86.0174 113.028 85.2697 115.516 72.9106C118.092 60.1043 113.777 45.4308 112.523 44.2013C110.933 43.3672 96.2524 43.174 83.2954 43.0025C80.1954 42.9619 77.008 42.9193 73.8139 42.8715C69.3281 42.8008 64.7644 42.4997 60.3531 42.209C55.6731 41.9019 51.1513 41.6014 47.0725 41.6014Z" fill="#121216"/>
<path d="M62.3709 69.1853C62.2794 70.5681 61.6122 72.4209 59.9427 72.4589C59.5898 72.4654 59.2344 72.3535 58.9083 72.2625C58.2836 72.066 57.6615 71.8356 57.0649 71.6077C53.2698 70.0973 49.6693 68.234 46.1244 66.226C44.3666 65.204 42.6226 64.1584 40.9485 62.972C40.868 62.9156 40.8105 62.832 40.7865 62.7366C40.7625 62.6412 40.7735 62.5403 40.8176 62.4523C40.8617 62.3644 40.9359 62.2953 41.0266 62.2576C41.1173 62.22 41.2186 62.2163 41.3118 62.2473C43.2591 62.8804 45.1416 63.6444 47.015 64.4235C50.7351 66.004 54.3989 67.7482 57.9621 69.6377C58.6672 69.9991 59.3651 70.4063 60.0682 70.7252C60.1734 70.7697 60.2786 70.7147 60.4491 70.6145C60.9542 70.2145 61.2953 69.5729 61.5985 68.9777C61.7887 68.5803 62.4121 68.7584 62.3709 69.1918V69.1853Z" fill="#121216"/>
<path d="M82.4916 69.4688C82.7909 70.0168 83.1228 70.606 83.6025 70.9668C83.7332 71.0447 83.8514 71.0977 83.907 71.0722C83.9227 71.08 83.937 71.0623 83.9481 71.0584C83.9592 71.0545 83.9664 71.0584 83.9828 71.0421C84.0141 71.0165 84.0788 70.9943 84.12 70.9668C84.4813 70.7782 85.5223 70.189 85.896 69.9847C90.9628 67.1943 96.1662 64.6003 101.633 62.6571C102.059 62.5104 102.386 63.0957 102.011 63.3773C98.874 65.6904 95.5251 67.6329 92.0926 69.4465C89.6893 70.68 87.2467 71.9292 84.6388 72.7201C82.7863 73.2439 81.7761 71.1861 81.7075 69.6665C81.6742 69.2029 82.3119 69.0543 82.4916 69.4701V69.4688Z" fill="#121216"/>
<path d="M127.782 45.88C127.782 45.88 66.5313 54.5222 17.8945 46.7049C17.8945 46.7049 14.3398 46.2145 15.4597 40.2959C16.5797 34.3773 24.1773 35.4595 24.1773 35.4595C24.1773 35.4595 65.3571 38.9295 80.2183 38.7148C95.0795 38.5 121.973 35.6042 123.924 35.6677C125.874 35.7312 130.216 39.5901 127.782 45.88Z" fill="#2B3582"/>
<g opacity="0.25">
<path d="M128.453 41.7873C128.453 41.7873 67.2018 50.4296 18.5649 42.6123C18.5649 42.6123 16.1406 42.2744 15.9289 38.8208C15.7109 39.2906 15.5532 39.7863 15.4597 40.2959C14.3398 46.2145 17.8945 46.7049 17.8945 46.7049C66.5313 54.5216 127.782 45.88 127.782 45.88C128.381 44.3329 128.566 42.9337 128.483 41.7016C128.472 41.7304 128.466 41.7585 128.453 41.7873Z" fill="#121216"/>
</g>
<g opacity="0.25">
<path d="M128.347 45.0936C128.347 45.0936 67.0959 53.7359 18.459 45.9186C18.459 45.9186 16.0354 45.5808 15.8231 42.1265C15.6056 42.5972 15.4486 43.0938 15.3558 43.6042C14.2365 49.5235 17.7906 50.0132 17.7906 50.0132C66.4281 57.8305 126.709 49.3192 126.709 49.3192C127.308 47.7721 126.409 46.5962 126.324 45.3634C126.31 45.3902 128.358 45.0642 128.347 45.0936Z" fill="#121216"/>
</g>
<path d="M64.6141 50.8663C49.2145 50.8663 32.8439 50.0315 17.7501 47.6058C17.6233 47.5881 16.3027 47.3708 15.3238 46.0063C14.345 44.6419 14.0856 42.6588 14.5645 40.1257C15.5754 34.7832 21.3427 34.1429 24.2766 34.5521C25.4933 34.6542 65.7047 38.0103 80.2026 37.8027C90.3277 37.6554 106.191 36.2484 115.668 35.4084C120.807 34.9501 123.305 34.7354 123.95 34.7537C125.308 34.7976 126.956 35.9401 128.047 37.5965C128.969 38.9937 130.269 41.9713 128.631 46.2086C128.573 46.3596 128.476 46.4923 128.349 46.5931C128.223 46.6939 128.072 46.7592 127.912 46.7822C127.486 46.8431 98.4081 50.8663 64.6141 50.8663ZM22.7443 36.2864C20.7337 36.2864 17.0476 36.7997 16.3543 40.4655C15.9825 42.4296 16.1282 43.9669 16.7764 44.9044C17.3051 45.6685 18.0042 45.7975 18.0336 45.8027C63.5673 53.1205 120.934 45.8682 127.113 45.0498C128.178 41.8495 127.22 39.6543 126.525 38.6048C125.623 37.2377 124.441 36.5974 123.89 36.5791C123.334 36.5725 120.017 36.8547 115.826 37.2266C106.324 38.0692 90.4198 39.4795 80.2268 39.6274C65.4904 39.85 24.5092 36.4036 24.0963 36.3689C24.0793 36.3689 24.0616 36.3689 24.0446 36.363C23.6133 36.3097 23.1789 36.2842 22.7443 36.2864Z" fill="#121216"/>
<path d="M50.3522 81.2059L49.4204 81.1254C47.509 80.9593 45.7418 80.0393 44.5075 78.5677C43.2731 77.0962 42.6727 75.1937 42.8382 73.2786L43.6407 64.0091L58.5169 70.7573L58.183 74.6116C58.101 75.5598 57.8334 76.4825 57.3955 77.327C56.9575 78.1716 56.3579 78.9215 55.6307 79.5338C54.9035 80.1461 54.0631 80.609 53.1574 80.8959C52.2517 81.1828 51.2985 81.2881 50.3522 81.2059Z" fill="#121216"/>
<path d="M53.0456 76.2994C54.3611 76.2994 55.4274 74.9179 55.4274 73.2138C55.4274 71.5096 54.3611 70.1281 53.0456 70.1281C51.7302 70.1281 50.6638 71.5096 50.6638 73.2138C50.6638 74.9179 51.7302 76.2994 53.0456 76.2994Z" fill="white"/>
<g opacity="0.4">
<path d="M48.6783 78.2986C49.3142 77.8419 49.352 76.8039 48.7627 75.9801C48.1735 75.1563 47.1802 74.8587 46.5443 75.3154C45.9084 75.7721 45.8705 76.8101 46.4598 77.6339C47.0491 78.4577 48.0423 78.7553 48.6783 78.2986Z" fill="white"/>
</g>
<path d="M94.3496 81.5778L95.2775 81.4573C96.2197 81.3353 97.1287 81.0285 97.9526 80.5545C98.7765 80.0805 99.4991 79.4484 100.079 78.6945C100.659 77.9406 101.085 77.0796 101.333 76.1606C101.581 75.2417 101.646 74.2828 101.524 73.3388L100.333 64.1112L85.7536 71.4807L86.2483 75.3173C86.3698 76.2614 86.6758 77.1723 87.1488 77.9979C87.6218 78.8234 88.2524 79.5476 89.0047 80.1289C89.757 80.7103 90.6162 81.1374 91.5333 81.386C92.4504 81.6346 93.4074 81.6998 94.3496 81.5778Z" fill="#121216"/>
<path d="M90.8746 77.2193C92.2568 77.2193 93.3773 75.7727 93.3773 73.9883C93.3773 72.2038 92.2568 70.7573 90.8746 70.7573C89.4924 70.7573 88.3719 72.2038 88.3719 73.9883C88.3719 75.7727 89.4924 77.2193 90.8746 77.2193Z" fill="white"/>
<g opacity="0.4">
<path d="M98.2039 77.6404C98.8187 76.6699 98.7076 75.4956 97.9559 75.0177C97.2042 74.5397 96.0965 74.939 95.4818 75.9095C94.867 76.8801 94.9781 78.0544 95.7298 78.5323C96.4815 79.0103 97.5892 78.611 98.2039 77.6404Z" fill="white"/>
</g>
<path d="M112.292 107.22C99.5869 112.222 72.7207 112.659 72.7207 112.659C72.7207 112.659 45.8545 112.222 33.1484 107.22C33.1484 107.22 11.4888 164.582 72.7207 164.582C133.953 164.582 112.292 107.22 112.292 107.22Z" fill="#3F414A"/>
<path d="M75.9997 119.712L71.0898 114.649L69.76 113.208L70.0867 112.546C70.0867 112.546 73.4023 112.505 78.635 112.439C83.8678 112.373 84.663 112.164 84.663 112.164L85.0884 112.726L77.8208 120.379H76.6741L75.9997 119.712Z" fill="#EDBC9A"/>
<g opacity="0.25">
<path d="M111.683 107.453C111.683 107.453 100.454 115.732 76.201 115.732C51.9479 115.732 40.3506 109.329 40.3506 109.329C40.3506 109.329 56.3468 112.585 74.8183 112.585C93.2897 112.585 111.683 107.453 111.683 107.453Z" fill="#121216"/>
</g>
<path d="M72.7207 144.27C44.9972 144.27 29.5688 132.364 29.5688 132.364C29.7067 136.069 31.3148 141.62 31.3148 141.62C47.1712 153.281 72.7207 152.412 72.7207 152.412C72.7207 152.412 98.2703 153.281 114.127 141.62C114.127 141.62 115.734 136.069 115.873 132.364C115.873 132.364 100.444 144.27 72.7207 144.27Z" fill="#4376BB"/>
<path d="M72.7207 165.495C54.3421 165.495 41.4804 160.357 34.4945 150.224C29.576 143.09 27.6405 133.327 28.8964 121.988C29.8394 113.477 32.197 107.162 32.2943 106.898C32.3371 106.785 32.4018 106.682 32.4847 106.594C32.5676 106.506 32.667 106.436 32.7773 106.387C32.8875 106.339 33.0063 106.312 33.1268 106.31C33.2473 106.308 33.367 106.329 33.479 106.374C45.8846 111.257 72.4659 111.743 72.7325 111.748C72.9704 111.745 99.551 111.257 111.957 106.374C112.069 106.329 112.188 106.308 112.309 106.31C112.429 106.312 112.548 106.339 112.659 106.387C112.769 106.436 112.868 106.506 112.951 106.594C113.034 106.681 113.099 106.785 113.142 106.898C113.242 107.16 115.6 113.475 116.54 121.988C117.796 133.327 115.86 143.09 110.942 150.224C103.962 160.357 91.0994 165.495 72.7207 165.495ZM33.7025 108.403C32.1944 112.954 25.873 134.517 35.9967 149.192C42.6246 158.799 54.9798 163.67 72.7201 163.67C90.4603 163.67 102.821 158.797 109.448 149.186C119.576 134.5 113.248 112.953 111.735 108.404C98.7368 113.097 73.81 113.554 72.7312 113.572C71.6275 113.554 46.7007 113.096 33.7025 108.404V108.403Z" fill="#121216"/>
<path d="M74.14 153.343C73.3794 153.343 72.8893 153.33 72.7207 153.324C71.2832 153.37 46.5727 153.972 30.7757 142.355C30.614 142.236 30.4959 142.068 30.4399 141.875C30.3745 141.643 28.7997 136.172 28.6586 132.398C28.6524 132.225 28.6954 132.053 28.7827 131.904C28.8699 131.754 28.9978 131.633 29.1514 131.553C29.3051 131.474 29.478 131.44 29.6502 131.456C29.8223 131.471 29.9865 131.535 30.1236 131.641C30.2752 131.757 45.6657 143.357 72.7194 143.357C99.7732 143.357 115.164 131.757 115.316 131.637C115.453 131.532 115.617 131.468 115.79 131.452C115.962 131.437 116.135 131.471 116.288 131.551C116.442 131.63 116.57 131.751 116.657 131.901C116.745 132.051 116.788 132.222 116.782 132.395C116.64 136.169 115.067 141.641 115 141.872C114.944 142.065 114.826 142.234 114.664 142.353C100.727 152.606 79.8452 153.343 74.14 153.343ZM72.7207 151.502H72.7514C73.0017 151.51 97.9024 152.213 113.335 141.07C113.597 140.11 114.425 137 114.792 134.222C110.115 137.244 95.646 145.184 72.7207 145.184C49.7954 145.184 35.3256 137.242 30.6496 134.217C31.0169 136.996 31.8415 140.106 32.1061 141.065C47.5391 152.211 72.4404 151.508 72.69 151.502H72.7207Z" fill="#121216"/>
<path d="M91.2268 143.155C91.1028 143.155 90.9807 143.125 90.8713 143.066C90.6485 142.948 68.4126 130.975 56.6696 112.183C56.5629 112.012 56.5283 111.806 56.5734 111.609C56.6186 111.413 56.7398 111.242 56.9104 111.135C57.081 111.028 57.2871 110.994 57.4832 111.039C57.6793 111.084 57.8495 111.206 57.9562 111.377C69.479 129.817 91.364 141.606 91.5836 141.723C91.7334 141.803 91.8523 141.93 91.9214 142.085C91.9905 142.241 92.0057 142.414 91.9646 142.579C91.9235 142.744 91.8286 142.89 91.6948 142.995C91.5611 143.099 91.3963 143.156 91.2268 143.155Z" fill="#121216"/>
<path d="M101.015 140.458C100.89 140.458 100.768 140.428 100.659 140.369C85.9405 132.508 68.7661 113.246 68.5942 113.053C68.4661 112.901 68.4021 112.705 68.4162 112.507C68.4302 112.309 68.521 112.124 68.6693 111.992C68.8175 111.86 69.0114 111.791 69.2095 111.801C69.4076 111.81 69.5941 111.897 69.7293 112.042C69.8992 112.234 86.8958 131.295 101.373 139.027C101.522 139.106 101.641 139.234 101.709 139.389C101.778 139.544 101.793 139.718 101.752 139.883C101.71 140.047 101.616 140.193 101.482 140.298C101.349 140.402 101.184 140.459 101.015 140.458Z" fill="#121216"/>
<path d="M77.2661 121.723C77.1175 121.723 76.9722 121.679 76.8482 121.597C76.7242 121.515 76.6269 121.398 76.5685 121.261C76.5101 121.125 76.493 120.974 76.5194 120.827C76.5459 120.68 76.6146 120.545 76.7172 120.437C76.7695 120.382 81.9748 114.925 85.2014 111.5C85.2701 111.428 85.3523 111.369 85.4435 111.329C85.5347 111.288 85.6329 111.265 85.7327 111.263C85.8325 111.26 85.9318 111.277 86.0251 111.313C86.1183 111.349 86.2036 111.402 86.276 111.471C86.3485 111.54 86.4067 111.622 86.4474 111.714C86.4881 111.805 86.5104 111.904 86.5131 112.003C86.5158 112.103 86.4988 112.203 86.4631 112.296C86.4275 112.39 86.3738 112.475 86.3051 112.548C83.0758 115.976 77.8672 121.436 77.815 121.491C77.7439 121.565 77.6586 121.624 77.5642 121.664C77.4699 121.703 77.3684 121.724 77.2661 121.723Z" fill="#121216"/>
<g opacity="0.25">
<path d="M30.9077 110.333C30.9077 110.333 31.6265 132.855 57.6027 138.898C83.5789 144.941 112.165 133.408 113.139 113.176C113.139 113.176 114.841 122.165 114.958 126.123C115.075 130.081 115.097 131.785 115.097 131.785L113.948 133.073C113.948 133.073 99.0491 144.219 74.9176 144.219C50.786 144.219 37.3114 137.622 31.2345 134.064L29.5643 133.004C29.5643 133.004 28.8259 132.349 28.5188 131.05C28.2116 129.751 28.2352 115.677 30.9077 110.333Z" fill="#121216"/>
</g>
<g opacity="0.25">
<path d="M42.3318 139.193C42.3318 139.193 44.4006 149.307 74.27 149.307C104.139 149.307 108.244 136.885 108.244 136.885L112.924 134.287C112.924 134.287 112.453 140.663 111.563 143.348C111.563 143.348 96.0512 152.425 73.4349 152.425C50.8187 152.425 36.4679 145.093 33.8913 143.356C33.8913 143.356 32.5616 136.096 32.5191 134.287C32.5178 134.286 38.7144 138.014 42.3318 139.193Z" fill="#121216"/>
</g>
<g opacity="0.25">
<path d="M34.5428 148.635C34.5428 148.635 46.212 157.699 71.7412 160.05C97.2705 162.4 110.899 148.635 110.899 148.635C110.899 148.635 103.166 164.582 72.7207 164.582C42.275 164.582 34.5428 148.635 34.5428 148.635Z" fill="#121216"/>
</g>
<path d="M82.7452 126.884C82.5983 126.884 82.4546 126.842 82.3315 126.762C82.2083 126.682 82.111 126.568 82.0513 126.433C81.9916 126.299 81.9721 126.15 81.9951 126.005C82.0182 125.859 82.0829 125.724 82.1812 125.615C82.261 125.526 90.2349 116.648 95.2801 110.444C95.3418 110.363 95.4192 110.295 95.5076 110.245C95.596 110.194 95.6937 110.162 95.7949 110.15C95.896 110.138 95.9985 110.146 96.0963 110.175C96.194 110.203 96.2851 110.251 96.364 110.316C96.4429 110.38 96.5081 110.46 96.5556 110.55C96.6032 110.64 96.6321 110.739 96.6407 110.841C96.6493 110.943 96.6374 111.045 96.6057 111.142C96.5741 111.239 96.5232 111.328 96.4563 111.405C91.3869 117.639 83.3875 126.544 83.3084 126.633C83.2375 126.712 83.1506 126.775 83.0536 126.819C82.9565 126.862 82.8514 126.884 82.7452 126.884Z" fill="#121216"/>
<path d="M83.4901 113.781C83.4901 113.781 78.6546 103.646 76.0173 102.512C73.3801 101.379 72.7207 104.084 72.7207 104.084C72.7207 104.084 72.7207 130.145 73.3742 132.361C74.8059 134.633 81.7846 134.914 83.4894 134.946C87.0585 125.837 83.4901 113.781 83.4901 113.781Z" fill="#EDBC9A"/>
<path d="M117.227 104.905C112.515 107.548 104.345 109.488 104.345 109.488C104.154 110.849 103.882 112.197 103.53 113.526C94.609 114.156 83.4881 113.778 83.4881 113.778C83.4881 113.778 87.0566 125.837 83.4881 134.946C83.7286 134.95 83.8652 134.95 83.8652 134.95C108.996 140.322 122.483 134.361 124.829 126.12C127.175 117.879 117.227 104.905 117.227 104.905Z" fill="#3F414A"/>
<g opacity="0.4">
<path d="M73.0919 104.747C73.0919 104.747 74.5373 103.74 75.6083 104.275C76.3852 104.664 81.354 112.547 83.1131 116.273C83.5051 117.101 83.8358 116.834 83.8358 116.834L84.2834 115.921C84.2834 115.921 97.4587 116.026 102.359 115.522C107.26 115.019 108.517 113.151 108.517 113.151C108.517 113.151 92.4749 113.74 88.747 113.781C85.0191 113.821 83.3235 113.571 83.3235 113.571C83.3235 113.571 81.0233 108.202 78.786 105.435C76.5486 102.668 75.7318 102.178 74.4439 102.235C73.1559 102.292 73.0605 104.086 73.0919 104.747Z" fill="white"/>
</g>
<g opacity="0.25">
<path d="M72.7207 129.315C72.7207 129.315 75.3855 130.399 78.4638 130.841C81.5422 131.282 84.8094 128.826 84.8094 128.826V130.651C84.8094 130.651 104.592 133.242 114.527 130.211C124.462 127.18 124.604 119.218 124.604 119.218C124.604 119.218 127.759 126.768 120.704 131.952C113.648 137.135 103.661 137.476 95.8689 136.77C88.0766 136.065 85.5354 134.996 82.9216 134.933C80.3078 134.87 77.1021 134.554 74.966 133.736C72.8299 132.917 72.5058 130.832 72.7207 129.315Z" fill="#121216"/>
</g>
<path d="M101.426 137.911C96.1152 137.911 90.1702 137.227 83.7704 135.866C82.0061 135.86 74.3798 135.669 72.6044 132.854C72.5599 132.783 72.5252 132.706 72.5012 132.626C71.8288 130.349 71.8098 106.771 71.8098 104.09C71.81 104.016 71.8188 103.943 71.836 103.872C71.8758 103.71 72.262 102.264 73.5552 101.618C74.1217 101.335 75.0705 101.115 76.3767 101.677C78.9742 102.795 82.8458 110.379 84.0697 112.888C86.3476 112.954 95.288 113.15 102.814 112.666C102.982 111.97 103.25 110.756 103.445 109.367C103.471 109.185 103.551 109.015 103.674 108.879C103.797 108.744 103.959 108.648 104.137 108.605C104.217 108.586 112.239 106.662 116.784 104.111C116.975 104.004 117.198 103.97 117.412 104.014C117.627 104.058 117.818 104.178 117.951 104.352C118.369 104.897 128.15 117.79 125.707 126.376C124.367 131.084 119.902 134.691 113.132 136.524C109.726 137.449 105.792 137.911 101.426 137.911ZM83.8671 134.04C83.931 134.04 83.9948 134.047 84.0573 134.061C108.521 139.29 121.723 133.716 123.955 125.872C125.867 119.153 118.851 108.723 116.963 106.083C112.886 108.178 107.044 109.75 105.159 110.23C104.971 111.424 104.722 112.607 104.411 113.775C104.36 113.956 104.254 114.117 104.109 114.235C103.963 114.354 103.785 114.425 103.598 114.439C94.7312 115.065 83.5724 114.696 83.4607 114.693C83.2941 114.687 83.1323 114.636 82.9929 114.544C82.8535 114.453 82.7418 114.325 82.67 114.174C80.7215 110.095 77.2589 104.039 75.6592 103.351C75.1293 103.123 74.698 103.089 74.3765 103.245C73.9668 103.445 73.7231 103.952 73.6329 104.219C73.6329 114.03 73.7943 129.859 74.221 131.979C75.3364 133.399 80.479 134.038 83.8678 134.038L83.8671 134.04Z" fill="#121216"/>
<path d="M103.468 112.619C104.345 112.51 105.232 112.506 106.114 112.537C107.066 112.623 107.933 112.457 108.804 113.076C108.816 113.084 108.826 113.095 108.833 113.108C108.84 113.12 108.844 113.134 108.845 113.149C108.846 113.163 108.844 113.177 108.839 113.191C108.834 113.204 108.826 113.217 108.815 113.227C108.041 113.963 107.158 113.922 106.229 114.143C105.357 114.299 104.482 114.422 103.597 114.439C102.458 114.433 102.345 112.784 103.466 112.619H103.468Z" fill="#121216"/>
<path d="M83.4901 135.709C83.3952 135.709 83.3012 135.691 83.213 135.656C83.1202 135.62 83.0355 135.565 82.9636 135.496C82.8918 135.427 82.8343 135.344 82.7944 135.253C82.7545 135.161 82.7331 135.063 82.7312 134.963C82.7294 134.863 82.7472 134.764 82.7837 134.671C86.213 125.917 82.7974 114.113 82.7622 113.997C82.732 113.9 82.7213 113.799 82.7306 113.699C82.7399 113.598 82.7691 113.5 82.8165 113.411C82.8638 113.322 82.9284 113.244 83.0064 113.18C83.0844 113.116 83.1744 113.068 83.271 113.04C83.3676 113.011 83.4689 113.002 83.569 113.013C83.6692 113.024 83.7661 113.054 83.8543 113.103C83.9424 113.152 84.02 113.218 84.0824 113.297C84.1449 113.377 84.191 113.467 84.218 113.565C84.3664 114.067 87.8191 125.98 84.1965 135.226C84.1409 135.368 84.0437 135.491 83.9177 135.577C83.7917 135.663 83.6427 135.709 83.4901 135.709Z" fill="#121216"/>
<path d="M72.4398 111.329C74.4216 110.445 76.7015 111.543 77.6954 113.339C78.2436 114.297 78.6644 115.353 78.5246 116.475C78.5223 116.493 78.513 116.509 78.4986 116.52C78.4843 116.532 78.4662 116.537 78.4481 116.534C77.9208 116.038 77.6124 115.403 77.251 114.81C76.8302 114.167 76.363 113.535 75.7233 113.116C74.9653 112.562 73.9499 112.432 73.0638 112.715C72.1339 113.077 71.5478 111.769 72.4398 111.329Z" fill="#121216"/>
<path d="M72.396 106.549C73.9799 105.743 75.9069 106.31 77.1314 107.5C78.4383 108.883 79.4472 110.712 79.4662 112.653C79.3754 113.038 78.388 111.315 78.2854 111.197C77.2772 109.391 75.4756 107.103 73.1749 107.869C72.26 108.37 71.489 107.096 72.396 106.549Z" fill="#121216"/>
<path d="M61.8377 113.781C61.8377 113.781 66.6731 103.646 69.3104 102.512C71.9477 101.379 72.6077 104.084 72.6077 104.084C72.6077 104.084 72.6077 130.145 71.9543 132.361C70.5232 134.633 63.5438 134.914 61.839 134.946C58.2692 125.837 61.8377 113.781 61.8377 113.781Z" fill="#EDBC9A"/>
<path d="M28.0979 104.905C32.8099 107.548 40.9799 109.488 40.9799 109.488C41.171 110.85 41.4433 112.199 41.7954 113.528C50.7174 114.158 61.8377 113.78 61.8377 113.78C61.8377 113.78 58.2692 125.839 61.8377 134.948C61.5972 134.952 61.4606 134.952 61.4606 134.952C36.3293 140.324 22.8423 134.363 20.4971 126.122C18.1519 117.881 28.0979 104.905 28.0979 104.905Z" fill="#3F414A"/>
<g opacity="0.4">
<path d="M72.2359 104.747C72.2359 104.747 70.7911 103.74 69.7201 104.275C68.9425 104.664 63.9738 112.547 62.2147 116.273C61.8227 117.101 61.492 116.834 61.492 116.834L61.0451 115.921C61.0451 115.921 47.8691 116.026 42.9683 115.522C38.0675 115.019 36.8116 113.151 36.8116 113.151C36.8116 113.151 52.8535 113.74 56.5814 113.781C60.3093 113.821 62.005 113.571 62.005 113.571C62.005 113.571 64.3044 108.202 66.5425 105.435C68.7805 102.668 69.5966 102.178 70.8846 102.235C72.1725 102.292 72.2705 104.086 72.2359 104.747Z" fill="white"/>
</g>
<g opacity="0.25">
<path d="M72.6077 129.315C72.6077 129.315 69.943 130.399 66.8639 130.841C63.7849 131.282 60.5184 128.826 60.5184 128.826V130.651C60.5184 130.651 40.7355 133.242 30.8006 130.211C20.8657 127.18 20.7245 119.218 20.7245 119.218C20.7245 119.218 17.5684 126.768 24.6242 131.952C31.6801 137.135 41.6673 137.476 49.4596 136.77C57.2518 136.065 59.7898 134.996 62.4036 134.933C65.0173 134.87 68.2231 134.554 70.3598 133.736C72.4966 132.917 72.822 130.832 72.6077 129.315Z" fill="#121216"/>
</g>
<path d="M43.9027 137.911C39.5377 137.911 35.604 137.449 32.1963 136.524C25.4267 134.686 20.9571 131.08 19.6209 126.376C17.1776 117.787 26.959 104.894 27.3792 104.349C27.5129 104.175 27.7042 104.056 27.9185 104.012C28.1327 103.967 28.3556 104.002 28.5469 104.108C33.0915 106.661 41.1132 108.583 41.1935 108.602C41.3717 108.645 41.533 108.74 41.6563 108.876C41.7797 109.012 41.8596 109.182 41.8855 109.363C42.0816 110.753 42.3488 111.966 42.5174 112.662C50.0424 113.147 58.9841 112.947 61.2613 112.885C62.4846 110.376 66.3582 102.791 68.9543 101.674C70.2612 101.112 71.2093 101.332 71.7752 101.615C73.069 102.261 73.4552 103.71 73.4951 103.869C73.512 103.94 73.5206 104.013 73.5205 104.086C73.5205 106.771 73.5016 130.346 72.8292 132.623C72.8055 132.703 72.7707 132.78 72.726 132.851C70.9506 135.666 63.3269 135.862 61.56 135.862C55.1589 137.229 49.2126 137.911 43.9027 137.911ZM28.3659 106.083C26.4768 108.723 19.4608 119.153 21.374 125.872C23.6062 133.716 36.8076 139.29 61.2718 134.061C61.3343 134.047 61.398 134.04 61.462 134.04C64.8514 134.04 69.9933 133.401 71.1087 131.981C71.5341 129.859 71.6968 114.029 71.6968 104.221C71.6079 103.959 71.3642 103.449 70.9532 103.248C70.6317 103.09 70.1998 103.126 69.6698 103.354C68.0695 104.042 64.607 110.098 62.6597 114.177C62.5875 114.328 62.4756 114.456 62.3361 114.547C62.1966 114.638 62.0349 114.69 61.8684 114.696C61.7567 114.7 50.5985 115.069 41.732 114.443C41.5447 114.429 41.3662 114.358 41.2206 114.239C41.0751 114.12 40.9696 113.959 40.9184 113.778C40.6078 112.61 40.3583 111.427 40.1709 110.233C38.2857 109.752 32.4427 108.18 28.3659 106.083Z" fill="#121216"/>
<path d="M41.7307 114.439C40.8466 114.422 39.9703 114.299 39.0993 114.143C38.1694 113.922 37.2879 113.963 36.5129 113.227C36.5037 113.218 36.4964 113.207 36.4914 113.195C36.4864 113.182 36.4838 113.169 36.4838 113.156C36.4838 113.143 36.4864 113.13 36.4914 113.118C36.4964 113.106 36.5037 113.095 36.5129 113.086C36.9749 112.737 37.4389 112.641 37.8852 112.613C39.2097 112.515 40.5427 112.46 41.8633 112.619C42.0884 112.656 42.2914 112.776 42.4326 112.955C42.5738 113.135 42.643 113.361 42.6267 113.589C42.6103 113.817 42.5096 114.03 42.3442 114.188C42.1788 114.345 41.9607 114.435 41.7326 114.439H41.7307Z" fill="#121216"/>
<path d="M61.8377 135.709C61.6851 135.709 61.5361 135.663 61.4101 135.577C61.2841 135.491 61.1869 135.368 61.1313 135.226C57.5093 125.98 60.9614 114.067 61.1098 113.565C61.1694 113.374 61.3014 113.215 61.4773 113.121C61.6532 113.027 61.8588 113.006 62.0499 113.063C62.241 113.12 62.4021 113.249 62.4986 113.424C62.5951 113.599 62.6191 113.804 62.5656 113.997C62.5303 114.115 59.1148 125.917 62.5441 134.671C62.589 134.786 62.6052 134.911 62.5913 135.034C62.5773 135.157 62.5337 135.274 62.4641 135.377C62.3945 135.479 62.3011 135.563 62.192 135.621C62.0828 135.678 61.9612 135.709 61.8377 135.709Z" fill="#121216"/>
<path d="M72.264 112.715C71.2995 112.397 70.2226 112.611 69.4254 113.235C68.2937 114.086 67.8572 115.461 66.9247 116.508C66.9159 116.518 66.9045 116.525 66.8918 116.529C66.879 116.533 66.8655 116.533 66.8527 116.529C66.84 116.526 66.8286 116.518 66.8198 116.508C66.811 116.498 66.8053 116.486 66.8032 116.473C66.6183 114.283 68.1878 111.723 70.3814 111.15C71.2135 110.93 72.0949 110.992 72.888 111.327C73.7839 111.773 73.1886 113.075 72.264 112.713V112.715Z" fill="#121216"/>
<path d="M72.2202 107.892C69.6437 106.989 67.8487 109.766 66.7215 111.698C65.8067 113.099 65.7087 113.073 65.9988 111.392C66.6346 109.113 68.193 106.629 70.6983 106.219C71.4596 106.115 72.2372 106.2 72.9318 106.551C73.8035 107.044 73.1167 108.343 72.2202 107.895V107.892Z" fill="#121216"/>
<path d="M93.0244 190.423C93.0244 190.423 94.7364 186.268 99.1668 184.662C103.597 183.055 105.418 184.882 106.485 184.945C107.553 185.007 114.371 179.94 121.345 181.605C121.345 181.605 120.709 179.661 119.057 179.239C117.406 178.816 111.323 179.749 106.328 182.582C106.328 182.582 100.532 180.709 96.1028 183.416C91.6731 186.123 90.5427 190.421 90.5427 190.421L93.0244 190.423Z" fill="#EE343B"/>
<path d="M93.0244 191.032H90.5414C90.4484 191.032 90.3566 191.011 90.2732 190.97C90.1897 190.929 90.1168 190.869 90.06 190.795C90.0032 190.722 89.964 190.636 89.9455 190.544C89.927 190.453 89.9297 190.359 89.9533 190.269C90.0023 190.083 91.1994 185.703 95.7846 182.901C99.9097 180.379 105.037 181.591 106.253 181.93C111.166 179.216 117.266 178.158 119.206 178.653C121.157 179.154 121.889 181.329 121.919 181.421C121.953 181.524 121.958 181.634 121.935 181.74C121.912 181.845 121.862 181.943 121.788 182.023C121.715 182.103 121.622 182.161 121.519 182.193C121.415 182.224 121.305 182.227 121.2 182.202C116.205 181.006 111.244 183.439 108.579 184.746C107.368 185.339 106.86 185.575 106.447 185.554C106.085 185.532 105.722 185.388 105.302 185.221C104.182 184.777 102.492 184.105 99.37 185.236C95.2592 186.725 93.5988 190.618 93.5825 190.656C93.5367 190.767 93.4593 190.862 93.36 190.929C93.2608 190.995 93.144 191.031 93.0244 191.032ZM91.4039 189.815H92.6376C93.1897 188.71 95.0775 185.498 98.959 184.091C102.512 182.804 104.54 183.609 105.755 184.091C106.078 184.222 106.357 184.33 106.524 184.34C106.693 184.319 107.414 183.965 108.051 183.653C110.633 182.388 115.267 180.118 120.217 180.783C119.917 180.382 119.486 179.981 118.91 179.834C117.373 179.441 111.395 180.413 106.63 183.117C106.557 183.158 106.476 183.184 106.393 183.193C106.309 183.201 106.225 183.192 106.145 183.166C106.09 183.149 100.554 181.416 96.4217 183.941C93.3577 185.809 91.9391 188.509 91.4039 189.815Z" fill="#121216"/>
<path d="M70.799 153.569C70.799 153.569 69.249 155.599 72.0137 160.805C74.7784 166.011 75.869 166.47 76.9145 170.164C76.9145 170.164 73.2683 170.5 70.8375 173.312C70.8375 173.312 68.919 169.224 66.1046 166.455C63.2903 163.687 61.3881 154.388 65.8197 149.367" fill="#4376BB"/>
<path d="M77.7522 152.858C77.7522 152.858 78.6736 156.944 84.1605 158.455C89.6474 159.965 94.2549 158.455 98.15 163.407L102.566 157.056C102.566 157.056 100.286 152.927 94.5476 152.859C88.8091 152.791 85.3171 152.385 83.545 149.608" fill="#4376BB"/>
<g opacity="0.25">
<path d="M64.0051 151.989C64.0051 151.989 67.371 155.863 70.1998 155.926L70.5317 154.174L70.0521 153.454C70.0521 153.454 67.5991 152.108 67.0606 151.44C66.5222 150.772 65.5538 150.262 65.5296 150.262C65.5054 150.262 64.7357 150.702 64.7357 150.702L64.0051 151.989Z" fill="#121216"/>
</g>
<g opacity="0.25">
<path d="M79.197 155.458C79.197 155.458 84.0435 152.992 85.0446 151.17L83.7005 150.208L82.7791 150.376C82.7791 150.376 81.8101 151.534 80.6189 152.12C79.9439 152.457 79.245 152.744 78.5279 152.978L78.2978 153.567L78.2769 154.124L79.197 155.458Z" fill="#121216"/>
</g>
<g opacity="0.25">
<path d="M74.0243 164.876C74.0243 164.876 74.4007 167.56 72.2228 168.065C70.0449 168.57 67.867 168.065 67.867 168.065L70.8408 173.312C70.8408 173.312 72.1052 171.335 74.0492 170.98C75.9932 170.625 76.9165 170.161 76.9165 170.161C76.9165 170.161 75.5736 166.093 74.0243 164.876Z" fill="#121216"/>
</g>
<g opacity="0.25">
<path d="M88.6843 158.916C88.6843 158.916 94.7574 158.916 96.4746 157.699C98.1918 156.482 98.2892 153.569 98.2892 153.569C98.2892 153.569 101.537 154.985 102.566 157.056L97.9827 163.406C97.9827 163.406 97.7312 161.644 94.5476 160.51C92.6368 159.829 90.6766 159.296 88.6843 158.916Z" fill="#121216"/>
</g>
<path d="M75.9749 152.41C75.9749 152.41 78.5723 154.084 82.3093 150.969C86.0463 147.855 84.9433 141.945 82.1375 140.928C79.3316 139.911 75.3704 142.599 75.3704 142.599C75.3704 142.599 71.4034 140.377 68.2695 142.085C65.1356 143.792 64.4397 147.937 66.7979 151.176C69.1562 154.414 74.7614 153.88 75.9749 152.41Z" fill="#4376BB"/>
<g opacity="0.25">
<path d="M84.665 146.437C84.665 146.437 82.1264 149.509 80.1732 149.444C78.2201 149.38 76.8407 146.671 76.8407 146.671L76.7603 149.053C76.7603 149.053 73.12 151.498 69.5457 149.806C65.9713 148.114 66.1223 144.197 66.1223 144.197C66.1223 144.197 64.5155 147.675 66.5967 150.888C68.6779 154.101 72.9351 153.648 73.7898 153.426C74.6445 153.204 75.5808 152.764 75.6612 152.701C75.7416 152.638 76.3944 152.423 76.3944 152.423C76.3944 152.423 78.4736 153.798 81.3827 151.665C84.2919 149.532 84.665 146.437 84.665 146.437Z" fill="#121216"/>
</g>
<path d="M72.2418 154.482C72.1392 154.482 72.0366 154.482 71.9327 154.477C69.4235 154.401 67.2841 153.394 66.0622 151.716C64.7011 149.847 64.1868 147.592 64.6514 145.521C64.8449 144.626 65.2297 143.785 65.7792 143.054C66.3287 142.322 67.0298 141.719 67.8343 141.286C70.7094 139.719 74.0694 140.979 75.3195 141.558C76.5225 140.838 79.8204 139.121 82.4472 140.072C83.9593 140.62 85.1263 142.262 85.4916 144.356C85.8712 146.531 85.3877 149.594 82.8915 151.674C79.7714 154.272 77.2719 153.887 76.1369 153.481C75.2476 154.109 73.8224 154.482 72.2418 154.482ZM70.9682 142.355C70.2063 142.355 69.4228 142.498 68.7047 142.889C68.1291 143.2 67.6276 143.632 67.2346 144.155C66.8416 144.679 66.5664 145.281 66.4281 145.921C66.0792 147.476 66.4823 149.195 67.5337 150.64C68.7949 152.372 71.0688 152.624 71.9882 152.653C73.7231 152.706 74.9725 152.194 75.2731 151.828C75.4143 151.658 75.6121 151.545 75.8299 151.51C76.0478 151.474 76.271 151.519 76.4584 151.636C76.5669 151.701 78.6193 152.857 81.7271 150.27C83.6221 148.69 83.9893 146.342 83.6972 144.67C83.4476 143.241 82.7171 142.11 81.8277 141.789C79.8936 141.089 76.8786 142.684 75.8814 143.361C75.7417 143.456 75.5784 143.509 75.4098 143.517C75.2413 143.524 75.074 143.484 74.9268 143.401C74.9019 143.383 73.0148 142.355 70.9682 142.355Z" fill="#121216"/>
<path d="M75.9742 153.322C75.8195 153.322 75.6673 153.282 75.5321 153.207C75.3969 153.131 75.2832 153.023 75.2016 152.891C75.12 152.759 75.0732 152.609 75.0657 152.454C75.0582 152.299 75.0902 152.145 75.1587 152.006C75.2522 151.814 77.3556 147.391 74.6039 143.095C74.4734 142.891 74.4291 142.644 74.4806 142.407C74.5321 142.171 74.6753 141.964 74.8787 141.834C75.0821 141.703 75.329 141.658 75.565 141.71C75.8011 141.762 76.0071 141.905 76.1376 142.109C79.4597 147.296 76.9014 152.592 76.791 152.816C76.7152 152.968 76.5986 153.096 76.4543 153.185C76.3101 153.275 76.1439 153.322 75.9742 153.322Z" fill="#121216"/>
<g opacity="0.4">
<path d="M78.8912 142.273C78.7768 142.626 79.7361 142.908 80.9103 143.284C82.0845 143.659 83.0288 143.987 83.1431 143.634C83.2575 143.282 82.4982 142.384 81.3239 142.008C80.1497 141.632 79.0055 141.921 78.8912 142.273Z" fill="white"/>
</g>
<g opacity="0.4">
<path d="M70.5409 143.202C70.4265 143.555 71.3858 143.837 72.56 144.213C73.7342 144.589 74.6784 144.916 74.7928 144.564C74.9071 144.211 74.1479 143.314 72.9736 142.937C71.7994 142.561 70.6552 142.85 70.5409 143.202Z" fill="white"/>
</g>
<path d="M70.8408 174.224C70.7993 174.224 70.7578 174.221 70.7166 174.216C70.5664 174.195 70.4238 174.136 70.3017 174.046C70.1795 173.956 70.0816 173.837 70.0168 173.7C69.9978 173.66 68.1303 169.724 65.4695 167.107C62.4421 164.128 60.2211 154.336 65.1428 148.765C65.2214 148.673 65.3175 148.598 65.4255 148.543C65.5336 148.489 65.6513 148.457 65.772 148.448C65.8926 148.44 66.0137 148.456 66.1282 148.495C66.2427 148.534 66.3483 148.595 66.4388 148.675C66.5294 148.756 66.603 148.853 66.6555 148.963C66.708 149.072 66.7383 149.19 66.7446 149.311C66.7509 149.432 66.7331 149.553 66.6922 149.667C66.6514 149.781 66.5882 149.886 66.5065 149.975C62.4735 154.541 64.1763 163.275 66.7476 165.805C68.7465 167.769 70.2899 170.329 71.0813 171.784C72.7233 170.354 74.5915 169.721 75.7429 169.449C75.2247 167.934 74.6516 167.026 73.795 165.66C73.1272 164.597 72.2921 163.274 71.2113 161.233C68.2577 155.673 69.8822 153.271 70.0776 153.015L71.5243 154.124L71.5439 154.097C71.5321 154.115 70.4376 155.891 72.8194 160.376C73.8721 162.358 74.6843 163.65 75.3365 164.688C76.4094 166.394 77.1184 167.522 77.7947 169.915C77.8311 170.044 77.8388 170.179 77.8172 170.311C77.7955 170.444 77.7451 170.569 77.6694 170.68C77.5937 170.79 77.4947 170.883 77.3794 170.951C77.2641 171.018 77.1352 171.06 77.0021 171.072C76.9714 171.072 73.6793 171.423 71.5315 173.909C71.4455 174.008 71.3394 174.087 71.2203 174.141C71.1011 174.196 70.9717 174.224 70.8408 174.224Z" fill="#121216"/>
<path d="M98.15 164.32C98.0118 164.32 97.8753 164.289 97.7508 164.228C97.6263 164.168 97.5171 164.081 97.4312 163.972C94.9756 160.85 92.2926 160.552 88.8954 160.175C87.3147 160 85.6804 159.819 83.9155 159.333C77.9692 157.696 76.9028 153.244 76.8583 153.057C76.8043 152.821 76.8461 152.573 76.9745 152.368C77.1029 152.163 77.3073 152.018 77.5428 151.963C77.7783 151.909 78.0256 151.951 78.2303 152.08C78.4351 152.208 78.5804 152.413 78.6344 152.649C78.6716 152.806 79.5557 156.24 84.3964 157.573C86.0222 158.021 87.5832 158.193 89.0933 158.358C92.2952 158.713 95.3376 159.05 98.067 161.919L101.458 157.04C100.719 156.054 98.5944 153.815 94.5319 153.766C88.9777 153.701 84.88 153.398 82.77 150.095C82.6501 149.892 82.6138 149.649 82.6687 149.419C82.7235 149.189 82.8653 148.99 83.0642 148.862C83.2631 148.735 83.5034 148.69 83.7348 148.737C83.9661 148.784 84.1702 148.919 84.3043 149.113C85.785 151.433 88.7875 151.874 94.5509 151.943C100.747 152.017 103.251 156.423 103.355 156.611C103.438 156.76 103.477 156.929 103.468 157.1C103.459 157.27 103.403 157.434 103.306 157.574L98.8897 163.925C98.809 164.042 98.7019 164.139 98.577 164.207C98.4522 164.275 98.3131 164.313 98.1709 164.318L98.15 164.32Z" fill="#121216"/>
</g>
<defs>
<clipPath id="clip0_195_1964">
<rect width="166" height="199" fill="white"/>
</clipPath>
</defs>
</svg>
