<svg width="164" height="183" viewBox="0 0 164 183" fill="none" xmlns="http://www.w3.org/2000/svg">
<path d="M43.9966 139.792C43.9966 139.792 47.7251 155.134 47.1444 157.288C46.5637 159.443 35.959 161.154 29.7856 164.317C25.7363 166.395 19.2115 171.025 23.1844 174.769C25.339 176.802 31.3595 171.667 49.4365 170.628C67.7885 169.574 71.028 171.071 70.0806 167.19C69.1485 163.324 64.274 162.881 60.1788 161.169C58.8188 160.604 57.2449 159.703 56.5878 158.725C55.9613 157.792 56.8782 141.946 56.8782 141.946L43.9966 139.792Z" fill="#FEBA02"/>
<path d="M77.8433 150.549C77.8433 150.549 78.2711 166.059 78.2711 167.053C78.2711 168.504 74.726 170.246 69.4542 171.423C64.1824 172.599 53.7457 174.555 53.6082 181.233C53.5165 185.343 73.6564 179.781 85.1627 179.949C96.669 180.117 104.05 181.63 103.515 176.802C103.087 172.936 97.0968 171.178 93.8726 170.475C90.6484 169.772 89.1815 168.199 89.0898 166.273C89.0287 165.02 89.3037 150.886 89.3037 150.886L77.8433 150.549Z" fill="#FEBA02"/>
<path d="M46.8694 6.13231L60.7137 5.2002C60.7137 5.2002 68.4151 7.69093 75.7345 18.2957C85.453 32.3997 84.1694 58.1934 84.1694 58.1934L110.849 129.325L114.074 152.841C114.074 152.841 90.2053 156.6 66.8259 153.56C39.2903 149.969 10.8989 125.015 11.3267 87.7308C11.7546 50.4461 41.3073 14.445 41.3073 14.445L46.8694 6.13231Z" fill="url(#paint0_linear_146_151)"/>
<path d="M15.1774 19.7627C15.1774 19.7627 4.55741 23.0633 1.54713 34.9669C-1.46316 46.8705 3.56417 57.949 5.77986 58.6977C6.63557 58.988 9.2944 53.6093 9.2944 53.6093C9.2944 53.6093 13.0229 57.9184 14.8871 58.9116C16.7513 59.9202 17.6835 60.6689 19.3338 60.562C22.558 60.348 27.295 50.9504 27.1574 44.6395L28.8077 13.7269L15.1774 19.7627Z" fill="#FFD51D"/>
<path d="M28.4715 36.8159C28.4715 36.8159 41.4142 34.6613 46.579 30.2146C51.7439 25.768 57.7644 21.7492 59.7662 13.7269C60.9886 8.83705 61.0498 5.4142 61.0498 5.4142C61.0498 5.4142 43.0034 -5.05302 26.6531 3.54996C10.3029 12.1529 14.1688 23.8426 14.1688 23.8426L28.4715 36.8159Z" fill="#FF2B23"/>
<path d="M27.9368 38.5425C27.9368 38.5425 17.4696 44.7159 16.3235 45.5716C15.1775 46.4273 11.4337 48.2916 9.72232 49.728C7.00237 52.02 4.55747 57.1849 5.56599 58.4837C6.57451 59.7673 8.01089 55.7638 12.0144 53.3189C16.0179 50.874 22.9095 47.008 24.7737 45.9995C26.638 44.991 27.2186 44.4256 27.2186 44.4256L27.9368 38.5425Z" fill="#FF600D"/>
<path d="M31.4971 35.8531C32.2153 34.3404 32.5362 30.8717 27.6617 24.7747C21.9315 17.6081 13.8939 17.3177 13.8939 17.3177L13.0381 20.1905L21.9315 29.0838L26.8671 39.7344C26.8671 39.7344 30.0149 38.9704 31.4971 35.8531Z" fill="#A02A1B"/>
<path d="M7.13977 25.065C7.13977 25.065 13.741 25.4929 18.3252 29.5117C21.0451 31.8955 25.1556 36.9992 26.1641 39.3066C27.1727 41.6139 30.6108 35.2266 27.8908 30.9175C25.1709 26.6084 21.9161 22.284 15.8956 20.1905C11.5559 18.693 7.4301 22.3451 7.13977 25.065Z" fill="#EC80AF"/>
<path d="M58.4827 33.5304C58.4827 33.5304 53.1803 20.0529 42.27 20.6183C31.2679 21.199 29.5718 29.3741 30.076 34.2486C30.6567 39.8872 34.3852 43.0044 42.9882 42.7141C51.6064 42.4085 58.4827 33.5304 58.4827 33.5304Z" fill="#FBD3B3"/>
<path d="M50.4604 31.8039C50.4604 35.2878 46.6708 38.4051 43.2174 38.4051C39.7793 38.4051 36.9829 35.5782 36.9829 32.0942C36.9829 28.6102 38.9847 24.7748 43.8592 24.4997C49.0088 24.1788 50.4604 28.3199 50.4604 31.8039Z" fill="#312F2A"/>
<path d="M114.853 117.284C114.853 117.284 118.291 125.031 131.494 133.634C142.694 140.938 148.134 145.4 155.881 148.12C163.629 150.84 163.919 151.558 163.629 152.994C163.338 154.431 151.297 163.752 138.095 162.606C124.908 161.46 118.597 156.295 114.578 153.575C110.559 150.855 102.965 131.632 102.965 131.632L114.853 117.284Z" fill="#01AB46"/>
<path d="M84.2306 57.8266C84.2306 57.8266 65.9397 63.2054 57.9174 75.3993C51.1939 85.6068 51.7898 102.966 58.6355 115.847C67.101 131.769 84.5973 143.092 93.9185 147.402C103.24 151.711 115.999 153.85 121.592 153.285C127.184 152.719 116.58 114.136 106.387 93.4763C96.4551 73.3211 84.2306 57.8266 84.2306 57.8266Z" fill="#B7D019"/>
<defs>
<linearGradient id="paint0_linear_146_151" x1="54.4547" y1="142.202" x2="83.4925" y2="45.3103" gradientUnits="userSpaceOnUse">
<stop offset="0.136" stop-color="#79DA88"/>
<stop offset="0.304" stop-color="#57CD75"/>
<stop offset="0.634" stop-color="#19B553"/>
<stop offset="0.791" stop-color="#01AB46"/>
</linearGradient>
</defs>
</svg>
