<svg width="196" height="196" viewBox="0 0 196 196" fill="none" xmlns="http://www.w3.org/2000/svg">
<path d="M9.17155 189.475C7.48151 189.475 6.11237 188.112 6.11542 186.422L6.11848 146.261L49.3351 189.478L9.17155 189.475Z" fill="#F9EBB2"/>
<path d="M187.689 51.1241L174.673 64.1401L131.453 20.9174L144.466 7.90744C146.856 5.51755 150.728 5.51755 153.112 7.90133L187.689 42.4783C190.076 44.8682 190.073 48.7342 187.689 51.1241Z" fill="#F76D57"/>
<path d="M170.355 68.4594L127.133 25.2375L118.489 33.8815L161.711 77.1033L170.355 68.4594Z" fill="#F9EBB2"/>
<path d="M114.165 38.2039L10.433 141.935L21.2401 152.743L124.972 49.011L114.165 38.2039Z" fill="#45AAB8"/>
<path d="M146.579 70.6234L42.8517 174.351L53.6545 185.153L157.382 81.4262L146.579 70.6234Z" fill="#45AAB8"/>
<path d="M129.292 53.3336L25.5621 157.063L38.5259 170.027L142.255 66.2973L129.292 53.3336Z" fill="#45AAB8"/>
<path opacity="0.2" d="M21.2427 152.739L124.972 49.0093L114.167 38.2044L10.4378 141.934L21.2427 152.739Z" fill="#231F20"/>
<path opacity="0.2" d="M157.384 81.4238L146.581 70.621L42.854 174.348L53.6567 185.151L157.384 81.4238Z" fill="#231F20"/>
<path d="M192.01 38.1568L157.433 3.57987C152.659 -1.1938 144.924 -1.1938 140.145 3.58292C140.145 3.58292 3.70097 140.027 1.83979 141.888C-0.0183298 143.743 6.86906e-06 146.692 6.86906e-06 146.692L0.00306299 189.475C0.00306299 192.852 2.74135 195.587 6.11225 195.59H48.898C48.898 195.59 51.841 195.614 53.7022 193.75C55.5634 191.886 192.01 55.4392 192.01 55.4392C196.79 50.6655 196.79 42.9366 192.01 38.1568ZM6.11531 186.422V181.584L14.0062 189.475H9.17143C7.48139 189.475 6.11225 188.112 6.11531 186.422ZM22.6489 189.478L6.11531 172.944L6.11836 146.264L49.335 189.478H22.6489ZM161.706 77.1041L118.489 33.8844L114.168 38.2057L124.971 49.0091L21.2431 152.74L25.5645 157.061L129.289 53.3335L142.256 66.3007L38.5285 170.025L42.8499 174.35L146.578 70.6251L157.381 81.4285L53.6563 185.156L10.4336 141.934L127.132 25.2386L170.354 68.4613L161.706 77.1041ZM187.689 51.124L174.673 64.14L131.453 20.9172L144.466 7.90734C146.856 5.51745 150.728 5.51745 153.112 7.90122L187.689 42.4782C190.076 44.8681 190.073 48.7341 187.689 51.124Z" fill="#394240"/>
</svg>
