<svg width="149" height="184" viewBox="0 0 149 184" fill="none" xmlns="http://www.w3.org/2000/svg">
<path d="M117.177 118.402C117.177 118.402 125.138 110.441 133.528 112.809C141.917 115.178 147.295 119.472 147.937 128.304C148.579 137.136 146.47 143.737 139.762 148.092C131.159 153.685 120.829 150.033 120.829 150.033L117.177 118.402Z" fill="#ECF0F2"/>
<path d="M65.7577 59.4646C65.7577 59.4646 71.9922 45.9107 71.5643 27.6199C71.1365 9.32896 67.0413 -0.34367 57.8729 0.00778449C47.8335 0.40508 44.7163 16.5872 44.8997 29.9883C45.1136 46.3386 51.073 58.6701 51.073 58.6701L65.7577 59.4646Z" fill="#A8A8A8"/>
<path d="M45.1137 113.161L29.7719 114.444C29.7719 114.444 30.2762 116.018 30.1234 117.455C29.9859 118.891 29.6191 122.467 29.6191 122.467L48.9797 137.671L85.8365 117.164L75.9347 110.426L45.1137 113.161Z" fill="#A8A8A8"/>
<path d="M3.51972 93.6167C3.1333 93.6163 2.76138 93.4695 2.47886 93.2059C2.19633 92.9423 2.02417 92.5814 1.99706 92.1959C1.96994 91.8104 2.08987 91.429 2.3327 91.1284C2.57553 90.8278 2.92324 90.6304 3.30579 90.5759C3.47388 90.5453 7.44684 89.9952 11.7865 89.8424C16.5846 89.6896 17.8682 89.6438 22.0245 90.4384C22.8497 90.5912 23.3998 91.4011 23.2317 92.2262C23.0636 93.0514 22.269 93.5862 21.4439 93.4334C17.639 92.6999 16.5388 92.7305 11.8935 92.8833C7.72189 93.0208 3.7795 93.5862 3.73365 93.5862C3.65725 93.6015 3.59613 93.6167 3.51972 93.6167Z" fill="#8E9395"/>
<path d="M1.94588 104.222C1.25825 104.222 0.631747 103.748 0.46366 103.06C0.265012 102.235 0.769275 101.41 1.59443 101.211C1.80836 101.15 6.9732 99.8972 10.1516 99.3318C13.3147 98.7511 19.0296 98.0635 19.2741 98.0329C19.4733 98.0052 19.6761 98.0179 19.8703 98.0702C20.0645 98.1225 20.2461 98.2134 20.4044 98.3375C20.5627 98.4616 20.6944 98.6163 20.7916 98.7923C20.8888 98.9684 20.9496 99.1623 20.9702 99.3623C20.9965 99.5613 20.9827 99.7636 20.9298 99.9572C20.8769 100.151 20.7858 100.332 20.662 100.49C20.5382 100.648 20.3841 100.779 20.2088 100.877C20.0334 100.975 19.8403 101.036 19.6408 101.058C19.5797 101.058 13.7731 101.777 10.7017 102.342C7.63027 102.907 2.37374 104.176 2.3279 104.191C2.17509 104.206 2.06813 104.222 1.94588 104.222Z" fill="#8E9395"/>
<path d="M97.4496 126.929L43.3868 160.928C43.3868 160.928 32.2014 173.55 34.7074 176.209C36.0368 177.614 41.2628 178.867 45.8164 177.859C52.3412 176.422 58.0103 162.578 58.0103 162.578C58.0103 162.578 55.1376 182.229 59.5842 183.085C64.0309 183.941 70.4793 182.871 73.3521 177.569C76.2248 172.266 77.2181 165.802 79.8005 163.082C82.3829 160.363 84.675 158.345 84.675 158.345C84.675 158.345 86.1114 160.072 86.9671 161.218C87.8228 162.364 89.412 163.938 89.412 163.938C89.412 163.938 82.7038 168.095 80.3811 171.395C78.0126 174.772 78.5016 178.76 81.955 180.151C86.9671 182.153 108.635 173.412 108.635 173.412L104.326 125.37L97.4496 126.929Z" fill="#A8A8A8"/>
<path d="M89.1372 94.5184C89.1372 94.5184 89.8554 89.3536 88.8468 84.6166C87.8383 79.8796 84.9808 74.4397 84.9808 74.4397C84.9808 74.4397 95.6009 70.4209 103.195 63.5446C111.63 55.9043 124.13 41.6016 125.276 29.8356C126.422 18.0695 119.393 7.46475 100.888 18.6502C82.3831 29.8356 68.9209 57.524 68.9209 57.524C68.9209 57.524 54.2974 51.3507 42.3938 57.8144C30.4902 64.2781 24.1793 80.9034 23.5986 82.0494C23.0179 83.1955 15.6527 86.5419 14.7053 96.673C13.7732 106.712 19.3812 112.381 27.7549 114.597C33.5921 116.14 38.9403 114.887 38.9403 114.887C38.9403 114.887 43.387 119.9 54.8628 119.762C66.3385 119.624 75.7972 113.589 75.7972 113.589C75.7972 113.589 73.6426 121.764 63.3129 126.21C55.5657 129.542 46.107 129.083 39.2154 126.073C32.3238 123.063 29.8942 119.624 29.8942 119.624C29.8942 119.624 27.4493 130.81 29.8942 137.549C32.3391 144.287 37.0608 153.609 36.7705 160.638C36.4802 167.667 31.9724 172.832 34.1881 175.689C35.4258 177.294 40.5295 178.638 44.5178 174.405C51.2565 167.239 50.9968 159.125 53.4111 158.773C58.4231 158.055 55.9935 172.679 55.856 175.689C55.7185 178.699 55.2906 182.504 58.5759 183.008C65.605 184.078 66.7511 181.435 69.7613 174.405C72.7716 167.376 72.4202 163.724 75.4916 159.492C77.9976 156.053 82.2303 153.761 82.2303 153.761C82.2303 153.761 81.4357 144.226 84.5988 139.199C87.7466 134.187 93.9964 130.229 98.5806 131.956C103.165 133.683 93.0643 134.89 89.7637 142.072C87.3493 147.328 87.823 152.753 91.2764 156.481C94.7146 160.21 98.8709 163.358 98.8709 163.358C98.8709 163.358 82.429 169.286 80.9467 175.338C79.8771 179.708 81.6649 181.725 91.7043 180.716C101.744 179.708 114.503 176.27 119.53 169.959C124.542 163.648 130.96 142.958 125.627 127.861C121.318 115.667 118.247 110.288 107.199 102.403C96.1662 94.5184 89.1372 94.5184 89.1372 94.5184Z" fill="#DFDFDF"/>
<path d="M80.5341 61.5427C77.8447 58.7617 82.5358 48.921 93.1558 37.598C103.776 26.2751 111.08 22.6841 114.671 25.2666C118.262 27.849 113.097 38.8969 102.905 49.6544C94.47 58.5477 84.9807 66.1269 80.5341 61.5427Z" fill="#FFB0B1"/>
<path d="M46.6112 60.9622C50.5841 61.8179 47.146 67.6245 43.8148 73.2172C40.4836 78.8099 38.0082 81.7133 38.7569 84.4026C39.5057 87.092 45.3123 92.2569 44.9914 98.3844C44.6705 104.512 39.5057 111.51 29.833 110.746C20.1604 109.982 16.2791 102.571 17.8989 94.5031C19.1825 88.1158 25.7531 85.1514 27.4646 82.0189C29.1913 78.9016 32.0335 73.6604 34.9979 69.3207C39.2001 63.2237 42.6229 60.1065 46.6112 60.9622Z" fill="white"/>
<path d="M65.835 84.7647C66.2266 80.7752 64.1747 77.3085 61.2519 77.0216C58.3291 76.7346 55.6422 79.7361 55.2505 83.7256C54.8589 87.7151 56.9108 91.1818 59.8336 91.4687C62.7564 91.7557 65.4433 88.7542 65.835 84.7647Z" fill="#2F3030"/>
<path d="M26.6853 91.0038C26.6853 91.0038 31.4834 87.0614 33.3477 89.0021C35.2119 90.9427 27.6785 95.6033 27.6785 95.6033C27.6785 95.6033 26.9604 99.1178 29.1149 99.4693C31.2695 99.8207 31.5598 95.2365 33.913 96.459C36.2815 97.6814 34.127 103.778 29.9706 103.84C27.4952 103.885 26.0282 102.052 26.0282 102.052C26.0282 102.052 25.3712 103.412 23.1555 103.198C19.5034 102.846 17.7767 95.4352 20.4967 95.5269C22.6512 95.6033 21.3524 99.0414 23.3694 99.0414C25.6615 99.0414 24.7294 94.9615 24.7294 94.9615C24.7294 94.9615 19.7173 89.7202 21.933 87.856C24.1793 85.9918 26.6853 91.0038 26.6853 91.0038Z" fill="#2F3030"/>
<path d="M60.1649 100.203C59.9815 100.203 59.8134 100.172 59.63 100.111C59.5689 100.096 54.0985 98.0634 50.5839 97.2994L42.2713 95.5115C41.4461 95.3282 40.9266 94.5183 41.0947 93.6931C41.2627 92.868 42.0879 92.3485 42.9131 92.5165L51.2257 94.3044C54.9542 95.1142 60.4552 97.1466 60.6844 97.2382C61.479 97.5286 61.8763 98.4148 61.586 99.2094C61.4814 99.5019 61.2884 99.7547 61.0338 99.9326C60.7792 100.111 60.4755 100.205 60.1649 100.203Z" fill="#8E9395"/>
<path d="M58.4385 110.395C58.1634 110.395 57.8884 110.319 57.6286 110.166C57.5828 110.135 52.8764 107.217 48.5214 104.833C45.8046 103.348 43.0093 102.011 40.1476 100.829C39.7727 100.677 39.4736 100.383 39.316 100.01C39.1584 99.6376 39.1552 99.2177 39.3072 98.8428C39.4591 98.4679 39.7538 98.1688 40.1264 98.0112C40.4989 97.8536 40.9188 97.8504 41.2937 98.0024C41.4617 98.0635 45.5111 99.7138 49.9883 102.174C54.4197 104.604 59.1872 107.568 59.2331 107.599C59.9513 108.042 60.1652 108.989 59.7221 109.707C59.4623 110.135 58.958 110.395 58.4385 110.395Z" fill="#8E9395"/>
</svg>
