<svg width="165" height="184" viewBox="0 0 165 184" fill="none" xmlns="http://www.w3.org/2000/svg">
<path d="M134.2 115.877C132.29 112.408 134.72 108.878 138.876 104.508C145.462 97.5705 152.629 81.48 145.967 65.145C146.012 65.0533 144.652 62.3028 144.698 62.2112L141.963 62.0736C141.092 61.9514 111.004 61.8903 80.8864 61.8903C50.7683 61.8903 20.6808 61.9514 19.8098 62.0736C19.8098 62.0736 15.7604 65.0533 15.791 65.145C9.14389 81.48 16.2952 97.5705 22.8812 104.508C27.0222 108.878 29.4518 112.408 27.557 115.877C25.7081 119.254 20.2071 119.743 20.2071 119.743C20.2071 119.743 21.4753 123.196 24.5315 125.06C27.3584 126.787 30.8424 127.184 33.2414 127.245C33.2414 127.245 42.639 140.249 67.2102 140.249H94.5625C119.134 140.249 128.531 127.245 128.531 127.245C130.93 127.184 134.414 126.787 137.241 125.06C140.297 123.196 141.566 119.743 141.566 119.743C141.566 119.743 136.049 119.238 134.2 115.877Z" fill="#543930"/>
<path d="M80.8561 140.234V125.809L124.513 122.356L128.486 127.245C128.486 127.245 119.088 140.249 94.5169 140.249L80.8561 140.234Z" fill="url(#paint0_radial_146_293)"/>
<path d="M128.394 120.935C121.854 111.002 136.355 107.289 136.355 107.289L136.371 107.304C133.849 110.437 132.703 113.172 134.185 115.877C136.034 119.254 141.535 119.743 141.535 119.743C141.535 119.743 134.033 126.405 128.394 120.935Z" fill="url(#paint1_radial_146_293)"/>
<path d="M145.997 65.1451C152.491 80.9605 145.661 97.2496 139.258 104.126C138.387 105.073 134.659 108.725 133.803 111.644C133.803 111.644 119.225 91.3055 114.87 79.356C113.999 76.9417 113.189 74.4662 113.083 71.8991C113.006 69.9737 113.296 67.6816 114.412 66.0466C115.772 64.0449 145.218 63.4489 145.218 63.4489C145.218 63.4642 145.997 65.1451 145.997 65.1451Z" fill="url(#paint2_radial_146_293)"/>
<path d="M15.7758 65.1451C9.28155 80.9605 16.112 97.2496 22.5146 104.126C23.4008 105.073 27.114 108.725 27.9697 111.644C27.9697 111.644 42.5474 91.3055 46.9024 79.356C47.7887 76.9417 48.5833 74.4662 48.6902 71.8991C48.7667 69.9737 48.4763 67.6816 47.3608 66.0466C46.0009 64.0449 44.4117 64.5797 42.1043 64.5797C37.7035 64.5797 18.4346 63.4489 16.9371 63.4489C16.9524 63.4642 15.7758 65.1451 15.7758 65.1451Z" fill="url(#paint3_radial_146_293)"/>
<path d="M80.9169 140.234V125.809L37.2602 122.356L33.2872 127.245C33.2872 127.245 42.6848 140.249 67.256 140.249L80.9169 140.234Z" fill="url(#paint4_radial_146_293)"/>
<path d="M33.3791 120.935C39.9192 111.002 25.4179 107.289 25.4179 107.289L25.4026 107.304C27.9239 110.437 29.07 113.172 27.5878 115.877C25.7388 119.254 20.2378 119.743 20.2378 119.743C20.2378 119.743 27.7406 126.405 33.3791 120.935Z" fill="url(#paint5_radial_146_293)"/>
<path d="M95.8155 165.203V130.378H65.9114V165.203H95.8155Z" fill="#E59600"/>
<path d="M122.633 70.9211H39.1093C30.109 70.9211 22.7438 78.76 22.7438 88.3563C22.7438 97.9525 30.109 105.791 39.1093 105.791H122.618C131.618 105.791 138.983 97.9372 138.983 88.3563C138.999 78.7753 131.633 70.9211 122.633 70.9211Z" fill="#E59600"/>
<path d="M80.8713 10.7766C54.283 10.7766 29.6506 39.2138 29.6506 80.1506C29.6506 120.858 55.0317 140.983 80.8713 140.983C106.711 140.983 132.092 120.858 132.092 80.1506C132.092 39.2138 107.46 10.7766 80.8713 10.7766Z" fill="#FFCA28"/>
<path d="M66.8129 69.9737C65.3918 68.0942 62.1218 65.3743 55.765 65.3743C49.4083 65.3743 46.123 68.1095 44.7171 69.9737C44.0906 70.7989 44.2434 71.7616 44.6866 72.3422C45.0839 72.8771 46.2758 73.3813 47.5899 72.9382C48.904 72.495 51.4712 71.1656 55.765 71.1351C60.0589 71.1656 62.626 72.495 63.9401 72.9382C65.2543 73.3813 66.4462 72.8923 66.8435 72.3422C67.2713 71.7768 67.4394 70.8142 66.8129 69.9737Z" fill="#6D4C41"/>
<path d="M117.04 69.9737C115.619 68.0942 112.349 65.3743 105.993 65.3743C99.6358 65.3743 96.3505 68.1095 94.9447 69.9737C94.3182 70.7989 94.471 71.7616 94.9141 72.3422C95.3114 72.8771 96.5033 73.3813 97.8174 72.9382C99.1316 72.495 101.699 71.1656 105.993 71.1351C110.286 71.1656 112.854 72.495 114.168 72.9382C115.482 73.3813 116.674 72.8923 117.071 72.3422C117.499 71.7768 117.667 70.8142 117.04 69.9737Z" fill="#6D4C41"/>
<path d="M55.7498 91.5195C59.9103 91.5195 63.2831 88.0304 63.2831 83.7263C63.2831 79.4223 59.9103 75.9332 55.7498 75.9332C51.5892 75.9332 48.2164 79.4223 48.2164 83.7263C48.2164 88.0304 51.5892 91.5195 55.7498 91.5195Z" fill="#404040"/>
<path d="M105.992 91.5195C110.153 91.5195 113.526 88.0304 113.526 83.7264C113.526 79.4224 110.153 75.9333 105.992 75.9333C101.832 75.9333 98.459 79.4224 98.459 83.7264C98.459 88.0304 101.832 91.5195 105.992 91.5195Z" fill="#404040"/>
<path d="M93.7374 110.208C88.8782 113.096 72.9099 113.096 68.0507 110.208C65.2543 108.542 62.3969 111.094 63.5582 113.63C64.7042 116.121 73.3989 121.913 80.9323 121.913C88.4656 121.913 97.0533 116.121 98.1993 113.63C99.3454 111.094 96.5338 108.542 93.7374 110.208Z" fill="#795548"/>
<path d="M86.7696 97.8455C86.6015 97.7844 86.4487 97.7385 86.2806 97.7233H75.462C75.2939 97.7385 75.1258 97.7844 74.973 97.8455C73.995 98.2428 73.4602 99.2513 73.9186 100.336C74.377 101.421 76.5316 104.447 80.8713 104.447C85.211 104.447 87.3656 101.406 87.824 100.336C88.2824 99.2666 87.7476 98.2428 86.7696 97.8455Z" fill="#E59600"/>
<path d="M134.766 29.8315C133.559 22.6191 113.602 9.78334 106.13 7.41485C85.8985 1.01227 72.7419 3.60997 65.6822 7.46069C64.2153 8.25528 54.726 13.5271 48.0942 9.75278C43.9379 7.38429 32.0038 26.317 25.9985 29.9385C18.9847 34.1712 19.5959 41.8726 20.6655 44.8676C16.8148 48.1377 11.9709 55.0904 15.2868 64.1212C17.7928 70.9211 27.771 74.0536 27.771 74.0536C26.8236 90.465 31.255 98.4262 31.255 98.4262C31.255 98.4262 38.4216 70.2335 37.8257 65.9243C37.8257 65.9243 49.6834 63.5711 63.1456 55.8697C72.2376 50.659 78.4568 44.562 88.6796 42.2546C104.235 38.7554 107.704 50.0172 107.704 50.0172C107.704 50.0172 122.098 47.2514 126.438 67.2385C128.226 75.4594 129.387 89.0897 130.365 97.4482C130.273 96.7148 135.316 87.7756 136.263 78.6072C136.508 76.2387 142.895 73.1062 145.646 62.9293C149.313 49.3601 145.279 34.6602 134.766 29.8315Z" fill="#543930"/>
<path d="M145.661 62.9141C143.369 71.3643 138.586 74.9552 136.875 77.2932C134.521 62.9752 134.888 49.3755 117.453 33.2697C117.453 33.2697 120.952 32.521 122.664 29.4037C123.993 26.9741 123.489 23.9485 123.489 23.9485C124.069 23.9791 124.665 24.0402 125.277 24.1166C128.272 24.6667 131.328 26.1337 134.124 28.0132C134.46 28.655 134.674 29.2662 134.766 29.8316C145.279 34.645 149.328 49.3449 145.661 62.9141Z" fill="url(#paint6_radial_146_293)"/>
<path d="M20.3141 45.1733C16.6926 48.3823 11.8181 55.5489 15.4091 64.4422C18.1137 71.1504 27.7711 74.0537 27.7711 74.0537C27.7711 74.0843 29.6964 74.6649 30.6897 74.6649L32.9512 41.2004C28.3212 41.2004 23.8745 42.5909 21.0018 44.5927C21.0476 44.6385 20.2989 45.1275 20.3141 45.1733Z" fill="url(#paint7_radial_146_293)"/>
<path d="M33.0274 41.2157V41.1393C28.3974 41.1393 23.966 42.5298 21.078 44.5163C21.078 44.5621 20.8488 44.7302 20.6654 44.8678V44.8525C20.6807 44.8372 20.7113 44.8219 20.7265 44.8066C19.6569 41.8116 19.0304 34.1102 26.0595 29.8775C26.7318 29.4649 27.4806 28.869 28.2904 28.1202C30.1547 27.3562 32.1412 26.913 33.9748 26.7297C34.5096 26.6838 35.4876 26.6074 35.7779 26.6074L43.1279 27.509L33.0274 41.2157Z" fill="url(#paint8_radial_146_293)"/>
<path d="M161.354 75.4442C159.459 75.4442 157.916 76.9112 157.916 78.7143V92.7724C157.916 94.5755 159.459 96.0425 161.354 96.0425C163.249 96.0425 164.792 94.5755 164.792 92.7724V78.7143C164.792 76.9112 163.249 75.4442 161.354 75.4442Z" fill="#E8AD00"/>
<path d="M154.478 75.4442C152.583 75.4442 151.04 76.9112 151.04 78.7143V92.7724C151.04 94.5755 152.583 96.0425 154.478 96.0425C156.373 96.0425 157.916 94.5755 157.916 92.7724V78.7143C157.916 76.9112 156.373 75.4442 154.478 75.4442Z" fill="#E8AD00"/>
<path d="M157.916 75.4442C156.021 75.4442 154.478 76.9112 154.478 78.7143V95.8133C154.478 97.6164 156.021 99.0833 157.916 99.0833C159.811 99.0833 161.354 97.6164 161.354 95.8133V78.7143C161.354 76.9112 159.811 75.4442 157.916 75.4442Z" fill="#FFCA28"/>
<path d="M157.916 77.5835C160.245 77.5835 162.134 75.7842 162.134 73.5647C162.134 71.3452 160.245 69.5459 157.916 69.5459C155.587 69.5459 153.699 71.3452 153.699 73.5647C153.699 75.7842 155.587 77.5835 157.916 77.5835Z" fill="#FFCA28"/>
<path d="M157.916 73.5189C157.076 73.5189 156.388 72.8312 156.388 71.9908V13.9245C156.388 13.0841 157.076 12.3964 157.916 12.3964C158.756 12.3964 159.444 13.0841 159.444 13.9245V71.9908C159.444 72.8312 158.756 73.5189 157.916 73.5189Z" fill="#504F4F"/>
<path d="M159.444 12.3352C112.334 0.492733 79.9851 0.110718 79.9851 0.110718C79.9851 0.110718 47.636 0.492733 0.525879 12.3352V13.5118C0.525879 15.5441 1.85529 17.332 3.79593 17.8974C9.48032 19.5782 21.3228 23.0011 29.0548 24.5597C29.0548 24.5597 27.3586 27.1727 25.9987 29.9385C25.9987 29.9385 41.2029 38.9846 79.9851 42.8964C118.767 38.9846 134.766 29.8315 134.766 29.8315C133.421 27.0657 131.741 24.5597 131.741 24.5597C138.617 23.4289 150.566 19.7616 156.251 17.9585C158.161 17.3472 159.444 15.59 159.444 13.5882V12.3352Z" fill="url(#paint9_linear_146_293)"/>
<path d="M79.9851 0.110718C79.9851 0.110718 47.636 0.492733 0.525879 12.3352C0.525879 12.3352 54.6345 27.1116 79.9851 26.6684C105.336 27.1116 159.444 12.3352 159.444 12.3352C112.319 0.492733 79.9851 0.110718 79.9851 0.110718Z" fill="url(#paint10_linear_146_293)"/>
<path opacity="0.4" d="M159.444 12.3352C112.334 0.492733 79.9851 0.110718 79.9851 0.110718C79.9851 0.110718 47.636 0.492733 0.525879 12.3352V13.5118C0.525879 15.5441 1.85529 17.332 3.79593 17.8974C9.48032 19.5782 21.3228 23.0011 29.0548 24.5597C29.0548 24.5597 27.3586 27.1727 25.9987 29.9385C25.9987 29.9385 41.2029 38.9846 79.9851 42.8964C118.767 38.9846 134.766 29.8315 134.766 29.8315C133.421 27.0657 131.741 24.5597 131.741 24.5597C138.617 23.4289 150.566 19.7616 156.251 17.9585C158.161 17.3472 159.444 15.59 159.444 13.5882V12.3352Z" fill="url(#paint11_linear_146_293)"/>
<path d="M158.038 178.879C158.038 156.554 124.803 145.964 95.8157 143.58L82.6743 160.435C82.2465 160.985 81.5741 161.321 80.8712 161.321C80.1683 161.321 79.496 161 79.0681 160.435L65.8962 143.55C49.7752 144.788 3.68884 150.808 3.68884 178.879V183.478H158.023L158.038 178.879Z" fill="#212121"/>
<path d="M158.038 178.879C158.038 156.554 124.803 145.964 95.8157 143.58L82.6743 160.435C82.2465 160.985 81.5741 161.321 80.8712 161.321C80.1683 161.321 79.496 161 79.0681 160.435L65.8962 143.55C49.7752 144.788 3.68884 150.808 3.68884 178.879V183.478H158.023L158.038 178.879Z" fill="url(#paint12_radial_146_293)"/>
<defs>
<radialGradient id="paint0_radial_146_293" cx="0" cy="0" r="1" gradientUnits="userSpaceOnUse" gradientTransform="translate(103.155 119.388) scale(35.7857 17.5779)">
<stop offset="0.728" stop-color="#6D4C41" stop-opacity="0"/>
<stop offset="1" stop-color="#6D4C41"/>
</radialGradient>
<radialGradient id="paint1_radial_146_293" cx="0" cy="0" r="1" gradientTransform="matrix(-9.57842 4.48199 -3.325 -7.10582 138.405 114.065)" gradientUnits="userSpaceOnUse">
<stop offset="0.663" stop-color="#6D4C41"/>
<stop offset="1" stop-color="#6D4C41" stop-opacity="0"/>
</radialGradient>
<radialGradient id="paint2_radial_146_293" cx="0" cy="0" r="1" gradientTransform="matrix(-3.46528 -46.3215 38.6059 -2.88929 110.997 84.1537)" gradientUnits="userSpaceOnUse">
<stop offset="0.725" stop-color="#6D4C41" stop-opacity="0"/>
<stop offset="1" stop-color="#6D4C41"/>
</radialGradient>
<radialGradient id="paint3_radial_146_293" cx="0" cy="0" r="1" gradientTransform="matrix(3.46528 -46.3215 -38.6059 -2.88929 50.7806 84.1528)" gradientUnits="userSpaceOnUse">
<stop offset="0.725" stop-color="#6D4C41" stop-opacity="0"/>
<stop offset="1" stop-color="#6D4C41"/>
</radialGradient>
<radialGradient id="paint4_radial_146_293" cx="0" cy="0" r="1" gradientUnits="userSpaceOnUse" gradientTransform="translate(58.621 119.388) rotate(180) scale(35.7857 17.5779)">
<stop offset="0.728" stop-color="#6D4C41" stop-opacity="0"/>
<stop offset="1" stop-color="#6D4C41"/>
</radialGradient>
<radialGradient id="paint5_radial_146_293" cx="0" cy="0" r="1" gradientTransform="matrix(9.57842 4.48199 3.325 -7.10582 23.3757 114.066)" gradientUnits="userSpaceOnUse">
<stop offset="0.663" stop-color="#6D4C41"/>
<stop offset="1" stop-color="#6D4C41" stop-opacity="0"/>
</radialGradient>
<radialGradient id="paint6_radial_146_293" cx="0" cy="0" r="1" gradientTransform="matrix(15.9228 49.254 36.5458 -11.8127 109.707 60.4105)" gradientUnits="userSpaceOnUse">
<stop offset="0.699" stop-color="#6D4C41" stop-opacity="0"/>
<stop offset="1" stop-color="#6D4C41"/>
</radialGradient>
<radialGradient id="paint7_radial_146_293" cx="0" cy="0" r="1" gradientTransform="matrix(25.5629 3.51693 4.94124 -35.9201 41.9602 60.1624)" gradientUnits="userSpaceOnUse">
<stop offset="0.598" stop-color="#6D4C41" stop-opacity="0"/>
<stop offset="1" stop-color="#6D4C41"/>
</radialGradient>
<radialGradient id="paint8_radial_146_293" cx="0" cy="0" r="1" gradientTransform="matrix(-19.0964 -5.13745 -4.80919 17.8703 39.743 43.2383)" gradientUnits="userSpaceOnUse">
<stop offset="0.66" stop-color="#6D4C41" stop-opacity="0"/>
<stop offset="1" stop-color="#6D4C41"/>
</radialGradient>
<linearGradient id="paint9_linear_146_293" x1="79.9805" y1="-6.51037" x2="79.9805" y2="37.2533" gradientUnits="userSpaceOnUse">
<stop offset="0.003" stop-color="#424242"/>
<stop offset="0.472" stop-color="#353535"/>
<stop offset="1" stop-color="#212121"/>
</linearGradient>
<linearGradient id="paint10_linear_146_293" x1="79.9805" y1="-6.25671" x2="79.9805" y2="41.1132" gradientUnits="userSpaceOnUse">
<stop offset="0.003" stop-color="#616161"/>
<stop offset="0.324" stop-color="#505050"/>
<stop offset="0.955" stop-color="#242424"/>
<stop offset="1" stop-color="#212121"/>
</linearGradient>
<linearGradient id="paint11_linear_146_293" x1="3.41239" y1="21.502" x2="157.484" y2="21.502" gradientUnits="userSpaceOnUse">
<stop offset="0.001" stop-color="#BFBEBE"/>
<stop offset="0.3" stop-color="#212121" stop-opacity="0"/>
<stop offset="0.7" stop-color="#212121" stop-opacity="0"/>
<stop offset="1" stop-color="#BFBEBE"/>
</linearGradient>
<radialGradient id="paint12_radial_146_293" cx="0" cy="0" r="1" gradientUnits="userSpaceOnUse" gradientTransform="translate(80.8712 181.344) scale(82.7705 43.4297)">
<stop offset="0.598" stop-color="#212121"/>
<stop offset="1" stop-color="#616161"/>
</radialGradient>
</defs>
</svg>
