<svg width="184" height="184" viewBox="0 0 184 184" fill="none" xmlns="http://www.w3.org/2000/svg">
<path d="M4.23889 10.2418H180.409V128.697H4.23889V10.2418Z" fill="url(#paint0_linear_146_294)"/>
<path d="M176.803 13.848V125.106H7.8298V13.848H176.803ZM184 6.65085H0.632629V132.303H184V6.65085Z" fill="url(#paint1_linear_146_294)"/>
<path d="M145.646 115.602C143.736 112.133 146.165 108.603 150.322 104.233C156.908 97.2955 164.074 81.205 157.412 64.8701C157.458 64.7784 156.098 62.0279 156.143 61.9362L153.408 61.7987C152.537 61.6764 122.45 61.6153 92.3316 61.6153C62.2135 61.6153 32.126 61.6764 31.255 61.7987C31.255 61.7987 27.2057 64.7784 27.2362 64.8701C20.5891 81.205 27.7405 97.2803 34.3264 104.233C38.4675 108.603 40.8971 112.133 39.0023 115.602C37.1533 118.979 31.6523 119.468 31.6523 119.468C31.6523 119.468 32.9206 122.921 35.9767 124.785C38.8036 126.512 42.2876 126.909 44.6867 126.97C44.6867 126.97 54.0843 139.974 78.6555 139.974H106.008C130.579 139.974 139.977 126.97 139.977 126.97C142.376 126.909 145.86 126.512 148.687 124.785C151.743 122.921 153.011 119.468 153.011 119.468C153.011 119.468 147.495 118.979 145.646 115.602Z" fill="#312D2D"/>
<path d="M92.301 139.959V125.534L135.958 122.081L139.931 126.97C139.931 126.97 130.533 139.974 105.962 139.974L92.301 139.959Z" fill="url(#paint2_radial_146_294)"/>
<path d="M139.839 120.659C133.299 110.727 147.8 107.014 147.8 107.014L147.816 107.029C145.294 110.162 144.148 112.897 145.63 115.602C147.479 118.979 152.98 119.468 152.98 119.468C152.98 119.468 145.478 126.13 139.839 120.659Z" fill="url(#paint3_radial_146_294)"/>
<path d="M157.442 64.8701C163.937 80.6855 157.106 96.9747 150.704 103.851C149.833 104.798 146.104 108.45 145.248 111.369C145.248 111.369 130.671 91.0305 126.316 79.0811C125.445 76.6667 124.635 74.1913 124.528 71.6241C124.451 69.6988 124.742 67.4067 125.857 65.7717C127.217 63.7699 156.663 63.174 156.663 63.174C156.663 63.1892 157.442 64.8701 157.442 64.8701Z" fill="url(#paint4_radial_146_294)"/>
<path d="M27.221 64.8699C20.742 80.6854 27.5724 96.9745 33.9597 103.835C34.846 104.783 38.5592 108.435 39.4149 111.354C39.4149 111.354 53.9926 91.0151 58.3476 79.0656C59.2339 76.6513 60.0285 74.1758 60.1354 71.6087C60.2118 69.6833 59.9215 67.3912 58.806 65.7562C57.446 63.7545 55.8569 64.2893 53.5495 64.2893C49.1487 64.2893 29.8798 63.1585 28.3823 63.1585C28.3976 63.1891 27.221 64.8699 27.221 64.8699Z" fill="url(#paint5_radial_146_294)"/>
<path d="M92.3623 139.959V125.534L48.7056 122.081L44.7326 126.97C44.7326 126.97 54.1302 139.974 78.7014 139.974L92.3623 139.959Z" fill="url(#paint6_radial_146_294)"/>
<path d="M44.8243 120.659C51.3644 110.727 36.8631 107.014 36.8631 107.014L36.8478 107.029C39.3691 110.162 40.5152 112.897 39.033 115.602C37.184 118.979 31.683 119.468 31.683 119.468C31.683 119.468 39.1858 126.13 44.8243 120.659Z" fill="url(#paint7_radial_146_294)"/>
<path d="M169.483 178.099C169.483 154.46 130.762 142.098 92.5303 142.098H92.3164C53.9009 142.144 15.1493 153.284 15.1493 178.099V183.066H169.483V178.099Z" fill="url(#paint8_linear_146_294)"/>
<path d="M92.3164 134.672H78.4416V149.922L92.2858 153.559L106.191 149.922V134.672H92.3164Z" fill="#EDC391"/>
<path d="M12.8572 178.099V183.066H63.1151L65.1474 141.747C36.5727 145.964 12.8572 157.318 12.8572 178.099Z" fill="url(#paint9_linear_146_294)"/>
<path d="M119.485 141.747L121.502 183.066H171.776V178.099C171.776 157.318 148.06 145.964 119.485 141.747Z" fill="url(#paint10_linear_146_294)"/>
<path d="M77.0816 134.351L92.3469 153.941L67.5312 164.087L63.8486 141.869L77.0816 134.351Z" fill="#66C0E8"/>
<path d="M107.551 134.351L92.2857 153.941L117.101 164.087L120.784 141.869L107.551 134.351Z" fill="#66C0E8"/>
<path d="M69.2122 138.752C69.2122 138.752 67.4702 142.908 66.2477 147.92C63.8181 157.883 63.6653 172.064 63.6653 172.064C63.6653 172.064 53.137 168.488 49.8516 159.763C45.9703 149.448 52.5257 143.779 52.5257 143.779C52.5257 143.779 53.901 143.198 59.6771 140.02C65.4531 136.842 69.2122 138.752 69.2122 138.752Z" fill="#AF5214"/>
<path d="M115.421 138.752C115.421 138.752 117.163 142.908 118.385 147.92C120.815 157.883 120.968 172.064 120.968 172.064C120.968 172.064 131.496 168.488 134.781 159.763C138.662 149.448 132.107 143.779 132.107 143.779C132.107 143.779 130.732 143.198 124.956 140.02C119.18 136.842 115.421 138.752 115.421 138.752Z" fill="#AF5214"/>
<path d="M133.757 70.6461H50.2489C41.2486 70.6461 33.8834 78.5004 33.8834 88.0813C33.8834 97.6622 41.2486 105.516 50.2489 105.516H133.757C142.758 105.516 150.123 97.6622 150.123 88.0813C150.123 78.5004 142.758 70.6461 133.757 70.6461Z" fill="#EDC391"/>
<path d="M91.9956 10.5016C65.4073 10.5016 40.775 38.9389 40.775 79.8756C40.775 120.583 66.1561 140.708 91.9956 140.708C117.835 140.708 143.216 120.568 143.216 79.8604C143.216 38.9389 118.599 10.5016 91.9956 10.5016Z" fill="#F9DDBD"/>
<path d="M67.8369 91.2444C71.9974 91.2444 75.3702 87.7553 75.3702 83.4513C75.3702 79.1472 71.9974 75.6581 67.8369 75.6581C63.6763 75.6581 60.3035 79.1472 60.3035 83.4513C60.3035 87.7553 63.6763 91.2444 67.8369 91.2444Z" fill="#312D2D"/>
<path d="M115.436 91.2444C119.596 91.2444 122.969 87.7553 122.969 83.4513C122.969 79.1472 119.596 75.6581 115.436 75.6581C111.275 75.6581 107.903 79.1472 107.903 83.4513C107.903 87.7553 111.275 91.2444 115.436 91.2444Z" fill="#312D2D"/>
<path d="M79.1292 69.714C77.7081 67.8344 74.438 65.1145 68.0813 65.1145C61.7246 65.1145 58.4392 67.8497 57.0334 69.714C56.4069 70.5391 56.5597 71.5018 57.0029 72.0825C57.4002 72.6173 58.592 73.1215 59.9062 72.6784C61.2203 72.2353 63.7874 70.9059 68.0813 70.8753C72.3752 70.9059 74.9423 72.2353 76.2564 72.6784C77.5706 73.1215 78.7624 72.6326 79.1597 72.0825C79.5876 71.5018 79.7557 70.5391 79.1292 69.714Z" fill="#454140"/>
<path d="M126.484 69.714C125.063 67.8344 121.793 65.1145 115.436 65.1145C109.079 65.1145 105.794 67.8497 104.388 69.714C103.762 70.5391 103.914 71.5018 104.357 72.0825C104.755 72.6173 105.947 73.1215 107.261 72.6784C108.575 72.2353 111.142 70.9059 115.436 70.8753C119.73 70.9059 122.297 72.2353 123.611 72.6784C124.925 73.1215 126.117 72.6326 126.514 72.0825C126.957 71.5018 127.11 70.5391 126.484 69.714Z" fill="#454140"/>
<path d="M97.8938 97.5857C97.7257 97.5246 97.5729 97.4788 97.4048 97.4635H86.5861C86.418 97.4788 86.2499 97.5246 86.0971 97.5857C85.1192 97.983 84.5844 98.9916 85.0428 100.076C85.5012 101.161 87.6558 104.187 91.9955 104.187C96.3351 104.187 98.4897 101.146 98.9481 100.076C99.4218 98.9916 98.8717 97.983 97.8938 97.5857Z" fill="#DBA689"/>
<path d="M105.03 109.933C100.171 112.821 84.2023 112.821 79.3431 109.933C76.5467 108.267 73.6892 110.819 74.8506 113.355C75.9966 115.846 84.6913 121.638 92.2246 121.638C99.758 121.638 108.346 115.846 109.492 113.355C110.653 110.819 107.826 108.267 105.03 109.933Z" fill="#444444"/>
<path d="M137.898 74.4663C137.791 72.6479 137.715 72.4645 135.316 71.7005C133.436 71.1045 123.168 70.2641 115.436 70.692C114.886 70.7225 114.351 70.7531 113.847 70.7989C106.833 71.3949 98.4133 74.2218 92.0871 74.3746C89.3977 74.4357 78.3193 71.5324 70.4803 70.9212C69.9761 70.8906 69.4718 70.8448 68.9523 70.8295C61.205 70.4322 50.8906 71.3338 49.0111 71.945C46.612 72.7243 46.5356 72.9077 46.4439 74.7261C46.337 76.5444 46.6426 78.0878 48.0637 78.5615C50.0043 79.2033 50.0196 81.6176 51.3184 88.555C52.495 94.8812 55.322 99.8779 67.47 100.749C67.9896 100.779 68.4786 100.81 68.9675 100.81C79.7098 100.963 83.4077 93.8879 84.6302 91.5347C86.907 87.1645 86.1888 81.1439 92.2094 81.1286C98.2146 81.1134 97.6492 87.0269 99.9566 91.3819C101.194 93.7199 104.801 100.825 115.451 100.673C115.971 100.673 116.506 100.642 117.056 100.596C129.188 99.6487 132 94.6367 133.131 88.3105C134.384 81.3578 134.399 78.9282 136.324 78.2864C137.715 77.828 138.021 76.2847 137.898 74.4663ZM75.9355 97.7539C74.0713 98.6249 71.5805 99.0681 68.9523 99.0681C63.4665 99.0528 57.3848 97.1274 55.1844 93.2462C52.0672 87.7146 51.2573 76.5292 55.2303 74.1912C56.9723 73.1674 62.8553 72.4645 68.937 72.7243C75.2479 72.9993 81.7727 74.3135 84.1259 77.4002C88.0225 82.4886 81.8338 94.9729 75.9355 97.7539ZM129.265 93.0169C127.08 96.9288 120.952 98.9 115.436 98.9153C112.838 98.9305 110.378 98.5027 108.544 97.647C102.631 94.8965 96.3657 82.458 100.216 77.339C102.554 74.2218 109.11 72.8771 115.436 72.5715C121.502 72.2812 127.37 72.9535 129.097 73.962C133.085 76.2847 132.352 87.4701 129.265 93.0169Z" fill="#212121" stroke="#212121" stroke-width="0.840434" stroke-miterlimit="10"/>
<path opacity="0.67" d="M149.878 179.414L150.749 176.052L150.765 175.975L153.714 164.362L143.17 161.337L89.8102 146.01C89.7338 145.995 89.6727 145.995 89.6116 145.964C87.2255 145.336 84.6883 145.667 82.5433 146.887C80.3984 148.106 78.8163 150.117 78.1358 152.489L69.3495 183.066H148.839L149.878 179.414Z" fill="url(#paint11_linear_146_294)"/>
<path d="M156.113 164.545C156.556 163.002 155.67 161.398 154.126 160.97L95.0058 144.008C92.5965 143.32 90.0124 143.615 87.8208 144.83C85.6291 146.044 84.009 148.079 83.3161 150.487L73.9797 183.066H150.811L156.113 164.545Z" fill="#424242"/>
<path d="M155.089 177.427C155.624 175.563 154.509 173.607 152.614 173.072L89.1686 154.888C82.2465 152.902 81.0393 158.479 79.0987 165.248L73.9797 183.066H153.469L155.089 177.427Z" fill="url(#paint12_linear_146_294)"/>
<path d="M91.1856 143.703C89.3602 143.939 87.6439 144.705 86.2482 145.905C84.8526 147.105 83.8387 148.687 83.3314 150.457L73.9797 183.066H79.8933L91.1856 143.703Z" fill="url(#paint13_linear_146_294)"/>
<path opacity="0.2" d="M92.8207 148.791C93.0957 148.791 93.4013 148.822 93.7222 148.898L150.643 165.248L150.169 166.899C132.153 161.871 97.7716 152.199 90.6661 149.846C91.0328 149.341 91.751 148.791 92.8207 148.791ZM92.8207 143.703C85.9138 143.703 82.4604 152.214 88.0531 154.307C94.2112 156.6 153.653 173.133 153.653 173.133L156.067 164.698C156.541 163.079 155.777 161.428 154.371 161.031L95.0211 143.978C94.2571 143.794 93.5236 143.703 92.8207 143.703Z" fill="#424242"/>
<path d="M152.476 164.912L91.6593 147.462C90.009 146.988 88.2059 148.165 87.6558 150.075L87.5641 150.411C87.014 152.321 87.9156 154.277 89.5659 154.751L150.383 172.201C150.383 172.201 149.863 170.933 150.49 168.686C151.116 166.425 152.476 164.912 152.476 164.912Z" fill="url(#paint14_linear_146_294)"/>
<path d="M153.546 31.9556C149.818 26.317 141.459 18.7531 133.956 18.2489C132.749 11.0364 125.032 4.92418 117.56 2.55569C97.3439 -3.84689 84.1873 3.335 77.1276 7.18571C75.6607 7.9803 66.1714 13.2521 59.5396 9.4778C55.3833 7.10931 55.4597 0.706732 55.4597 0.706732C55.4597 0.706732 42.4406 5.67293 46.8873 19.5019C42.4101 19.6853 36.5423 21.5801 33.4404 27.8604C29.7425 35.3479 31.0566 41.5977 32.1262 44.5927C28.2755 47.8627 23.4316 54.8154 26.7475 63.8462C29.2535 70.6461 39.2317 73.7786 39.2317 73.7786C38.5288 86.0184 40.8056 93.5517 42.0128 96.5926C42.2267 97.1274 42.9755 97.0816 43.113 96.5315C44.6258 90.4651 49.7906 69.332 49.2711 65.6493C49.2711 65.6493 66.6146 62.2112 83.1482 50.0325C86.5099 47.5571 90.162 45.4484 94.0433 43.905C114.81 35.6382 119.149 49.7422 119.149 49.7422C119.149 49.7422 133.544 46.9764 137.883 66.9635C139.518 74.451 140.619 86.4463 141.551 94.8353C141.612 95.4313 142.422 95.5535 142.651 95.0034C144.103 91.6722 147.006 85.071 147.693 78.3322C147.938 75.9637 154.325 72.8312 157.076 62.6543C160.758 49.0852 156.251 36.0355 153.546 31.9556Z" fill="#312D2D"/>
<path d="M147.663 78.3933C147.907 76.0248 154.295 72.8923 157.045 62.7154C157.335 61.6305 157.58 60.5303 157.809 59.4301C160.04 47.068 156.037 35.7146 153.546 31.9555C150.092 26.7448 142.697 19.8991 135.683 18.4933C135.072 18.4169 134.476 18.3405 133.91 18.3099C133.91 18.3099 134.414 21.5953 133.085 24.2083C131.374 27.6005 127.874 28.4104 127.874 28.4104C146.165 46.7166 144.866 62.0278 147.663 78.3933Z" fill="url(#paint15_radial_146_294)"/>
<path d="M81.5435 4.87826C79.8627 5.68813 78.3957 6.498 77.1121 7.18563C75.6452 7.98022 66.1559 13.252 59.5242 9.47772C55.4442 7.15507 55.4442 0.951142 55.4442 0.737213C53.5647 3.13627 47.8803 20.2658 64.5056 21.4119C71.6722 21.9009 76.0883 15.6511 78.7166 10.364C79.664 8.43864 81.1462 5.62701 81.5435 4.87826Z" fill="url(#paint16_radial_146_294)"/>
<path d="M115.482 1.94445C126.667 4.97001 132.122 10.6697 133.941 18.2641C134.476 20.4951 135.117 41.3073 95.3878 17.6529C80.6114 8.85128 84.6455 3.35027 86.3722 2.72376C93.1263 0.278863 102.952 -1.44785 115.482 1.94445Z" fill="url(#paint17_radial_146_294)"/>
<path d="M55.3985 0.737257C55.3832 0.752537 55.3526 0.752538 55.3068 0.783099H55.2915C53.8704 1.37904 42.7003 6.55917 46.8719 19.5018L58.7602 21.4119C48.2319 10.7461 55.4443 0.706696 55.4443 0.706696C55.4443 0.706696 55.4138 0.721976 55.3985 0.737257Z" fill="url(#paint18_radial_146_294)"/>
<path d="M54.2218 20.6785L46.8718 19.5019C46.5815 19.5019 45.6035 19.5936 45.0687 19.67C40.9276 20.2506 36.0531 22.3899 33.4096 27.8604C30.5674 33.7587 30.6438 38.8166 31.4231 42.1936C31.6523 43.3244 32.1107 44.6079 32.1107 44.6079C32.1107 44.6079 35.7475 41.1545 44.4116 40.9253L54.2218 20.6785Z" fill="url(#paint19_radial_146_294)"/>
<path d="M31.7593 44.8982C28.1378 48.1071 23.2633 55.2737 26.8542 64.167C29.5589 70.8752 39.2163 73.7786 39.2163 73.7786C39.2163 73.8091 41.1416 74.3898 42.1349 74.3898L44.3964 40.9252C39.7664 40.9252 35.3197 42.3158 32.4469 44.3175C32.4928 44.3634 31.744 44.8524 31.7593 44.8982Z" fill="url(#paint20_radial_146_294)"/>
<defs>
<linearGradient id="paint0_linear_146_294" x1="92.3148" y1="10.9982" x2="92.3148" y2="128.803" gradientUnits="userSpaceOnUse">
<stop stop-color="#26A69A"/>
<stop offset="1" stop-color="#00796B"/>
</linearGradient>
<linearGradient id="paint1_linear_146_294" x1="92.3148" y1="6.64321" x2="92.3148" y2="132.297" gradientUnits="userSpaceOnUse">
<stop stop-color="#8D6E63"/>
<stop offset="0.779" stop-color="#795548"/>
</linearGradient>
<radialGradient id="paint2_radial_146_294" cx="0" cy="0" r="1" gradientUnits="userSpaceOnUse" gradientTransform="translate(114.6 119.117) scale(35.7857 17.5779)">
<stop offset="0.728" stop-color="#454140" stop-opacity="0"/>
<stop offset="1" stop-color="#454140"/>
</radialGradient>
<radialGradient id="paint3_radial_146_294" cx="0" cy="0" r="1" gradientTransform="matrix(-9.57842 4.48199 -3.325 -7.10582 149.849 113.792)" gradientUnits="userSpaceOnUse">
<stop offset="0.663" stop-color="#454140"/>
<stop offset="1" stop-color="#454140" stop-opacity="0"/>
</radialGradient>
<radialGradient id="paint4_radial_146_294" cx="0" cy="0" r="1" gradientTransform="matrix(-3.46528 -46.3215 38.6059 -2.88929 122.442 83.8814)" gradientUnits="userSpaceOnUse">
<stop offset="0.725" stop-color="#454140" stop-opacity="0"/>
<stop offset="1" stop-color="#454140"/>
</radialGradient>
<radialGradient id="paint5_radial_146_294" cx="0" cy="0" r="1" gradientTransform="matrix(3.46528 -46.3215 -38.6059 -2.88929 62.2265 83.8803)" gradientUnits="userSpaceOnUse">
<stop offset="0.725" stop-color="#454140" stop-opacity="0"/>
<stop offset="1" stop-color="#454140"/>
</radialGradient>
<radialGradient id="paint6_radial_146_294" cx="0" cy="0" r="1" gradientUnits="userSpaceOnUse" gradientTransform="translate(70.0663 119.117) rotate(180) scale(35.7857 17.5779)">
<stop offset="0.728" stop-color="#454140" stop-opacity="0"/>
<stop offset="1" stop-color="#454140"/>
</radialGradient>
<radialGradient id="paint7_radial_146_294" cx="0" cy="0" r="1" gradientTransform="matrix(9.57842 4.48199 3.325 -7.10582 34.82 113.793)" gradientUnits="userSpaceOnUse">
<stop offset="0.663" stop-color="#454140"/>
<stop offset="1" stop-color="#454140" stop-opacity="0"/>
</radialGradient>
<linearGradient id="paint8_linear_146_294" x1="92.3164" y1="149.589" x2="92.3164" y2="172.464" gradientUnits="userSpaceOnUse">
<stop stop-color="#E1F5FE"/>
<stop offset="1" stop-color="#81D4FA"/>
</linearGradient>
<linearGradient id="paint9_linear_146_294" x1="39.0069" y1="144.626" x2="39.0069" y2="181.583" gradientUnits="userSpaceOnUse">
<stop stop-color="#FFA000"/>
<stop offset="0.341" stop-color="#FF9300"/>
<stop offset="0.972" stop-color="#FF7100"/>
<stop offset="1" stop-color="#FF6F00"/>
</linearGradient>
<linearGradient id="paint10_linear_146_294" x1="145.627" y1="144.199" x2="145.627" y2="181.832" gradientUnits="userSpaceOnUse">
<stop stop-color="#FFA000"/>
<stop offset="0.341" stop-color="#FF9300"/>
<stop offset="0.972" stop-color="#FF7100"/>
<stop offset="1" stop-color="#FF6F00"/>
</linearGradient>
<linearGradient id="paint11_linear_146_294" x1="116.107" y1="154.471" x2="112.099" y2="171.348" gradientUnits="userSpaceOnUse">
<stop offset="0.002" stop-color="#212121" stop-opacity="0.2"/>
<stop offset="1" stop-color="#212121" stop-opacity="0.6"/>
</linearGradient>
<linearGradient id="paint12_linear_146_294" x1="119.577" y1="163.051" x2="116.565" y2="173.155" gradientUnits="userSpaceOnUse">
<stop stop-color="#EF5350"/>
<stop offset="1" stop-color="#E53935"/>
</linearGradient>
<linearGradient id="paint13_linear_146_294" x1="83.7669" y1="159.972" x2="86.6137" y2="151.024" gradientUnits="userSpaceOnUse">
<stop stop-color="#212121"/>
<stop offset="1" stop-color="#424242"/>
</linearGradient>
<linearGradient id="paint14_linear_146_294" x1="87.6156" y1="150.239" x2="151.426" y2="168.551" gradientUnits="userSpaceOnUse">
<stop offset="0.01" stop-color="#BDBDBD"/>
<stop offset="0.987" stop-color="#F8F8F7"/>
</linearGradient>
<radialGradient id="paint15_radial_146_294" cx="0" cy="0" r="1" gradientTransform="matrix(16.7486 51.8086 38.4413 -12.4254 119.847 59.3711)" gradientUnits="userSpaceOnUse">
<stop offset="0.699" stop-color="#454140" stop-opacity="0"/>
<stop offset="1" stop-color="#454140"/>
</radialGradient>
<radialGradient id="paint16_radial_146_294" cx="0" cy="0" r="1" gradientTransform="matrix(12.582 6.74716 7.99922 -14.9191 66.7687 0.00607886)" gradientUnits="userSpaceOnUse">
<stop offset="0.58" stop-color="#454140"/>
<stop offset="1" stop-color="#454140" stop-opacity="0"/>
</radialGradient>
<radialGradient id="paint17_radial_146_294" cx="0" cy="0" r="1" gradientTransform="matrix(-41.1576 -17.3092 -9.57624 23.1945 98.6758 25.9339)" gradientUnits="userSpaceOnUse">
<stop offset="0.699" stop-color="#454140" stop-opacity="0"/>
<stop offset="1" stop-color="#454140"/>
</radialGradient>
<radialGradient id="paint18_radial_146_294" cx="0" cy="0" r="1" gradientUnits="userSpaceOnUse" gradientTransform="translate(61.0355 13.0303) scale(13.1031 16.0291)">
<stop offset="0.702" stop-color="#454140" stop-opacity="0"/>
<stop offset="1" stop-color="#454140"/>
</radialGradient>
<radialGradient id="paint19_radial_146_294" cx="0" cy="0" r="1" gradientTransform="matrix(-23.7329 -6.3848 -5.97684 22.2092 59.2304 36.1598)" gradientUnits="userSpaceOnUse">
<stop offset="0.66" stop-color="#454140" stop-opacity="0"/>
<stop offset="1" stop-color="#454140"/>
</radialGradient>
<radialGradient id="paint20_radial_146_294" cx="0" cy="0" r="1" gradientTransform="matrix(25.5629 3.51693 4.94124 -35.9201 53.4062 59.8898)" gradientUnits="userSpaceOnUse">
<stop offset="0.598" stop-color="#454140" stop-opacity="0"/>
<stop offset="1" stop-color="#454140"/>
</radialGradient>
</defs>
</svg>
