<svg width="28" height="36" viewBox="0 0 28 36" fill="none" xmlns="http://www.w3.org/2000/svg">
<path d="M14 -6.10352e-05C12.152 -6.10352e-05 10.64 1.51194 10.64 3.35994C10.64 5.20794 12.152 6.71994 14 6.71994C15.848 6.71994 17.36 5.20794 17.36 3.35994C17.36 1.51194 15.848 -6.10352e-05 14 -6.10352e-05ZM14 5.76794C12.656 5.76794 11.592 4.70394 11.592 3.35994C11.592 2.01594 12.656 0.951939 14 0.951939C15.344 0.951939 16.408 2.01594 16.408 3.35994C16.408 4.70394 15.344 5.76794 14 5.76794Z" fill="#D0D0D0"/>
<path d="M13.16 4.81573H14.84V8.45573H13.16V4.81573Z" fill="#4E5C66"/>
<path d="M15.4 6.49607H12.6V3.30407C12.6 2.46407 15.4 2.46407 15.4 3.30407V6.49607Z" fill="#647A87"/>
<path d="M2.0925 11.584L3.75514 9.92078L5.41834 11.5834L3.75626 13.2466L2.0925 11.584Z" fill="#4E5C66"/>
<path d="M4.81592 9.85543L2.01592 12.6554L0.279924 10.9194C-0.0560764 10.5834 -0.0560764 10.0234 0.279924 9.68743L1.84792 8.11943C2.18392 7.78343 2.74392 7.78343 3.07992 8.11943L4.81592 9.85543Z" fill="#647A87"/>
<path d="M22.5929 11.5948L24.2561 9.93158L25.9193 11.5948L24.2561 13.258L22.5929 11.5948Z" fill="#4E5C66"/>
<path d="M25.9837 12.6555L23.1837 9.85549L24.9197 8.11949C25.2557 7.78349 25.8157 7.78349 26.1517 8.11949L27.7197 9.68749C28.0557 10.0235 28.0557 10.5835 27.7197 10.9195L25.9837 12.6555Z" fill="#647A87"/>
<path d="M14 35.8399C21.732 35.8399 28 29.5719 28 21.8399C28 14.1079 21.732 7.8399 14 7.8399C6.26801 7.8399 0 14.1079 0 21.8399C0 29.5719 6.26801 35.8399 14 35.8399Z" fill="#647A87"/>
<path d="M13.9999 33.9914C20.7113 33.9914 26.1519 28.5508 26.1519 21.8394C26.1519 15.1281 20.7113 9.68744 13.9999 9.68744C7.28857 9.68744 1.84793 15.1281 1.84793 21.8394C1.84793 28.5508 7.28857 33.9914 13.9999 33.9914Z" fill="#D2D3D5"/>
<path d="M14 33.0399C20.1856 33.0399 25.2 28.0255 25.2 21.8399C25.2 15.6543 20.1856 10.6399 14 10.6399C7.8144 10.6399 2.79999 15.6543 2.79999 21.8399C2.79999 28.0255 7.8144 33.0399 14 33.0399Z" fill="white"/>
<path d="M25.2 21.8399C25.2 24.9199 23.968 27.7199 21.952 29.7359L14 21.8399V10.6399C20.16 10.6399 25.2 15.6799 25.2 21.8399Z" fill="#ED4C5C"/>
<path d="M20.4401 28.2236L14.7281 21.4476L13.6081 22.5676L20.4401 28.2236ZM13.6081 11.5916H14.3921V14.7276H13.6081V11.5916ZM13.6081 28.9516H14.3921V32.0876H13.6081V28.9516ZM3.75208 21.4476H6.88807V22.2316H3.75208V21.4476ZM21.1121 21.4476H24.2481V22.2316H21.1121V21.4476ZM8.49975 13.1389L9.17904 12.7469L9.96304 14.1049L9.28375 14.4969L8.49975 13.1389ZM4.88776 17.0589L5.27975 16.3802L6.63776 17.1642L6.24576 17.8435L4.88776 17.0589ZM4.90624 26.6623L6.26367 25.8772L6.65568 26.5559L5.2988 27.3411L4.90624 26.6623ZM8.5412 30.5622L9.3252 29.2042L10.0039 29.5962L9.21992 30.9542L8.5412 30.5622ZM18.0086 29.5262L18.6873 29.1342L19.4713 30.4922L18.7931 30.8842L18.0086 29.5262ZM21.3361 26.5604L21.7281 25.8811L23.0861 26.6657L22.6941 27.345L21.3361 26.5604ZM21.2946 17.1513L22.6521 16.3673L23.0441 17.046L21.6866 17.83L21.2946 17.1513ZM17.9962 14.0836L18.7808 12.7262L19.4595 13.1182L18.6755 14.4762L17.9962 14.0836Z" fill="#3E4347"/>
<path d="M14.0002 23.4074C14.8662 23.4074 15.5682 22.7054 15.5682 21.8394C15.5682 20.9734 14.8662 20.2714 14.0002 20.2714C13.1342 20.2714 12.4322 20.9734 12.4322 21.8394C12.4322 22.7054 13.1342 23.4074 14.0002 23.4074Z" fill="#3E4347"/>
</svg>
