<svg width="22" height="22" viewBox="0 0 22 22" fill="none" xmlns="http://www.w3.org/2000/svg">
<g clip-path="url(#clip0_195_1140)">
<path opacity="0.08" d="M20.1113 10.9621C20.1113 16.5332 15.6097 21.0481 10.0545 21.0481C4.49925 21.0481 0 16.5332 0 10.9621C0 5.39091 4.50153 0.878784 10.0545 0.878784C15.6075 0.878784 20.1113 5.3932 20.1113 10.9621Z" fill="#010101"/>
<path d="M21.0476 10.0833C21.0476 15.6544 16.5461 20.1688 10.9908 20.1688C5.43559 20.1688 0.93634 15.6544 0.93634 10.0833C0.93634 4.51213 5.43787 0 10.9908 0C16.5438 0 21.0476 4.51442 21.0476 10.0833Z" fill="#FEDC04"/>
<path d="M10.9921 18.5856C15.6737 18.5856 19.4689 14.7796 19.4689 10.0845C19.4689 5.38951 15.6737 1.58344 10.9921 1.58344C6.31047 1.58344 2.51526 5.38951 2.51526 10.0845C2.51526 14.7796 6.31047 18.5856 10.9921 18.5856Z" fill="url(#paint0_linear_195_1140)"/>
<path d="M10.9919 18.5854C15.6735 18.5854 19.4687 14.7793 19.4687 10.0843C19.4687 5.38927 15.6735 1.58319 10.9919 1.58319C6.31023 1.58319 2.51501 5.38927 2.51501 10.0843C2.51501 14.7793 6.31023 18.5854 10.9919 18.5854Z" stroke="#E89B23" stroke-width="2.21" stroke-miterlimit="10"/>
<path style="mix-blend-mode:screen" opacity="0.24" d="M15.8602 18.9108C15.399 19.1655 14.9194 19.385 14.4252 19.5671L1.39413 7.06461C1.55189 6.5601 1.74955 6.06903 1.98525 5.59607L15.8602 18.9108Z" fill="url(#paint1_linear_195_1140)"/>
<path style="mix-blend-mode:screen" opacity="0.54" d="M20.7543 12.5092C20.3672 14.077 19.6095 15.5283 18.5453 16.7407L4.02753 2.81025C5.1882 1.69137 6.59961 0.86809 8.14326 0.409546L20.7543 12.5092Z" fill="url(#paint2_linear_195_1140)"/>
<path d="M8.55112 6.66803H10.3381L10.9868 8.86054L11.6458 6.66803H13.4326L12.2347 10.0619L12.7439 11.5134L14.2709 6.66803H16.3874L13.7132 13.7761H12.025L10.9858 11.234L9.95767 13.7761H8.27178L5.59631 6.66803H7.70247L9.24007 11.5134L9.72903 10.0619L8.55112 6.66803Z" fill="#EF9D20"/>
<path d="M8.95033 6.57629H10.7371L11.386 8.77008L12.045 6.57756H13.8321L12.6339 9.97018L13.1429 11.4217L14.6703 6.57629H16.7866L14.1112 13.6844H12.4243L11.385 11.1423L10.3569 13.6844H8.67074L5.99527 6.57629H8.10168L9.63903 11.4217L10.1282 9.97018L8.95033 6.57629Z" fill="#FEDA00"/>
</g>
<defs>
<linearGradient id="paint0_linear_195_1140" x1="2.51526" y1="10.0845" x2="19.4689" y2="10.0845" gradientUnits="userSpaceOnUse">
<stop stop-color="#FEDC04"/>
<stop offset="0.65" stop-color="#FBB514"/>
<stop offset="1" stop-color="#FAA51A"/>
</linearGradient>
<linearGradient id="paint1_linear_195_1140" x1="12.2767" y1="16.5131" x2="2.73776" y2="7.35114" gradientUnits="userSpaceOnUse">
<stop stop-color="white"/>
<stop offset="0.11" stop-color="#FAFAFA"/>
<stop offset="0.23" stop-color="#ECECEC"/>
<stop offset="0.36" stop-color="#D5D5D5"/>
<stop offset="0.5" stop-color="#B4B4B4"/>
<stop offset="0.65" stop-color="#8A8A8A"/>
<stop offset="0.79" stop-color="#575757"/>
<stop offset="0.94" stop-color="#1B1B1B"/>
<stop offset="1" stop-color="#010101"/>
</linearGradient>
<linearGradient id="paint2_linear_195_1140" x1="22.4445" y1="17.2188" x2="9.72821" y2="5.20938" gradientUnits="userSpaceOnUse">
<stop stop-color="white"/>
<stop offset="0.17" stop-color="#C6C6C6"/>
<stop offset="0.4" stop-color="#808080"/>
<stop offset="0.6" stop-color="#4A4A4A"/>
<stop offset="0.78" stop-color="#222222"/>
<stop offset="0.91" stop-color="#0A0A0A"/>
<stop offset="1" stop-color="#010101"/>
</linearGradient>
<clipPath id="clip0_195_1140">
<rect width="21.0476" height="21.0476" fill="white"/>
</clipPath>
</defs>
</svg>
