<svg width="23" height="23" viewBox="0 0 23 23" fill="none" xmlns="http://www.w3.org/2000/svg">
<path fill-rule="evenodd" clip-rule="evenodd" d="M16.855 1.57931C22.132 4.71776 23.854 11.5501 20.7155 16.855C17.5771 22.132 10.7169 23.854 5.43989 20.7155C0.162843 17.5771 -1.58691 10.7169 1.57931 5.43989C4.71776 0.162843 11.5501 -1.58691 16.855 1.57931ZM15.6607 3.55126L14.0776 9.43933L13.2166 8.91162L12.8 9.60597C13.3277 10.1614 13.5221 10.9669 13.3277 11.7168L14.022 12.1334L14.5497 11.2446L18.7158 15.6607L12.8555 14.0776L13.3832 13.2166L12.6889 12.8C12.1334 13.3277 11.328 13.5221 10.5781 13.3277L10.1614 14.022L11.0502 14.5497L6.63416 18.7158L8.1895 12.8555L9.07827 13.3832L9.49487 12.6889C8.96717 12.1334 8.77275 11.328 8.96717 10.5781L8.27282 10.1614L7.74512 11.0502L3.55126 6.63416L9.43933 8.1895L8.91162 9.07827L9.60597 9.49487C10.1614 8.96717 10.9669 8.77275 11.7168 8.96717L12.1334 8.27282L11.2446 7.74512L15.6607 3.55126ZM11.8834 9.88371C12.5778 10.3003 12.8277 11.1891 12.4111 11.8834C11.9945 12.5778 11.078 12.8277 10.3836 12.4111C9.68929 11.9945 9.4671 11.078 9.88371 10.3836C10.3003 9.68929 11.1891 9.4671 11.8834 9.88371Z" fill="black"/>
</svg>
